<svg width="275" height="47" viewBox="0 0 275 47" fill="none" xmlns="http://www.w3.org/2000/svg">
<path fill-rule="evenodd" clip-rule="evenodd" d="M0 0H249.792H254.564H275V34.9844L275 34.9845L275 34.9846V35H274.974L254.6 47L254.564 46.9792H0V0Z" fill="url(#paint0_linear_32_1219)"/>
<path d="M123.792 27.4619C123.488 27.4619 123.208 27.3859 122.952 27.2339C122.704 27.0819 122.504 26.8819 122.352 26.6339C122.2 26.3779 122.124 26.0979 122.124 25.7939V20.4899C122.124 20.1859 122.2 19.9099 122.352 19.6619C122.504 19.4059 122.704 19.2019 122.952 19.0499C123.208 18.8979 123.488 18.8219 123.792 18.8219H130.74V20.4179H124.128C124 20.4179 123.896 20.4539 123.816 20.5259C123.744 20.5979 123.708 20.7019 123.708 20.8379V25.4459C123.708 25.5739 123.744 25.6779 123.816 25.7579C123.896 25.8299 124 25.8659 124.128 25.8659H130.74V27.4619H123.792ZM134.824 27.4619C134.52 27.4619 134.24 27.3859 133.984 27.2339C133.736 27.0819 133.536 26.8819 133.384 26.6339C133.232 26.3779 133.156 26.0979 133.156 25.7939V25.1339H134.74V25.7219C134.74 25.7619 134.752 25.7979 134.776 25.8299C134.808 25.8539 134.844 25.8659 134.884 25.8659H140.056C140.096 25.8659 140.128 25.8539 140.152 25.8299C140.184 25.7979 140.2 25.7619 140.2 25.7219V24.0779C140.2 24.0379 140.184 24.0059 140.152 23.9819C140.128 23.9579 140.096 23.9459 140.056 23.9459H134.824C134.52 23.9459 134.24 23.8699 133.984 23.7179C133.736 23.5659 133.536 23.3659 133.384 23.1179C133.232 22.8619 133.156 22.5779 133.156 22.2659V20.4899C133.156 20.1859 133.232 19.9099 133.384 19.6619C133.536 19.4059 133.736 19.2019 133.984 19.0499C134.24 18.8979 134.52 18.8219 134.824 18.8219H140.128C140.432 18.8219 140.708 18.8979 140.956 19.0499C141.212 19.2019 141.416 19.4059 141.568 19.6619C141.72 19.9099 141.796 20.1859 141.796 20.4899V21.1499H140.2V20.5619C140.2 20.5219 140.184 20.4899 140.152 20.4659C140.128 20.4339 140.096 20.4179 140.056 20.4179H134.884C134.844 20.4179 134.808 20.4339 134.776 20.4659C134.752 20.4899 134.74 20.5219 134.74 20.5619V22.2059C134.74 22.2459 134.752 22.2779 134.776 22.3019C134.808 22.3259 134.844 22.3379 134.884 22.3379H140.128C140.432 22.3379 140.708 22.4139 140.956 22.5659C141.212 22.7179 141.416 22.9219 141.568 23.1779C141.72 23.4259 141.796 23.7059 141.796 24.0179V25.7939C141.796 26.0979 141.72 26.3779 141.568 26.6339C141.416 26.8819 141.212 27.0819 140.956 27.2339C140.708 27.3859 140.432 27.4619 140.128 27.4619H134.824ZM145.938 27.4619C145.634 27.4619 145.354 27.3859 145.098 27.2339C144.85 27.0819 144.65 26.8819 144.498 26.6339C144.346 26.3779 144.27 26.0979 144.27 25.7939V25.1339H145.854V25.7219C145.854 25.7619 145.866 25.7979 145.89 25.8299C145.922 25.8539 145.958 25.8659 145.998 25.8659H151.17C151.21 25.8659 151.242 25.8539 151.266 25.8299C151.298 25.7979 151.314 25.7619 151.314 25.7219V24.0779C151.314 24.0379 151.298 24.0059 151.266 23.9819C151.242 23.9579 151.21 23.9459 151.17 23.9459H145.938C145.634 23.9459 145.354 23.8699 145.098 23.7179C144.85 23.5659 144.65 23.3659 144.498 23.1179C144.346 22.8619 144.27 22.5779 144.27 22.2659V20.4899C144.27 20.1859 144.346 19.9099 144.498 19.6619C144.65 19.4059 144.85 19.2019 145.098 19.0499C145.354 18.8979 145.634 18.8219 145.938 18.8219H151.242C151.546 18.8219 151.822 18.8979 152.07 19.0499C152.326 19.2019 152.53 19.4059 152.682 19.6619C152.834 19.9099 152.91 20.1859 152.91 20.4899V21.1499H151.314V20.5619C151.314 20.5219 151.298 20.4899 151.266 20.4659C151.242 20.4339 151.21 20.4179 151.17 20.4179H145.998C145.958 20.4179 145.922 20.4339 145.89 20.4659C145.866 20.4899 145.854 20.5219 145.854 20.5619V22.2059C145.854 22.2459 145.866 22.2779 145.89 22.3019C145.922 22.3259 145.958 22.3379 145.998 22.3379H151.242C151.546 22.3379 151.822 22.4139 152.07 22.5659C152.326 22.7179 152.53 22.9219 152.682 23.1779C152.834 23.4259 152.91 23.7059 152.91 24.0179V25.7939C152.91 26.0979 152.834 26.3779 152.682 26.6339C152.53 26.8819 152.326 27.0819 152.07 27.2339C151.822 27.3859 151.546 27.4619 151.242 27.4619H145.938Z" fill="#161513"/>
<defs>
<linearGradient id="paint0_linear_32_1219" x1="137.5" y1="0" x2="137.5" y2="47" gradientUnits="userSpaceOnUse">
<stop stop-color="#3877FF"/>
<stop offset="1" stop-color="#1CFFAD"/>
</linearGradient>
</defs>
</svg>
