<svg width="275" height="47" viewBox="0 0 275 47" fill="none" xmlns="http://www.w3.org/2000/svg">
<path fill-rule="evenodd" clip-rule="evenodd" d="M0 0H249.792H254.564H275V34.9844L275 34.9845L275 34.9846V35H274.974L254.6 47L254.564 46.9792H0V0Z" fill="url(#paint0_linear_32_1213)"/>
<path d="M115.986 27.4619V18.8219H117.57V22.3379H123.234V18.8219H124.818V27.4619H123.234V23.9459H117.57V27.4619H115.986ZM130.477 27.4619V20.4179H126.949V18.8219H135.589V20.4179H132.073V27.4619H130.477ZM137.686 27.4619V18.8219H139.426L142.558 22.5539L145.678 18.8219H147.43V27.4619H145.834V21.1259L142.558 25.0259L139.27 21.1379V27.4619H137.686ZM150.031 27.4619V18.8099H151.615V25.8659H158.671V27.4619H150.031Z" fill="#161513"/>
<defs>
<linearGradient id="paint0_linear_32_1213" x1="137.5" y1="0" x2="137.5" y2="47" gradientUnits="userSpaceOnUse">
<stop stop-color="#3877FF"/>
<stop offset="1" stop-color="#1CFFAD"/>
</linearGradient>
</defs>
</svg>
