<svg width="275" height="47" viewBox="0 0 275 47" fill="none" xmlns="http://www.w3.org/2000/svg">
<path fill-rule="evenodd" clip-rule="evenodd" d="M0 0H249.792H254.564H275V34.9844L275 34.9845L275 34.9846V35H274.974L254.6 47L254.564 46.9792H0V0Z" fill="url(#paint0_linear_32_1225)"/>
<path d="M93.0711 27.4619C92.7671 27.4619 92.4871 27.3859 92.2311 27.2339C91.9831 27.0819 91.7831 26.8819 91.6311 26.6339C91.4791 26.3779 91.4031 26.0979 91.4031 25.7939V24.8099H92.9871V25.7219C92.9871 25.7619 92.9991 25.7979 93.0231 25.8299C93.0551 25.8539 93.0911 25.8659 93.1311 25.8659H98.2911C98.3311 25.8659 98.3671 25.8539 98.3991 25.8299C98.4311 25.7979 98.4471 25.7619 98.4471 25.7219V18.8219H100.043V25.7939C100.043 26.0979 99.9671 26.3779 99.8151 26.6339C99.6631 26.8819 99.4591 27.0819 99.2031 27.2339C98.9551 27.3859 98.6791 27.4619 98.3751 27.4619H93.0711ZM104.198 27.4619C103.894 27.4619 103.614 27.3859 103.358 27.2339C103.11 27.0819 102.91 26.8819 102.758 26.6339C102.614 26.3859 102.542 26.1099 102.542 25.8059V23.1899H108.038V22.2179C108.038 22.1779 108.022 22.1459 107.99 22.1219C107.966 22.0899 107.934 22.0739 107.894 22.0739H102.542V20.5019H107.954C108.258 20.5019 108.534 20.5779 108.782 20.7299C109.038 20.8819 109.238 21.0819 109.382 21.3299C109.534 21.5779 109.61 21.8539 109.61 22.1579V27.4619H104.198ZM104.258 25.8899H108.038V24.6059H104.114V25.7459C104.114 25.7859 104.126 25.8219 104.15 25.8539C104.182 25.8779 104.218 25.8899 104.258 25.8899ZM115.144 27.4619L111.316 20.5019H113.128L115.876 25.5539L118.612 20.5019H120.424L116.584 27.4619H115.144ZM123.755 27.4619C123.451 27.4619 123.171 27.3859 122.915 27.2339C122.667 27.0819 122.467 26.8819 122.315 26.6339C122.171 26.3859 122.099 26.1099 122.099 25.8059V23.1899H127.595V22.2179C127.595 22.1779 127.579 22.1459 127.547 22.1219C127.523 22.0899 127.491 22.0739 127.451 22.0739H122.099V20.5019H127.511C127.815 20.5019 128.091 20.5779 128.339 20.7299C128.595 20.8819 128.795 21.0819 128.939 21.3299C129.091 21.5779 129.167 21.8539 129.167 22.1579V27.4619H123.755ZM123.815 25.8899H127.595V24.6059H123.671V25.7459C123.671 25.7859 123.683 25.8219 123.707 25.8539C123.739 25.8779 123.775 25.8899 123.815 25.8899ZM138.179 27.4619C137.875 27.4619 137.595 27.3859 137.339 27.2339C137.091 27.0819 136.891 26.8819 136.739 26.6339C136.587 26.3779 136.511 26.0979 136.511 25.7939V25.1339H138.095V25.7219C138.095 25.7619 138.107 25.7979 138.131 25.8299C138.163 25.8539 138.199 25.8659 138.239 25.8659H143.411C143.451 25.8659 143.483 25.8539 143.507 25.8299C143.539 25.7979 143.555 25.7619 143.555 25.7219V24.0779C143.555 24.0379 143.539 24.0059 143.507 23.9819C143.483 23.9579 143.451 23.9459 143.411 23.9459H138.179C137.875 23.9459 137.595 23.8699 137.339 23.7179C137.091 23.5659 136.891 23.3659 136.739 23.1179C136.587 22.8619 136.511 22.5779 136.511 22.2659V20.4899C136.511 20.1859 136.587 19.9099 136.739 19.6619C136.891 19.4059 137.091 19.2019 137.339 19.0499C137.595 18.8979 137.875 18.8219 138.179 18.8219H143.483C143.787 18.8219 144.063 18.8979 144.311 19.0499C144.567 19.2019 144.771 19.4059 144.923 19.6619C145.075 19.9099 145.151 20.1859 145.151 20.4899V21.1499H143.555V20.5619C143.555 20.5219 143.539 20.4899 143.507 20.4659C143.483 20.4339 143.451 20.4179 143.411 20.4179H138.239C138.199 20.4179 138.163 20.4339 138.131 20.4659C138.107 20.4899 138.095 20.5219 138.095 20.5619V22.2059C138.095 22.2459 138.107 22.2779 138.131 22.3019C138.163 22.3259 138.199 22.3379 138.239 22.3379H143.483C143.787 22.3379 144.063 22.4139 144.311 22.5659C144.567 22.7179 144.771 22.9219 144.923 23.1779C145.075 23.4259 145.151 23.7059 145.151 24.0179V25.7939C145.151 26.0979 145.075 26.3779 144.923 26.6339C144.771 26.8819 144.567 27.0819 144.311 27.2339C144.063 27.3859 143.787 27.4619 143.483 27.4619H138.179ZM149.257 27.4619C148.953 27.4619 148.677 27.3859 148.429 27.2339C148.181 27.0819 147.981 26.8819 147.829 26.6339C147.677 26.3859 147.601 26.1099 147.601 25.8059V22.1579C147.601 21.8539 147.677 21.5779 147.829 21.3299C147.981 21.0819 148.181 20.8819 148.429 20.7299C148.677 20.5779 148.953 20.5019 149.257 20.5019H154.657V22.0739H149.317C149.277 22.0739 149.241 22.0899 149.209 22.1219C149.185 22.1459 149.173 22.1779 149.173 22.2179V25.7459C149.173 25.7859 149.185 25.8219 149.209 25.8539C149.241 25.8779 149.277 25.8899 149.317 25.8899H154.669V27.4619H149.257ZM157.074 27.4619V22.1579C157.074 21.8539 157.15 21.5779 157.302 21.3299C157.454 21.0819 157.654 20.8819 157.902 20.7299C158.158 20.5779 158.434 20.5019 158.73 20.5019H162.594V22.0739H158.79C158.75 22.0739 158.714 22.0899 158.682 22.1219C158.658 22.1459 158.646 22.1779 158.646 22.2179V27.4619H157.074ZM164.708 27.4619V20.5019H166.28V27.4619H164.708ZM164.708 19.8059V18.2219H166.28V19.8059H164.708ZM168.662 30.2219V20.5019H174.074C174.378 20.5019 174.654 20.5779 174.902 20.7299C175.158 20.8819 175.358 21.0819 175.502 21.3299C175.654 21.5779 175.73 21.8539 175.73 22.1579V25.8059C175.73 26.1099 175.654 26.3859 175.502 26.6339C175.358 26.8819 175.158 27.0819 174.902 27.2339C174.654 27.3859 174.378 27.4619 174.074 27.4619H170.234V30.2219H168.662ZM170.378 25.8899H174.014C174.054 25.8899 174.086 25.8779 174.11 25.8539C174.142 25.8219 174.158 25.7859 174.158 25.7459V22.2179C174.158 22.1779 174.142 22.1459 174.11 22.1219C174.086 22.0899 174.054 22.0739 174.014 22.0739H170.378C170.338 22.0739 170.302 22.0899 170.27 22.1219C170.246 22.1459 170.234 22.1779 170.234 22.2179V25.7459C170.234 25.7859 170.246 25.8219 170.27 25.8539C170.302 25.8779 170.338 25.8899 170.378 25.8899ZM179.475 27.4619C179.171 27.4619 178.895 27.3859 178.647 27.2339C178.399 27.0819 178.199 26.8819 178.047 26.6339C177.895 26.3859 177.819 26.1099 177.819 25.8059V18.3659H179.391V20.5019H182.103V22.0739H179.391V25.7459C179.391 25.7859 179.403 25.8219 179.427 25.8539C179.459 25.8779 179.495 25.8899 179.535 25.8899H182.103V27.4619H179.475Z" fill="#161513"/>
<defs>
<linearGradient id="paint0_linear_32_1225" x1="137.5" y1="0" x2="137.5" y2="47" gradientUnits="userSpaceOnUse">
<stop stop-color="#3877FF"/>
<stop offset="1" stop-color="#1CFFAD"/>
</linearGradient>
</defs>
</svg>
