<svg width="275" height="47" viewBox="0 0 275 47" fill="none" xmlns="http://www.w3.org/2000/svg">
<path fill-rule="evenodd" clip-rule="evenodd" d="M0 0H249.792H254.564H275V34.9842L275 34.9844L275 34.9845V35H274.974L254.6 46.9999L254.564 46.9792H0V0Z" fill="url(#paint0_linear_32_1243)"/>
<path d="M39.736 27.4619V18.8099H41.32V25.8659H48.376V27.4619H39.736ZM50.2275 27.4619V20.5019H51.7995V27.4619H50.2275ZM50.2275 19.8059V18.2219H51.7995V19.8059H50.2275ZM54.1117 27.4619V18.2219H55.6837V20.5019H59.5237C59.8277 20.5019 60.1037 20.5779 60.3517 20.7299C60.6077 20.8819 60.8077 21.0819 60.9517 21.3299C61.1037 21.5779 61.1797 21.8539 61.1797 22.1579V25.8059C61.1797 26.1099 61.1037 26.3859 60.9517 26.6339C60.8077 26.8819 60.6077 27.0819 60.3517 27.2339C60.1037 27.3859 59.8277 27.4619 59.5237 27.4619H54.1117ZM55.8277 25.8899H59.4637C59.5037 25.8899 59.5357 25.8779 59.5597 25.8539C59.5917 25.8219 59.6077 25.7859 59.6077 25.7459V22.2179C59.6077 22.1779 59.5917 22.1459 59.5597 22.1219C59.5357 22.0899 59.5037 22.0739 59.4637 22.0739H55.8277C55.7877 22.0739 55.7517 22.0899 55.7197 22.1219C55.6957 22.1459 55.6837 22.1779 55.6837 22.2179V25.7459C55.6837 25.7859 55.6957 25.8219 55.7197 25.8539C55.7517 25.8779 55.7877 25.8899 55.8277 25.8899ZM63.2916 27.4619V22.1579C63.2916 21.8539 63.3676 21.5779 63.5196 21.3299C63.6716 21.0819 63.8716 20.8819 64.1196 20.7299C64.3756 20.5779 64.6516 20.5019 64.9476 20.5019H68.8116V22.0739H65.0076C64.9676 22.0739 64.9316 22.0899 64.8996 22.1219C64.8756 22.1459 64.8636 22.1779 64.8636 22.2179V27.4619H63.2916ZM72.5812 27.4619C72.2772 27.4619 71.9972 27.3859 71.7412 27.2339C71.4932 27.0819 71.2932 26.8819 71.1412 26.6339C70.9972 26.3859 70.9252 26.1099 70.9252 25.8059V23.1899H76.4212V22.2179C76.4212 22.1779 76.4052 22.1459 76.3732 22.1219C76.3492 22.0899 76.3172 22.0739 76.2772 22.0739H70.9252V20.5019H76.3372C76.6412 20.5019 76.9172 20.5779 77.1652 20.7299C77.4212 20.8819 77.6212 21.0819 77.7652 21.3299C77.9172 21.5779 77.9932 21.8539 77.9932 22.1579V27.4619H72.5812ZM72.6412 25.8899H76.4212V24.6059H72.4972V25.7459C72.4972 25.7859 72.5092 25.8219 72.5332 25.8539C72.5652 25.8779 72.6012 25.8899 72.6412 25.8899ZM80.2111 27.4619V22.1579C80.2111 21.8539 80.2871 21.5779 80.4391 21.3299C80.5911 21.0819 80.7911 20.8819 81.0391 20.7299C81.2951 20.5779 81.5711 20.5019 81.8671 20.5019H85.7311V22.0739H81.9271C81.8871 22.0739 81.8511 22.0899 81.8191 22.1219C81.7951 22.1459 81.7831 22.1779 81.7831 22.2179V27.4619H80.2111ZM87.8447 27.4619V20.5019H89.4167V27.4619H87.8447ZM87.8447 19.8059V18.2219H89.4167V19.8059H87.8447ZM93.4309 27.4619C93.1269 27.4619 92.8509 27.3859 92.6029 27.2339C92.3549 27.0819 92.1549 26.8819 92.0029 26.6339C91.8509 26.3859 91.7749 26.1099 91.7749 25.8059V22.1579C91.7749 21.8539 91.8509 21.5779 92.0029 21.3299C92.1549 21.0819 92.3549 20.8819 92.6029 20.7299C92.8509 20.5779 93.1269 20.5019 93.4309 20.5019H97.1869C97.4909 20.5019 97.7669 20.5779 98.0149 20.7299C98.2709 20.8819 98.4709 21.0819 98.6149 21.3299C98.7669 21.5779 98.8429 21.8539 98.8429 22.1579V24.7739H93.3469V25.7459C93.3469 25.7859 93.3589 25.8219 93.3829 25.8539C93.4149 25.8779 93.4509 25.8899 93.4909 25.8899H98.8429V27.4619H93.4309ZM93.3469 23.3579H97.2709V22.2179C97.2709 22.1779 97.2549 22.1459 97.2229 22.1219C97.1989 22.0899 97.1669 22.0739 97.1269 22.0739H93.4909C93.4509 22.0739 93.4149 22.0899 93.3829 22.1219C93.3589 22.1459 93.3469 22.1779 93.3469 22.2179V23.3579ZM102.821 27.4619C102.517 27.4619 102.241 27.3859 101.993 27.2339C101.745 27.0819 101.545 26.8819 101.393 26.6339C101.241 26.3859 101.165 26.1099 101.165 25.8059V25.5419H102.737V25.7459C102.737 25.7859 102.749 25.8219 102.773 25.8539C102.805 25.8779 102.841 25.8899 102.881 25.8899H106.517C106.557 25.8899 106.589 25.8779 106.613 25.8539C106.645 25.8219 106.661 25.7859 106.661 25.7459V24.9179C106.661 24.8779 106.645 24.8459 106.613 24.8219C106.589 24.7899 106.557 24.7739 106.517 24.7739H102.821C102.517 24.7739 102.241 24.6979 101.993 24.5459C101.745 24.3939 101.545 24.1939 101.393 23.9459C101.241 23.6979 101.165 23.4219 101.165 23.1179V22.1579C101.165 21.8539 101.241 21.5779 101.393 21.3299C101.545 21.0819 101.745 20.8819 101.993 20.7299C102.241 20.5779 102.517 20.5019 102.821 20.5019H106.577C106.889 20.5019 107.169 20.5779 107.417 20.7299C107.665 20.8819 107.865 21.0819 108.017 21.3299C108.169 21.5779 108.245 21.8539 108.245 22.1579V22.4219H106.661V22.2179C106.661 22.1779 106.645 22.1459 106.613 22.1219C106.589 22.0899 106.557 22.0739 106.517 22.0739H102.881C102.841 22.0739 102.805 22.0899 102.773 22.1219C102.749 22.1459 102.737 22.1779 102.737 22.2179V23.0459C102.737 23.0859 102.749 23.1219 102.773 23.1539C102.805 23.1779 102.841 23.1899 102.881 23.1899H106.577C106.889 23.1899 107.169 23.2659 107.417 23.4179C107.665 23.5699 107.865 23.7699 108.017 24.0179C108.169 24.2659 108.245 24.5419 108.245 24.8459V25.8059C108.245 26.1099 108.169 26.3859 108.017 26.6339C107.865 26.8819 107.665 27.0819 107.417 27.2339C107.169 27.3859 106.889 27.4619 106.577 27.4619H102.821ZM115.58 27.4619V20.4899C115.58 20.1859 115.656 19.9099 115.808 19.6619C115.96 19.4059 116.16 19.2019 116.408 19.0499C116.664 18.8979 116.944 18.8219 117.248 18.8219H122.54C122.844 18.8219 123.124 18.8979 123.38 19.0499C123.636 19.2019 123.84 19.4059 123.992 19.6619C124.144 19.9099 124.22 20.1859 124.22 20.4899V27.4619H122.624V24.5579H117.164V27.4619H115.58ZM117.164 22.9739H122.624V20.5619C122.624 20.5219 122.608 20.4899 122.576 20.4659C122.544 20.4339 122.508 20.4179 122.468 20.4179H117.308C117.268 20.4179 117.232 20.4339 117.2 20.4659C117.176 20.4899 117.164 20.5219 117.164 20.5619V22.9739ZM126.763 27.4619V20.5019H132.175C132.479 20.5019 132.755 20.5779 133.003 20.7299C133.259 20.8819 133.459 21.0819 133.603 21.3299C133.755 21.5779 133.831 21.8539 133.831 22.1579V27.4619H132.259V22.2179C132.259 22.1779 132.243 22.1459 132.211 22.1219C132.187 22.0899 132.155 22.0739 132.115 22.0739H128.479C128.439 22.0739 128.403 22.0899 128.371 22.1219C128.347 22.1459 128.335 22.1779 128.335 22.2179V27.4619H126.763ZM137.603 27.4619C137.291 27.4619 137.011 27.3859 136.763 27.2339C136.515 27.0819 136.315 26.8819 136.163 26.6339C136.019 26.3859 135.947 26.1099 135.947 25.8059V22.1579C135.947 21.8539 136.019 21.5779 136.163 21.3299C136.315 21.0819 136.515 20.8819 136.763 20.7299C137.011 20.5779 137.291 20.5019 137.603 20.5019H141.455V18.2219H143.027V27.4619H137.603ZM137.675 25.8899H141.311C141.351 25.8899 141.383 25.8779 141.407 25.8539C141.439 25.8219 141.455 25.7859 141.455 25.7459V22.2179C141.455 22.1779 141.439 22.1459 141.407 22.1219C141.383 22.0899 141.351 22.0739 141.311 22.0739H137.675C137.635 22.0739 137.599 22.0899 137.567 22.1219C137.543 22.1459 137.531 22.1779 137.531 22.2179V25.7459C137.531 25.7859 137.543 25.8219 137.567 25.8539C137.599 25.8779 137.635 25.8899 137.675 25.8899ZM150.439 27.4619V18.8219H158.395V20.4179H152.035V22.3379H157.147V23.9459H152.035V27.4619H150.439ZM160.238 27.4619V22.1579C160.238 21.8539 160.314 21.5779 160.466 21.3299C160.618 21.0819 160.818 20.8819 161.066 20.7299C161.322 20.5779 161.598 20.5019 161.894 20.5019H165.758V22.0739H161.954C161.914 22.0739 161.878 22.0899 161.846 22.1219C161.822 22.1459 161.81 22.1779 161.81 22.2179V27.4619H160.238ZM169.528 27.4619C169.224 27.4619 168.944 27.3859 168.688 27.2339C168.44 27.0819 168.24 26.8819 168.088 26.6339C167.944 26.3859 167.872 26.1099 167.872 25.8059V23.1899H173.368V22.2179C173.368 22.1779 173.352 22.1459 173.32 22.1219C173.296 22.0899 173.264 22.0739 173.224 22.0739H167.872V20.5019H173.284C173.588 20.5019 173.864 20.5779 174.112 20.7299C174.368 20.8819 174.568 21.0819 174.712 21.3299C174.864 21.5779 174.94 21.8539 174.94 22.1579V27.4619H169.528ZM169.588 25.8899H173.368V24.6059H169.444V25.7459C169.444 25.7859 169.456 25.8219 169.48 25.8539C169.512 25.8779 169.548 25.8899 169.588 25.8899ZM177.123 27.4619V20.5019H185.751C186.063 20.5019 186.343 20.5779 186.591 20.7299C186.839 20.8819 187.035 21.0819 187.179 21.3299C187.331 21.5779 187.407 21.8539 187.407 22.1579V27.4619H185.847V22.2179C185.847 22.1779 185.831 22.1459 185.799 22.1219C185.767 22.0899 185.731 22.0739 185.691 22.0739H183.207C183.167 22.0739 183.131 22.0899 183.099 22.1219C183.075 22.1459 183.063 22.1779 183.063 22.2179V27.4619H181.479V22.2179C181.479 22.1779 181.463 22.1459 181.431 22.1219C181.407 22.0899 181.375 22.0739 181.335 22.0739H178.839C178.799 22.0739 178.763 22.0899 178.731 22.1219C178.707 22.1459 178.695 22.1779 178.695 22.2179V27.4619H177.123ZM191.346 27.4619C191.042 27.4619 190.766 27.3859 190.518 27.2339C190.27 27.0819 190.07 26.8819 189.918 26.6339C189.766 26.3859 189.69 26.1099 189.69 25.8059V22.1579C189.69 21.8539 189.766 21.5779 189.918 21.3299C190.07 21.0819 190.27 20.8819 190.518 20.7299C190.766 20.5779 191.042 20.5019 191.346 20.5019H195.102C195.406 20.5019 195.682 20.5779 195.93 20.7299C196.186 20.8819 196.386 21.0819 196.53 21.3299C196.682 21.5779 196.758 21.8539 196.758 22.1579V24.7739H191.262V25.7459C191.262 25.7859 191.274 25.8219 191.298 25.8539C191.33 25.8779 191.366 25.8899 191.406 25.8899H196.758V27.4619H191.346ZM191.262 23.3579H195.186V22.2179C195.186 22.1779 195.17 22.1459 195.138 22.1219C195.114 22.0899 195.082 22.0739 195.042 22.0739H191.406C191.366 22.0739 191.33 22.0899 191.298 22.1219C191.274 22.1459 191.262 22.1779 191.262 22.2179V23.3579ZM201.285 27.4619L198.549 20.5019H200.217L201.909 24.6059L203.685 20.5019H205.317L207.213 24.6299L208.785 20.5019H210.453L207.837 27.4619H206.613L204.513 22.8179L202.509 27.4619H201.285ZM213.738 27.4619C213.434 27.4619 213.158 27.3859 212.91 27.2339C212.662 27.0819 212.462 26.8819 212.31 26.6339C212.158 26.3859 212.082 26.1099 212.082 25.8059V22.1579C212.082 21.8539 212.158 21.5779 212.31 21.3299C212.462 21.0819 212.662 20.8819 212.91 20.7299C213.158 20.5779 213.434 20.5019 213.738 20.5019H217.494C217.798 20.5019 218.074 20.5779 218.322 20.7299C218.578 20.8819 218.778 21.0819 218.922 21.3299C219.074 21.5779 219.15 21.8539 219.15 22.1579V25.8059C219.15 26.1099 219.074 26.3859 218.922 26.6339C218.778 26.8819 218.582 27.0819 218.334 27.2339C218.086 27.3859 217.806 27.4619 217.494 27.4619H213.738ZM213.798 25.8899H217.434C217.474 25.8899 217.506 25.8779 217.53 25.8539C217.562 25.8219 217.578 25.7859 217.578 25.7459V22.2179C217.578 22.1779 217.562 22.1459 217.53 22.1219C217.506 22.0899 217.474 22.0739 217.434 22.0739H213.798C213.758 22.0739 213.722 22.0899 213.69 22.1219C213.666 22.1459 213.654 22.1779 213.654 22.2179V25.7459C213.654 25.7859 213.666 25.8219 213.69 25.8539C213.722 25.8779 213.758 25.8899 213.798 25.8899ZM221.345 27.4619V22.1579C221.345 21.8539 221.421 21.5779 221.573 21.3299C221.725 21.0819 221.925 20.8819 222.173 20.7299C222.429 20.5779 222.705 20.5019 223.001 20.5019H226.865V22.0739H223.061C223.021 22.0739 222.985 22.0899 222.953 22.1219C222.929 22.1459 222.917 22.1779 222.917 22.2179V27.4619H221.345ZM228.838 27.4619V18.2219H230.41V23.1899H231.646L234.13 20.5019H235.81V20.9339L233.038 23.9819L235.798 27.0299V27.4619H234.13L231.646 24.7739H230.41V27.4619H228.838Z" fill="#161513"/>
<defs>
<linearGradient id="paint0_linear_32_1243" x1="137.5" y1="0" x2="137.5" y2="47" gradientUnits="userSpaceOnUse">
<stop stop-color="#3877FF"/>
<stop offset="1" stop-color="#1CFFAD"/>
</linearGradient>
</defs>
</svg>
