<svg width="275" height="47" viewBox="0 0 275 47" fill="none" xmlns="http://www.w3.org/2000/svg">
<path fill-rule="evenodd" clip-rule="evenodd" d="M0 0H249.792H254.564H275V34.9844L275 34.9845L275 34.9846V35H274.974L254.6 47L254.564 46.9792H0V0Z" fill="url(#paint0_linear_32_1231)"/>
<path d="M109.635 27.4619L107.031 24.3539H109.107L111.363 27.0179V27.4619H109.635ZM102.747 27.4619V18.8339H109.707C110.011 18.8339 110.291 18.9099 110.547 19.0619C110.803 19.2139 111.007 19.4179 111.159 19.6739C111.311 19.9219 111.387 20.1979 111.387 20.5019V22.8299C111.387 23.1339 111.311 23.4139 111.159 23.6699C111.007 23.9259 110.803 24.1299 110.547 24.2819C110.291 24.4259 110.011 24.4979 109.707 24.4979L104.331 24.5099V27.4619H102.747ZM104.475 22.9019H109.635C109.675 22.9019 109.711 22.8899 109.743 22.8659C109.775 22.8419 109.791 22.8099 109.791 22.7699V20.5619C109.791 20.5219 109.775 20.4899 109.743 20.4659C109.711 20.4339 109.675 20.4179 109.635 20.4179H104.475C104.435 20.4179 104.399 20.4339 104.367 20.4659C104.343 20.4899 104.331 20.5219 104.331 20.5619V22.7699C104.331 22.8099 104.343 22.8419 104.367 22.8659C104.399 22.8899 104.435 22.9019 104.475 22.9019ZM115.446 27.4619C115.142 27.4619 114.866 27.3859 114.618 27.2339C114.37 27.0819 114.17 26.8819 114.018 26.6339C113.866 26.3859 113.79 26.1099 113.79 25.8059V22.1579C113.79 21.8539 113.866 21.5779 114.018 21.3299C114.17 21.0819 114.37 20.8819 114.618 20.7299C114.866 20.5779 115.142 20.5019 115.446 20.5019H119.202C119.506 20.5019 119.782 20.5779 120.03 20.7299C120.286 20.8819 120.486 21.0819 120.63 21.3299C120.782 21.5779 120.858 21.8539 120.858 22.1579V24.7739H115.362V25.7459C115.362 25.7859 115.374 25.8219 115.398 25.8539C115.43 25.8779 115.466 25.8899 115.506 25.8899H120.858V27.4619H115.446ZM115.362 23.3579H119.286V22.2179C119.286 22.1779 119.27 22.1459 119.238 22.1219C119.214 22.0899 119.182 22.0739 119.142 22.0739H115.506C115.466 22.0739 115.43 22.0899 115.398 22.1219C115.374 22.1459 115.362 22.1779 115.362 22.2179V23.3579ZM124.966 27.4619C124.662 27.4619 124.382 27.3859 124.126 27.2339C123.878 27.0819 123.678 26.8819 123.526 26.6339C123.382 26.3859 123.31 26.1099 123.31 25.8059V23.1899H128.806V22.2179C128.806 22.1779 128.79 22.1459 128.758 22.1219C128.734 22.0899 128.702 22.0739 128.662 22.0739H123.31V20.5019H128.722C129.026 20.5019 129.302 20.5779 129.55 20.7299C129.806 20.8819 130.006 21.0819 130.15 21.3299C130.302 21.5779 130.378 21.8539 130.378 22.1579V27.4619H124.966ZM125.026 25.8899H128.806V24.6059H124.882V25.7459C124.882 25.7859 124.894 25.8219 124.918 25.8539C124.95 25.8779 124.986 25.8899 125.026 25.8899ZM134.158 27.4619C133.854 27.4619 133.578 27.3859 133.33 27.2339C133.082 27.0819 132.882 26.8819 132.73 26.6339C132.578 26.3859 132.502 26.1099 132.502 25.8059V22.1579C132.502 21.8539 132.578 21.5779 132.73 21.3299C132.882 21.0819 133.082 20.8819 133.33 20.7299C133.578 20.5779 133.854 20.5019 134.158 20.5019H139.558V22.0739H134.218C134.178 22.0739 134.142 22.0899 134.11 22.1219C134.086 22.1459 134.074 22.1779 134.074 22.2179V25.7459C134.074 25.7859 134.086 25.8219 134.11 25.8539C134.142 25.8779 134.178 25.8899 134.218 25.8899H139.57V27.4619H134.158ZM143.41 27.4619C143.106 27.4619 142.83 27.3859 142.582 27.2339C142.334 27.0819 142.134 26.8819 141.982 26.6339C141.83 26.3859 141.754 26.1099 141.754 25.8059V18.3659H143.326V20.5019H146.038V22.0739H143.326V25.7459C143.326 25.7859 143.338 25.8219 143.362 25.8539C143.394 25.8779 143.43 25.8899 143.47 25.8899H146.038V27.4619H143.41ZM154.163 27.4619C153.859 27.4619 153.579 27.3859 153.323 27.2339C153.075 27.0819 152.875 26.8819 152.723 26.6339C152.571 26.3779 152.495 26.0979 152.495 25.7939V24.8099H154.079V25.7219C154.079 25.7619 154.091 25.7979 154.115 25.8299C154.147 25.8539 154.183 25.8659 154.223 25.8659H159.383C159.423 25.8659 159.459 25.8539 159.491 25.8299C159.523 25.7979 159.539 25.7619 159.539 25.7219V18.8219H161.135V25.7939C161.135 26.0979 161.059 26.3779 160.907 26.6339C160.755 26.8819 160.551 27.0819 160.295 27.2339C160.047 27.3859 159.771 27.4619 159.467 27.4619H154.163ZM165.315 27.4619C165.011 27.4619 164.731 27.3859 164.475 27.2339C164.227 27.0819 164.027 26.8819 163.875 26.6339C163.723 26.3779 163.647 26.0979 163.647 25.7939V25.1339H165.231V25.7219C165.231 25.7619 165.243 25.7979 165.267 25.8299C165.299 25.8539 165.335 25.8659 165.375 25.8659H170.547C170.587 25.8659 170.619 25.8539 170.643 25.8299C170.675 25.7979 170.691 25.7619 170.691 25.7219V24.0779C170.691 24.0379 170.675 24.0059 170.643 23.9819C170.619 23.9579 170.587 23.9459 170.547 23.9459H165.315C165.011 23.9459 164.731 23.8699 164.475 23.7179C164.227 23.5659 164.027 23.3659 163.875 23.1179C163.723 22.8619 163.647 22.5779 163.647 22.2659V20.4899C163.647 20.1859 163.723 19.9099 163.875 19.6619C164.027 19.4059 164.227 19.2019 164.475 19.0499C164.731 18.8979 165.011 18.8219 165.315 18.8219H170.619C170.923 18.8219 171.199 18.8979 171.447 19.0499C171.703 19.2019 171.907 19.4059 172.059 19.6619C172.211 19.9099 172.287 20.1859 172.287 20.4899V21.1499H170.691V20.5619C170.691 20.5219 170.675 20.4899 170.643 20.4659C170.619 20.4339 170.587 20.4179 170.547 20.4179H165.375C165.335 20.4179 165.299 20.4339 165.267 20.4659C165.243 20.4899 165.231 20.5219 165.231 20.5619V22.2059C165.231 22.2459 165.243 22.2779 165.267 22.3019C165.299 22.3259 165.335 22.3379 165.375 22.3379H170.619C170.923 22.3379 171.199 22.4139 171.447 22.5659C171.703 22.7179 171.907 22.9219 172.059 23.1779C172.211 23.4259 172.287 23.7059 172.287 24.0179V25.7939C172.287 26.0979 172.211 26.3779 172.059 26.6339C171.907 26.8819 171.703 27.0819 171.447 27.2339C171.199 27.3859 170.923 27.4619 170.619 27.4619H165.315Z" fill="#161513"/>
<defs>
<linearGradient id="paint0_linear_32_1231" x1="137.5" y1="0" x2="137.5" y2="47" gradientUnits="userSpaceOnUse">
<stop stop-color="#3877FF"/>
<stop offset="1" stop-color="#1CFFAD"/>
</linearGradient>
</defs>
</svg>
