<svg width="275" height="47" viewBox="0 0 275 47" fill="none" xmlns="http://www.w3.org/2000/svg">
<path fill-rule="evenodd" clip-rule="evenodd" d="M0 0H249.792H254.564H275V34.9842L275 34.9844L275 34.9845V35H274.974L254.6 46.9999L254.564 46.9792H0V0Z" fill="url(#paint0_linear_32_1237)"/>
<path d="M90.0606 27.4619V20.4179H86.5326V18.8219H95.1726V20.4179H91.6566V27.4619H90.0606ZM98.878 27.4619C98.574 27.4619 98.294 27.3859 98.038 27.2339C97.79 27.0819 97.59 26.8819 97.438 26.6339C97.294 26.3859 97.222 26.1099 97.222 25.8059V23.1899H102.718V22.2179C102.718 22.1779 102.702 22.1459 102.67 22.1219C102.646 22.0899 102.614 22.0739 102.574 22.0739H97.222V20.5019H102.634C102.938 20.5019 103.214 20.5779 103.462 20.7299C103.718 20.8819 103.918 21.0819 104.062 21.3299C104.214 21.5779 104.29 21.8539 104.29 22.1579V27.4619H98.878ZM98.938 25.8899H102.718V24.6059H98.794V25.7459C98.794 25.7859 98.806 25.8219 98.83 25.8539C98.862 25.8779 98.898 25.8899 98.938 25.8899ZM106.754 27.4619V20.5019H108.326V27.4619H106.754ZM106.754 19.8059V18.2219H108.326V19.8059H106.754ZM112.516 27.4619C112.212 27.4619 111.936 27.3859 111.688 27.2339C111.44 27.0819 111.24 26.8819 111.088 26.6339C110.936 26.3859 110.86 26.1099 110.86 25.8059V18.2099H112.444V25.7459C112.444 25.7859 112.456 25.8219 112.48 25.8539C112.512 25.8779 112.548 25.8899 112.588 25.8899H113.92V27.4619H112.516ZM118.26 27.4619L115.524 20.5019H117.192L118.884 24.6059L120.66 20.5019H122.292L124.188 24.6299L125.76 20.5019H127.428L124.812 27.4619H123.588L121.488 22.8179L119.484 27.4619H118.26ZM129.467 27.4619V20.5019H131.039V27.4619H129.467ZM129.467 19.8059V18.2219H131.039V19.8059H129.467ZM133.633 27.4619V20.5019H139.045C139.349 20.5019 139.625 20.5779 139.873 20.7299C140.129 20.8819 140.329 21.0819 140.473 21.3299C140.625 21.5779 140.701 21.8539 140.701 22.1579V27.4619H139.129V22.2179C139.129 22.1779 139.113 22.1459 139.081 22.1219C139.057 22.0899 139.025 22.0739 138.985 22.0739H135.349C135.309 22.0739 135.273 22.0899 135.241 22.1219C135.217 22.1459 135.205 22.1779 135.205 22.2179V27.4619H133.633ZM144.472 27.4619C144.16 27.4619 143.88 27.3859 143.632 27.2339C143.384 27.0819 143.184 26.8819 143.032 26.6339C142.888 26.3859 142.816 26.1099 142.816 25.8059V22.1579C142.816 21.8539 142.888 21.5779 143.032 21.3299C143.184 21.0819 143.384 20.8819 143.632 20.7299C143.88 20.5779 144.16 20.5019 144.472 20.5019H148.324V18.2219H149.896V27.4619H144.472ZM144.544 25.8899H148.18C148.22 25.8899 148.252 25.8779 148.276 25.8539C148.308 25.8219 148.324 25.7859 148.324 25.7459V22.2179C148.324 22.1779 148.308 22.1459 148.276 22.1219C148.252 22.0899 148.22 22.0739 148.18 22.0739H144.544C144.504 22.0739 144.468 22.0899 144.436 22.1219C144.412 22.1459 144.4 22.1779 144.4 22.2179V25.7459C144.4 25.7859 144.412 25.8219 144.436 25.8539C144.468 25.8779 144.504 25.8899 144.544 25.8899ZM158.952 27.4619C158.648 27.4619 158.368 27.3859 158.112 27.2339C157.864 27.0819 157.664 26.8819 157.512 26.6339C157.36 26.3779 157.284 26.0979 157.284 25.7939V20.4899C157.284 20.1859 157.36 19.9099 157.512 19.6619C157.664 19.4059 157.864 19.2019 158.112 19.0499C158.368 18.8979 158.648 18.8219 158.952 18.8219H165.9V20.4179H159.288C159.16 20.4179 159.056 20.4539 158.976 20.5259C158.904 20.5979 158.868 20.7019 158.868 20.8379V25.4459C158.868 25.5739 158.904 25.6779 158.976 25.7579C159.056 25.8299 159.16 25.8659 159.288 25.8659H165.9V27.4619H158.952ZM169.983 27.4619C169.679 27.4619 169.399 27.3859 169.143 27.2339C168.895 27.0819 168.695 26.8819 168.543 26.6339C168.391 26.3779 168.315 26.0979 168.315 25.7939V25.1339H169.899V25.7219C169.899 25.7619 169.911 25.7979 169.935 25.8299C169.967 25.8539 170.003 25.8659 170.043 25.8659H175.215C175.255 25.8659 175.287 25.8539 175.311 25.8299C175.343 25.7979 175.359 25.7619 175.359 25.7219V24.0779C175.359 24.0379 175.343 24.0059 175.311 23.9819C175.287 23.9579 175.255 23.9459 175.215 23.9459H169.983C169.679 23.9459 169.399 23.8699 169.143 23.7179C168.895 23.5659 168.695 23.3659 168.543 23.1179C168.391 22.8619 168.315 22.5779 168.315 22.2659V20.4899C168.315 20.1859 168.391 19.9099 168.543 19.6619C168.695 19.4059 168.895 19.2019 169.143 19.0499C169.399 18.8979 169.679 18.8219 169.983 18.8219H175.287C175.591 18.8219 175.867 18.8979 176.115 19.0499C176.371 19.2019 176.575 19.4059 176.727 19.6619C176.879 19.9099 176.955 20.1859 176.955 20.4899V21.1499H175.359V20.5619C175.359 20.5219 175.343 20.4899 175.311 20.4659C175.287 20.4339 175.255 20.4179 175.215 20.4179H170.043C170.003 20.4179 169.967 20.4339 169.935 20.4659C169.911 20.4899 169.899 20.5219 169.899 20.5619V22.2059C169.899 22.2459 169.911 22.2779 169.935 22.3019C169.967 22.3259 170.003 22.3379 170.043 22.3379H175.287C175.591 22.3379 175.867 22.4139 176.115 22.5659C176.371 22.7179 176.575 22.9219 176.727 23.1779C176.879 23.4259 176.955 23.7059 176.955 24.0179V25.7939C176.955 26.0979 176.879 26.3779 176.727 26.6339C176.575 26.8819 176.371 27.0819 176.115 27.2339C175.867 27.3859 175.591 27.4619 175.287 27.4619H169.983ZM181.097 27.4619C180.793 27.4619 180.513 27.3859 180.257 27.2339C180.009 27.0819 179.809 26.8819 179.657 26.6339C179.505 26.3779 179.429 26.0979 179.429 25.7939V25.1339H181.013V25.7219C181.013 25.7619 181.025 25.7979 181.049 25.8299C181.081 25.8539 181.117 25.8659 181.157 25.8659H186.329C186.369 25.8659 186.401 25.8539 186.425 25.8299C186.457 25.7979 186.473 25.7619 186.473 25.7219V24.0779C186.473 24.0379 186.457 24.0059 186.425 23.9819C186.401 23.9579 186.369 23.9459 186.329 23.9459H181.097C180.793 23.9459 180.513 23.8699 180.257 23.7179C180.009 23.5659 179.809 23.3659 179.657 23.1179C179.505 22.8619 179.429 22.5779 179.429 22.2659V20.4899C179.429 20.1859 179.505 19.9099 179.657 19.6619C179.809 19.4059 180.009 19.2019 180.257 19.0499C180.513 18.8979 180.793 18.8219 181.097 18.8219H186.401C186.705 18.8219 186.981 18.8979 187.229 19.0499C187.485 19.2019 187.689 19.4059 187.841 19.6619C187.993 19.9099 188.069 20.1859 188.069 20.4899V21.1499H186.473V20.5619C186.473 20.5219 186.457 20.4899 186.425 20.4659C186.401 20.4339 186.369 20.4179 186.329 20.4179H181.157C181.117 20.4179 181.081 20.4339 181.049 20.4659C181.025 20.4899 181.013 20.5219 181.013 20.5619V22.2059C181.013 22.2459 181.025 22.2779 181.049 22.3019C181.081 22.3259 181.117 22.3379 181.157 22.3379H186.401C186.705 22.3379 186.981 22.4139 187.229 22.5659C187.485 22.7179 187.689 22.9219 187.841 23.1779C187.993 23.4259 188.069 23.7059 188.069 24.0179V25.7939C188.069 26.0979 187.993 26.3779 187.841 26.6339C187.689 26.8819 187.485 27.0819 187.229 27.2339C186.981 27.3859 186.705 27.4619 186.401 27.4619H181.097Z" fill="#161513"/>
<defs>
<linearGradient id="paint0_linear_32_1237" x1="137.5" y1="0" x2="137.5" y2="47" gradientUnits="userSpaceOnUse">
<stop stop-color="#3877FF"/>
<stop offset="1" stop-color="#1CFFAD"/>
</linearGradient>
</defs>
</svg>
