<svg width="39" height="32" viewBox="0 0 39 32" fill="none" xmlns="http://www.w3.org/2000/svg">
<g id="new-logo 1" clip-path="url(#clip0_31_89)">
<g id="Group">
<g id="Group_2">
<path id="Vector" d="M23.0219 29.0307L17.8182 31.8948L0.499758 22.3631L5.70363 19.4989L23.0219 29.0307Z" fill="white"/>
</g>
<g id="Group_3">
<path id="Vector_2" d="M10.9074 10.8849L5.70361 13.7491L23.022 23.2808V29.0306L28.2258 26.1665V20.4167L10.9074 10.8849Z" fill="#4426FF"/>
</g>
<g id="Group_4">
<path id="Vector_3" d="M38.3405 7.33639C38.3344 6.34636 37.5209 5.43768 36.0902 4.65176C34.5045 3.77997 32.1251 3.21048 29.4634 3.80755C29.7012 2.69174 28.6329 1.69706 27.6413 1.15225C24.7661 -0.428784 20.9884 -0.442515 17.5053 1.48377C15.3097 2.87908 10.9077 5.13525 10.9077 5.13525L28.2261 14.6671L28.2384 14.6594L28.2261 14.6655V26.1666L33.4299 23.3024V23.2994L38.3405 20.5872V7.33639ZM28.5838 6.83602C29.7136 6.21127 30.9815 6.22046 31.7997 6.6702C32.5933 7.1061 32.6394 7.81836 31.5095 8.44452L29.4111 9.59267L26.4884 7.98406L28.5838 6.83602ZM24.1858 3.52827C24.8552 3.89668 24.915 4.43696 23.9218 4.98642L22.4866 5.77991L20.1088 4.4707L21.5425 3.6771C22.5342 3.12915 23.5166 3.15987 24.1858 3.52827Z" fill="white"/>
</g>
</g>
</g>
<defs>
<clipPath id="clip0_31_89">
<rect width="37.9345" height="32" fill="white" transform="translate(0.5)"/>
</clipPath>
</defs>
</svg>
