<svg width="33" height="32" viewBox="0 0 33 32" fill="none" xmlns="http://www.w3.org/2000/svg">
<rect x="0.5" width="32" height="32" rx="4" fill="white"/>
<path fill-rule="evenodd" clip-rule="evenodd" d="M20.0141 20.4642C19.839 19.1146 19.6609 17.7416 20.5416 17.2431C20.5812 17.2206 20.6202 17.2002 20.6572 17.1808C20.946 17.0293 21.1048 16.9461 20.3957 16.5267C19.6304 16.1417 19.5536 13.766 19.1713 11.7914C19.1433 11.6465 19.1156 11.5038 19.0883 11.3641C18.986 10.841 19.2314 10.1479 19.7467 10.284C20.1054 10.5508 20.3134 11.4781 20.5519 12.5419C20.9014 14.1001 21.3165 15.9513 22.3674 16.4483C23.3397 16.9891 23.1219 17.0965 22.7258 17.2918C22.6752 17.3168 22.6217 17.3432 22.5674 17.3721C21.3598 18.0149 21.604 19.7854 21.8441 21.5257C22.064 23.1199 22.2804 24.6887 21.3741 25.3422C18.9149 27.1917 14.0532 27.1937 11.5939 25.3422C10.6861 24.6903 10.9026 23.1199 11.1226 21.5243C11.3625 19.784 11.6065 18.0136 10.4006 17.3721C10.363 17.3521 10.3247 17.3328 10.287 17.3139C9.92237 17.1309 9.61901 16.9786 10.6007 16.4483C11.6497 15.9551 12.0643 14.1028 12.4134 12.5434C12.6521 11.4776 12.86 10.5486 13.219 10.284C13.7975 10.1232 14.0514 10.9424 13.928 11.5301C13.9103 11.6146 13.8924 11.7002 13.8743 11.7865C13.4608 13.7631 13.3459 16.1442 12.581 16.5267C11.8651 16.9379 12.0863 17.056 12.3522 17.1979C12.3797 17.2126 12.4077 17.2275 12.4351 17.2431C13.3145 17.7405 13.1365 19.1135 12.9616 20.4631C12.8012 21.7005 12.2601 23.2523 12.9221 23.7578C14.7156 25.1936 18.2611 25.1921 20.0546 23.7578C20.7155 23.251 20.1745 21.7005 20.0141 20.4642Z" fill="#FF842C"/>
<mask id="path-3-inside-1_32_144" fill="white">
<path d="M14.646 14.9853C14.754 14.9563 14.7714 14.6708 14.685 14.3475C14.5985 14.0243 14.441 13.7857 14.3331 13.8147C14.2252 13.8437 14.2078 14.1292 14.2942 14.4525C14.3806 14.7757 14.5381 15.0143 14.646 14.9853Z"/>
</mask>
<path d="M14.646 14.9853C14.754 14.9563 14.7714 14.6708 14.685 14.3475C14.5985 14.0243 14.441 13.7857 14.3331 13.8147C14.2252 13.8437 14.2078 14.1292 14.2942 14.4525C14.3806 14.7757 14.5381 15.0143 14.646 14.9853Z" fill="#FF842C"/>
<path d="M14.2701 14.459C14.3047 14.5883 14.3132 14.6931 14.3097 14.751C14.3078 14.7823 14.3038 14.7763 14.3154 14.7492C14.3247 14.7276 14.3808 14.6117 14.5351 14.5703L14.757 15.4003C14.9653 15.3444 15.064 15.1819 15.1042 15.0886C15.1468 14.9897 15.1619 14.8866 15.1671 14.8026C15.1776 14.6297 15.1517 14.43 15.0999 14.2361L14.2701 14.459ZM14.5351 14.5703C14.6894 14.5289 14.7958 14.6011 14.8146 14.6151C14.8382 14.6328 14.8377 14.64 14.8204 14.6139C14.7885 14.5655 14.7436 14.4704 14.7091 14.3411L13.8793 14.5639C13.9311 14.7578 14.0083 14.9437 14.1037 15.0881C14.1501 15.1584 14.2146 15.2401 14.3008 15.3044C14.3822 15.365 14.5487 15.4563 14.757 15.4003L14.5351 14.5703ZM14.7091 14.3411C14.6745 14.2117 14.6659 14.107 14.6694 14.049C14.6713 14.0177 14.6754 14.0238 14.6637 14.0509C14.6544 14.0724 14.5983 14.1883 14.444 14.2297L14.2221 13.3997C14.0139 13.4556 13.9151 13.6181 13.8749 13.7114C13.8324 13.8103 13.8172 13.9134 13.8121 13.9975C13.8015 14.1704 13.8275 14.37 13.8793 14.5639L14.7091 14.3411ZM14.444 14.2297C14.2897 14.2712 14.1833 14.1989 14.1646 14.1849C14.1409 14.1673 14.1414 14.16 14.1587 14.1862C14.1907 14.2346 14.2355 14.3296 14.2701 14.459L15.0999 14.2361C15.048 14.0422 14.9709 13.8563 14.8755 13.7119C14.8291 13.6417 14.7645 13.56 14.6783 13.4957C14.597 13.435 14.4304 13.3438 14.2221 13.3997L14.444 14.2297Z" fill="#FF842C" mask="url(#path-3-inside-1_32_144)"/>
<mask id="path-5-inside-2_32_144" fill="white">
<path d="M18.7475 14.4541C18.8339 14.1308 18.8165 13.8453 18.7085 13.8163C18.6006 13.7873 18.4431 14.0259 18.3567 14.3491C18.2703 14.6724 18.2877 14.9579 18.3956 14.9869C18.5035 15.0159 18.661 14.7773 18.7475 14.4541Z"/>
</mask>
<path d="M18.7475 14.4541C18.8339 14.1308 18.8165 13.8453 18.7085 13.8163C18.6006 13.7873 18.4431 14.0259 18.3567 14.3491C18.2703 14.6724 18.2877 14.9579 18.3956 14.9869C18.5035 15.0159 18.661 14.7773 18.7475 14.4541Z" fill="#FF842C"/>
<path d="M18.5976 14.2313C18.4433 14.1899 18.3872 14.074 18.3779 14.0525C18.3663 14.0254 18.3703 14.0193 18.3722 14.0506C18.3757 14.1086 18.3672 14.2133 18.3326 14.3427L19.1624 14.5655C19.2142 14.3716 19.2401 14.172 19.2296 13.9991C19.2244 13.915 19.2093 13.8119 19.1667 13.713C19.1265 13.6197 19.0278 13.4572 18.8195 13.4013L18.5976 14.2313ZM18.3326 14.3427C18.298 14.472 18.2532 14.5671 18.2212 14.6155C18.2039 14.6416 18.2034 14.6344 18.2271 14.6167C18.2458 14.6027 18.3522 14.5305 18.5065 14.5719L18.2846 15.4019C18.4929 15.4579 18.6595 15.3666 18.7408 15.306C18.827 15.2417 18.8916 15.16 18.938 15.0897C19.0334 14.9453 19.1105 14.7594 19.1624 14.5655L18.3326 14.3427ZM18.5065 14.5719C18.6609 14.6133 18.7169 14.7293 18.7262 14.7508C18.7379 14.7779 18.7338 14.7839 18.7319 14.7526C18.7284 14.6947 18.737 14.5899 18.7716 14.4606L17.9418 14.2377C17.89 14.4316 17.864 14.6313 17.8746 14.8042C17.8797 14.8882 17.8949 14.9913 17.9374 15.0902C17.9776 15.1835 18.0764 15.346 18.2846 15.4019L18.5065 14.5719ZM18.7716 14.4606C18.8061 14.3312 18.851 14.2362 18.8829 14.1878C18.9002 14.1616 18.9007 14.1689 18.8771 14.1865C18.8583 14.2005 18.7519 14.2728 18.5976 14.2313L18.8195 13.4013C18.6112 13.3454 18.4447 13.4366 18.3633 13.4973C18.2771 13.5616 18.2126 13.6433 18.1662 13.7135C18.0708 13.8579 17.9936 14.0438 17.9418 14.2377L18.7716 14.4606Z" fill="#FF842C" mask="url(#path-5-inside-2_32_144)"/>
<path d="M22.3705 6.85778C22.2286 7.66914 21.8268 8.27464 21.4734 8.21409C21.123 8.15052 20.9538 7.44208 21.0988 6.63071C21.2408 5.81935 21.6426 5.21082 21.996 5.2744C22.3464 5.33798 22.5155 6.04641 22.3705 6.85778Z" fill="#FF842C"/>
<path d="M11.4205 8.21409C11.0701 8.27464 10.6683 7.66914 10.5233 6.85778C10.3784 6.04641 10.5475 5.33798 10.9009 5.2744C11.2513 5.21082 11.6531 5.81935 11.7981 6.63071C11.9431 7.44208 11.7739 8.15052 11.4205 8.21409Z" fill="#FF842C"/>
</svg>
