<svg width="42" height="43" viewBox="0 0 42 43" fill="none" xmlns="http://www.w3.org/2000/svg">
<path id="javascript" d="M37.5 0.5H4.5C2.01562 0.5 0 2.51562 0 5V38C0 40.4844 2.01562 42.5 4.5 42.5H37.5C39.9844 42.5 42 40.4844 42 38V5C42 2.51562 39.9844 0.5 37.5 0.5ZM22.8562 33.2562C22.8562 37.3438 20.4562 39.2094 16.9594 39.2094C13.8 39.2094 11.9719 37.5781 11.0344 35.6L14.25 33.6594C14.8687 34.7562 15.4312 35.6844 16.7906 35.6844C18.0844 35.6844 18.9094 35.1781 18.9094 33.2V19.7844H22.8562V33.2562ZM32.1937 39.2094C28.5281 39.2094 26.1562 37.4656 25.0031 35.1781L28.2188 33.3219C29.0625 34.7 30.1687 35.7219 32.1094 35.7219C33.7406 35.7219 34.7906 34.9062 34.7906 33.7719C34.7906 32.4219 33.7219 31.9437 31.9125 31.1469L30.9281 30.725C28.0781 29.5156 26.1937 27.9875 26.1937 24.7719C26.1937 21.8094 28.4531 19.5594 31.9687 19.5594C34.4812 19.5594 36.2812 20.4312 37.575 22.7187L34.5 24.6875C33.825 23.4781 33.0938 23 31.9594 23C30.8062 23 30.075 23.7312 30.075 24.6875C30.075 25.8687 30.8062 26.3469 32.5031 27.0875L33.4875 27.5094C36.8438 28.9437 38.7281 30.4156 38.7281 33.7156C38.7281 37.2594 35.9344 39.2094 32.1937 39.2094Z" fill="url(#paint0_linear_12_787)"/>
<defs>
<linearGradient id="paint0_linear_12_787" x1="32.9296" y1="42.5" x2="-0.985918" y2="8.58451" gradientUnits="userSpaceOnUse">
<stop stop-color="#3877FF"/>
<stop offset="0.490484" stop-color="#1FAEA8"/>
<stop offset="1" stop-color="#1CFFAD"/>
</linearGradient>
</defs>
</svg>
