<svg width="48" height="43" viewBox="0 0 48 43" fill="none" xmlns="http://www.w3.org/2000/svg">
<path id="reactjs" d="M24 17.3729C26.2516 17.3729 28.0879 19.2072 28.0879 21.5C28.0879 23.6836 26.2516 25.5397 24 25.5397C21.7484 25.5397 19.9121 23.6836 19.9121 21.5C19.9121 19.2072 21.7484 17.3729 24 17.3729ZM13.8786 38.969C15.2558 39.7988 18.2726 38.5323 21.7484 35.2568C20.6116 33.9685 19.4967 32.571 18.4474 31.108C16.6858 30.9396 14.9345 30.6771 13.2009 30.3218C12.086 34.9948 12.5014 38.2047 13.8786 38.969ZM15.4307 26.435L14.7967 25.3213C14.5563 25.9546 14.3158 26.5878 14.1628 27.1993C14.753 27.3303 15.4088 27.4395 16.0865 27.5486L15.4307 26.435ZM29.7274 24.7754L31.4981 21.5L29.7274 18.2246C29.0716 17.0672 28.3721 16.0409 27.7381 15.0146C26.5577 14.9491 25.3116 14.9491 24 14.9491C22.6884 14.9491 21.4423 14.9491 20.2619 15.0146C19.6279 16.0409 18.9284 17.0672 18.2726 18.2246L16.5019 21.5L18.2726 24.7754C18.9284 25.9328 19.6279 26.9591 20.2619 27.9854C21.4423 28.0509 22.6884 28.0509 24 28.0509C25.3116 28.0509 26.5577 28.0509 27.7381 27.9854C28.3721 26.9591 29.0716 25.9328 29.7274 24.7754ZM24 10.1015C23.5847 10.5819 23.1474 11.0841 22.7102 11.6737H25.2898C24.8526 11.0841 24.4153 10.5819 24 10.1015ZM24 32.8985C24.4153 32.4181 24.8526 31.9159 25.2898 31.3263H22.7102C23.1474 31.9159 23.5847 32.4181 24 32.8985ZM34.0995 4.03099C32.7442 3.20122 29.7274 4.46772 26.2516 7.74316C27.3884 9.0315 28.5033 10.429 29.5526 11.892C31.3451 12.0667 33.1158 12.3288 34.7991 12.6782C35.914 8.00519 35.4986 4.79526 34.0995 4.03099ZM32.5693 16.565L33.2033 17.6787C33.4437 17.0454 33.6842 16.4122 33.8372 15.8007C33.247 15.6697 32.5912 15.5605 31.9135 15.4514L32.5693 16.565ZM35.7391 1.17044C38.9526 3.00469 39.3023 7.8305 37.947 13.4643C43.4995 15.102 47.5 17.8097 47.5 21.5C47.5 25.1903 43.4995 27.898 37.947 29.5357C39.3023 35.1695 38.9526 39.9953 35.7391 41.8296C32.5474 43.6638 28.1972 41.5675 24 37.5715C19.8028 41.5675 15.4526 43.6638 12.2391 41.8296C9.04744 39.9953 8.69767 35.1695 10.053 29.5357C4.50046 27.898 0.5 25.1903 0.5 21.5C0.5 17.8097 4.50046 15.102 10.053 13.4643C8.69767 7.8305 9.04744 3.00469 12.2391 1.17044C15.4526 -0.6638 19.8028 1.43248 24 5.42851C28.1972 1.43248 32.5474 -0.6638 35.7391 1.17044ZM35.1051 21.5C35.8484 23.1377 36.5042 24.7754 37.0507 26.435C41.6414 25.0593 44.2209 23.094 44.2209 21.5C44.2209 19.906 41.6414 17.9407 37.0507 16.565C36.5042 18.2246 35.8484 19.8623 35.1051 21.5ZM12.8949 21.5C12.1516 19.8623 11.4958 18.2246 10.9493 16.565C6.35861 17.9407 3.77907 19.906 3.77907 21.5C3.77907 23.094 6.35861 25.0593 10.9493 26.435C11.4958 24.7754 12.1516 23.1377 12.8949 21.5ZM32.5693 26.435L31.9135 27.5486C32.5912 27.4395 33.247 27.3303 33.8372 27.1993C33.6842 26.5878 33.4437 25.9546 33.2033 25.3213L32.5693 26.435ZM26.2516 35.2568C29.7274 38.5323 32.7442 39.7988 34.0995 38.969C35.4986 38.2047 35.914 34.9948 34.7991 30.3218C33.1158 30.6712 31.3451 30.9333 29.5526 31.108C28.5033 32.571 27.3884 33.9685 26.2516 35.2568ZM15.4307 16.565L16.0865 15.4514C15.4088 15.5605 14.753 15.6697 14.1628 15.8007C14.3158 16.4122 14.5563 17.0454 14.7967 17.6787L15.4307 16.565ZM21.7484 7.74316C18.2726 4.46772 15.2558 3.20122 13.8786 4.03099C12.5014 4.79526 12.086 8.00519 13.2009 12.6782C14.9345 12.3229 16.6858 12.0604 18.4474 11.892C19.4967 10.429 20.6116 9.0315 21.7484 7.74316Z" fill="url(#paint0_linear_12_792)"/>
<defs>
<linearGradient id="paint0_linear_12_792" x1="37.3498" y1="42.5" x2="3.64768" y2="4.78577" gradientUnits="userSpaceOnUse">
<stop stop-color="#3877FF"/>
<stop offset="0.490484" stop-color="#1FAEA8"/>
<stop offset="1" stop-color="#1CFFAD"/>
</linearGradient>
</defs>
</svg>
