<svg width="64" height="38" viewBox="0 0 64 38" fill="none" xmlns="http://www.w3.org/2000/svg">
<path id="Vector" d="M32 0.100006C23.6 0.100006 18.35 4.30001 16.25 12.7C19.4 8.50001 23.075 6.92501 27.275 7.97501C29.6716 8.57351 31.3831 10.3113 33.281 12.238C36.3706 15.3723 39.9432 19 47.75 19C56.15 19 61.4 14.8 63.5 6.40001C60.35 10.6 56.675 12.175 52.475 11.125C50.0784 10.5265 48.3669 8.78876 46.469 6.86201C43.382 3.72776 39.8094 0.100006 32 0.100006ZM16.25 19C7.85 19 2.6 23.2 0.5 31.6C3.65 27.4 7.325 25.825 11.525 26.875C13.9216 27.4735 15.6331 29.2113 17.531 31.138C20.6206 34.2723 24.1933 37.9 32 37.9C40.4 37.9 45.65 33.7 47.75 25.3C44.6 29.5 40.925 31.075 36.725 30.025C34.3284 29.4265 32.6169 27.6888 30.719 25.762C27.632 22.6278 24.0594 19 16.25 19Z" fill="url(#paint0_linear_12_791)"/>
<defs>
<linearGradient id="paint0_linear_12_791" x1="49.8944" y1="37.9" x2="22.9615" y2="-6.98815" gradientUnits="userSpaceOnUse">
<stop stop-color="#3877FF"/>
<stop offset="0.490484" stop-color="#1FAEA8"/>
<stop offset="1" stop-color="#1CFFAD"/>
</linearGradient>
</defs>
</svg>
