<svg width="275" height="47" viewBox="0 0 275 47" fill="none" xmlns="http://www.w3.org/2000/svg">
<path fill-rule="evenodd" clip-rule="evenodd" d="M0 0H249.792H254.564H275V34.9844L275 34.9845L275 34.9846V35H274.974L254.6 47L254.564 46.9792H0V0Z" fill="white"/>
<path d="M91.9515 27.4619V20.4899C91.9515 20.1859 92.0275 19.9099 92.1795 19.6619C92.3315 19.4059 92.5315 19.2019 92.7795 19.0499C93.0355 18.8979 93.3155 18.8219 93.6195 18.8219H98.9115C99.2155 18.8219 99.4955 18.8979 99.7515 19.0499C100.007 19.2019 100.211 19.4059 100.363 19.6619C100.515 19.9099 100.591 20.1859 100.591 20.4899V27.4619H98.9955V24.5579H93.5355V27.4619H91.9515ZM93.5355 22.9739H98.9955V20.5619C98.9955 20.5219 98.9795 20.4899 98.9475 20.4659C98.9155 20.4339 98.8795 20.4179 98.8395 20.4179H93.6795C93.6395 20.4179 93.6035 20.4339 93.5715 20.4659C93.5475 20.4899 93.5355 20.5219 93.5355 20.5619V22.9739ZM104.419 27.4619C104.107 27.4619 103.827 27.3859 103.579 27.2339C103.331 27.0819 103.131 26.8819 102.979 26.6339C102.835 26.3859 102.763 26.1099 102.763 25.8059V22.1579C102.763 21.8539 102.835 21.5779 102.979 21.3299C103.131 21.0819 103.331 20.8819 103.579 20.7299C103.827 20.5779 104.107 20.5019 104.419 20.5019H108.271V18.2219H109.843V27.4619H104.419ZM104.491 25.8899H108.127C108.167 25.8899 108.199 25.8779 108.223 25.8539C108.255 25.8219 108.271 25.7859 108.271 25.7459V22.2179C108.271 22.1779 108.255 22.1459 108.223 22.1219C108.199 22.0899 108.167 22.0739 108.127 22.0739H104.491C104.451 22.0739 104.415 22.0899 104.383 22.1219C104.359 22.1459 104.347 22.1779 104.347 22.2179V25.7459C104.347 25.7859 104.359 25.8219 104.383 25.8539C104.415 25.8779 104.451 25.8899 104.491 25.8899ZM113.971 27.4619C113.667 27.4619 113.387 27.3859 113.131 27.2339C112.883 27.0819 112.683 26.8819 112.531 26.6339C112.387 26.3859 112.315 26.1099 112.315 25.8059V23.1899H117.811V22.2179C117.811 22.1779 117.795 22.1459 117.763 22.1219C117.739 22.0899 117.707 22.0739 117.667 22.0739H112.315V20.5019H117.727C118.031 20.5019 118.307 20.5779 118.555 20.7299C118.811 20.8819 119.011 21.0819 119.155 21.3299C119.307 21.5779 119.383 21.8539 119.383 22.1579V27.4619H113.971ZM114.031 25.8899H117.811V24.6059H113.887V25.7459C113.887 25.7859 113.899 25.8219 113.923 25.8539C113.955 25.8779 113.991 25.8899 114.031 25.8899ZM121.871 30.2219V20.5019H127.283C127.587 20.5019 127.863 20.5779 128.111 20.7299C128.367 20.8819 128.567 21.0819 128.711 21.3299C128.863 21.5779 128.939 21.8539 128.939 22.1579V25.8059C128.939 26.1099 128.863 26.3859 128.711 26.6339C128.567 26.8819 128.367 27.0819 128.111 27.2339C127.863 27.3859 127.587 27.4619 127.283 27.4619H123.443V30.2219H121.871ZM123.587 25.8899H127.223C127.263 25.8899 127.295 25.8779 127.319 25.8539C127.351 25.8219 127.367 25.7859 127.367 25.7459V22.2179C127.367 22.1779 127.351 22.1459 127.319 22.1219C127.295 22.0899 127.263 22.0739 127.223 22.0739H123.587C123.547 22.0739 123.511 22.0899 123.479 22.1219C123.455 22.1459 123.443 22.1779 123.443 22.2179V25.7459C123.443 25.7859 123.455 25.8219 123.479 25.8539C123.511 25.8779 123.547 25.8899 123.587 25.8899ZM132.683 27.4619C132.379 27.4619 132.103 27.3859 131.855 27.2339C131.607 27.0819 131.407 26.8819 131.255 26.6339C131.103 26.3859 131.027 26.1099 131.027 25.8059V18.3659H132.599V20.5019H135.311V22.0739H132.599V25.7459C132.599 25.7859 132.611 25.8219 132.635 25.8539C132.667 25.8779 132.703 25.8899 132.743 25.8899H135.311V27.4619H132.683ZM139.379 27.4619C139.075 27.4619 138.795 27.3859 138.539 27.2339C138.291 27.0819 138.091 26.8819 137.939 26.6339C137.795 26.3859 137.723 26.1099 137.723 25.8059V23.1899H143.219V22.2179C143.219 22.1779 143.203 22.1459 143.171 22.1219C143.147 22.0899 143.115 22.0739 143.075 22.0739H137.723V20.5019H143.135C143.439 20.5019 143.715 20.5779 143.963 20.7299C144.219 20.8819 144.419 21.0819 144.563 21.3299C144.715 21.5779 144.791 21.8539 144.791 22.1579V27.4619H139.379ZM139.439 25.8899H143.219V24.6059H139.295V25.7459C139.295 25.7859 139.307 25.8219 139.331 25.8539C139.363 25.8779 139.399 25.8899 139.439 25.8899ZM146.939 27.4619V18.2219H148.511V20.5019H152.351C152.655 20.5019 152.931 20.5779 153.179 20.7299C153.435 20.8819 153.635 21.0819 153.779 21.3299C153.931 21.5779 154.007 21.8539 154.007 22.1579V25.8059C154.007 26.1099 153.931 26.3859 153.779 26.6339C153.635 26.8819 153.435 27.0819 153.179 27.2339C152.931 27.3859 152.655 27.4619 152.351 27.4619H146.939ZM148.655 25.8899H152.291C152.331 25.8899 152.363 25.8779 152.387 25.8539C152.419 25.8219 152.435 25.7859 152.435 25.7459V22.2179C152.435 22.1779 152.419 22.1459 152.387 22.1219C152.363 22.0899 152.331 22.0739 152.291 22.0739H148.655C148.615 22.0739 148.579 22.0899 148.547 22.1219C148.523 22.1459 148.511 22.1779 148.511 22.2179V25.7459C148.511 25.7859 148.523 25.8219 148.547 25.8539C148.579 25.8779 148.615 25.8899 148.655 25.8899ZM156.119 27.4619V20.5019H157.691V27.4619H156.119ZM156.119 19.8059V18.2219H157.691V19.8059H156.119ZM161.882 27.4619C161.578 27.4619 161.302 27.3859 161.054 27.2339C160.806 27.0819 160.606 26.8819 160.454 26.6339C160.302 26.3859 160.226 26.1099 160.226 25.8059V18.2099H161.81V25.7459C161.81 25.7859 161.822 25.8219 161.846 25.8539C161.878 25.8779 161.914 25.8899 161.954 25.8899H163.286V27.4619H161.882ZM165.586 27.4619V20.5019H167.158V27.4619H165.586ZM165.586 19.8059V18.2219H167.158V19.8059H165.586ZM171.278 27.4619C170.974 27.4619 170.698 27.3859 170.45 27.2339C170.202 27.0819 170.002 26.8819 169.85 26.6339C169.698 26.3859 169.622 26.1099 169.622 25.8059V18.3659H171.194V20.5019H173.906V22.0739H171.194V25.7459C171.194 25.7859 171.206 25.8219 171.23 25.8539C171.262 25.8779 171.298 25.8899 171.338 25.8899H173.906V27.4619H171.278ZM177.198 30.0419V28.4579H181.386C181.426 28.4579 181.458 28.4419 181.482 28.4099C181.514 28.3859 181.53 28.3539 181.53 28.3139V27.4619H177.69C177.394 27.4619 177.118 27.3859 176.862 27.2339C176.614 27.0819 176.414 26.8819 176.262 26.6339C176.11 26.3859 176.034 26.1099 176.034 25.8059V20.5259H177.606V25.7459C177.606 25.7859 177.618 25.8219 177.642 25.8539C177.674 25.8779 177.71 25.8899 177.75 25.8899H181.386C181.426 25.8899 181.458 25.8779 181.482 25.8539C181.514 25.8219 181.53 25.7859 181.53 25.7459V20.5259H183.102V28.3859C183.102 28.6899 183.03 28.9659 182.886 29.2139C182.742 29.4699 182.542 29.6699 182.286 29.8139C182.038 29.9659 181.762 30.0419 181.458 30.0419H177.198Z" fill="#161513"/>
</svg>
