<svg width="275" height="47" viewBox="0 0 275 47" fill="none" xmlns="http://www.w3.org/2000/svg">
<path fill-rule="evenodd" clip-rule="evenodd" d="M0 0H249.792H254.564H275V34.9844L275 34.9845L275 34.9846V35H274.974L254.6 47L254.564 46.9792H0V0Z" fill="white"/>
<path d="M54.4552 27.4619C54.1512 27.4619 53.8712 27.3859 53.6152 27.2339C53.3672 27.0819 53.1672 26.8819 53.0152 26.6339C52.8632 26.3779 52.7872 26.0979 52.7872 25.7939V20.4899C52.7872 20.1859 52.8632 19.9099 53.0152 19.6619C53.1672 19.4059 53.3672 19.2019 53.6152 19.0499C53.8712 18.8979 54.1512 18.8219 54.4552 18.8219H61.4032V20.4179H54.7912C54.6632 20.4179 54.5592 20.4539 54.4792 20.5259C54.4072 20.5979 54.3712 20.7019 54.3712 20.8379V25.4459C54.3712 25.5739 54.4072 25.6779 54.4792 25.7579C54.5592 25.8299 54.6632 25.8659 54.7912 25.8659H61.4032V27.4619H54.4552ZM65.4504 27.4619C65.1464 27.4619 64.8704 27.3859 64.6224 27.2339C64.3744 27.0819 64.1744 26.8819 64.0224 26.6339C63.8704 26.3859 63.7944 26.1099 63.7944 25.8059V22.1579C63.7944 21.8539 63.8704 21.5779 64.0224 21.3299C64.1744 21.0819 64.3744 20.8819 64.6224 20.7299C64.8704 20.5779 65.1464 20.5019 65.4504 20.5019H69.2064C69.5104 20.5019 69.7864 20.5779 70.0344 20.7299C70.2904 20.8819 70.4904 21.0819 70.6344 21.3299C70.7864 21.5779 70.8624 21.8539 70.8624 22.1579V25.8059C70.8624 26.1099 70.7864 26.3859 70.6344 26.6339C70.4904 26.8819 70.2944 27.0819 70.0464 27.2339C69.7984 27.3859 69.5184 27.4619 69.2064 27.4619H65.4504ZM65.5104 25.8899H69.1464C69.1864 25.8899 69.2184 25.8779 69.2424 25.8539C69.2744 25.8219 69.2904 25.7859 69.2904 25.7459V22.2179C69.2904 22.1779 69.2744 22.1459 69.2424 22.1219C69.2184 22.0899 69.1864 22.0739 69.1464 22.0739H65.5104C65.4704 22.0739 65.4344 22.0899 65.4024 22.1219C65.3784 22.1459 65.3664 22.1779 65.3664 22.2179V25.7459C65.3664 25.7859 65.3784 25.8219 65.4024 25.8539C65.4344 25.8779 65.4704 25.8899 65.5104 25.8899ZM74.678 27.4619C74.374 27.4619 74.098 27.3859 73.85 27.2339C73.602 27.0819 73.402 26.8819 73.25 26.6339C73.098 26.3859 73.022 26.1099 73.022 25.8059V18.2099H74.606V25.7459C74.606 25.7859 74.618 25.8219 74.642 25.8539C74.674 25.8779 74.71 25.8899 74.75 25.8899H76.082V27.4619H74.678ZM79.8741 27.4619C79.5701 27.4619 79.2941 27.3859 79.0461 27.2339C78.7981 27.0819 78.5981 26.8819 78.4461 26.6339C78.2941 26.3859 78.2181 26.1099 78.2181 25.8059V18.2099H79.8021V25.7459C79.8021 25.7859 79.8141 25.8219 79.8381 25.8539C79.8701 25.8779 79.9061 25.8899 79.9461 25.8899H81.2781V27.4619H79.8741ZM85.0468 27.4619C84.7428 27.4619 84.4628 27.3859 84.2068 27.2339C83.9588 27.0819 83.7588 26.8819 83.6068 26.6339C83.4628 26.3859 83.3908 26.1099 83.3908 25.8059V23.1899H88.8868V22.2179C88.8868 22.1779 88.8708 22.1459 88.8388 22.1219C88.8148 22.0899 88.7828 22.0739 88.7428 22.0739H83.3908V20.5019H88.8028C89.1068 20.5019 89.3828 20.5779 89.6308 20.7299C89.8868 20.8819 90.0868 21.0819 90.2308 21.3299C90.3828 21.5779 90.4588 21.8539 90.4588 22.1579V27.4619H85.0468ZM85.1068 25.8899H88.8868V24.6059H84.9628V25.7459C84.9628 25.7859 84.9748 25.8219 84.9988 25.8539C85.0308 25.8779 85.0668 25.8899 85.1068 25.8899ZM92.607 27.4619V18.2219H94.179V20.5019H98.019C98.323 20.5019 98.599 20.5779 98.847 20.7299C99.103 20.8819 99.303 21.0819 99.447 21.3299C99.599 21.5779 99.675 21.8539 99.675 22.1579V25.8059C99.675 26.1099 99.599 26.3859 99.447 26.6339C99.303 26.8819 99.103 27.0819 98.847 27.2339C98.599 27.3859 98.323 27.4619 98.019 27.4619H92.607ZM94.323 25.8899H97.959C97.999 25.8899 98.031 25.8779 98.055 25.8539C98.087 25.8219 98.103 25.7859 98.103 25.7459V22.2179C98.103 22.1779 98.087 22.1459 98.055 22.1219C98.031 22.0899 97.999 22.0739 97.959 22.0739H94.323C94.283 22.0739 94.247 22.0899 94.215 22.1219C94.191 22.1459 94.179 22.1779 94.179 22.2179V25.7459C94.179 25.7859 94.191 25.8219 94.215 25.8539C94.247 25.8779 94.283 25.8899 94.323 25.8899ZM103.431 27.4619C103.127 27.4619 102.851 27.3859 102.603 27.2339C102.355 27.0819 102.155 26.8819 102.003 26.6339C101.851 26.3859 101.775 26.1099 101.775 25.8059V22.1579C101.775 21.8539 101.851 21.5779 102.003 21.3299C102.155 21.0819 102.355 20.8819 102.603 20.7299C102.851 20.5779 103.127 20.5019 103.431 20.5019H107.187C107.491 20.5019 107.767 20.5779 108.015 20.7299C108.271 20.8819 108.471 21.0819 108.615 21.3299C108.767 21.5779 108.843 21.8539 108.843 22.1579V25.8059C108.843 26.1099 108.767 26.3859 108.615 26.6339C108.471 26.8819 108.275 27.0819 108.027 27.2339C107.779 27.3859 107.499 27.4619 107.187 27.4619H103.431ZM103.491 25.8899H107.127C107.167 25.8899 107.199 25.8779 107.223 25.8539C107.255 25.8219 107.271 25.7859 107.271 25.7459V22.2179C107.271 22.1779 107.255 22.1459 107.223 22.1219C107.199 22.0899 107.167 22.0739 107.127 22.0739H103.491C103.451 22.0739 103.415 22.0899 103.383 22.1219C103.359 22.1459 103.347 22.1779 103.347 22.2179V25.7459C103.347 25.7859 103.359 25.8219 103.383 25.8539C103.415 25.8779 103.451 25.8899 103.491 25.8899ZM111.038 27.4619V22.1579C111.038 21.8539 111.114 21.5779 111.266 21.3299C111.418 21.0819 111.618 20.8819 111.866 20.7299C112.122 20.5779 112.398 20.5019 112.694 20.5019H116.558V22.0739H112.754C112.714 22.0739 112.678 22.0899 112.646 22.1219C112.622 22.1459 112.61 22.1779 112.61 22.2179V27.4619H111.038ZM120.327 27.4619C120.023 27.4619 119.743 27.3859 119.487 27.2339C119.239 27.0819 119.039 26.8819 118.887 26.6339C118.743 26.3859 118.671 26.1099 118.671 25.8059V23.1899H124.167V22.2179C124.167 22.1779 124.151 22.1459 124.119 22.1219C124.095 22.0899 124.063 22.0739 124.023 22.0739H118.671V20.5019H124.083C124.387 20.5019 124.663 20.5779 124.911 20.7299C125.167 20.8819 125.367 21.0819 125.511 21.3299C125.663 21.5779 125.739 21.8539 125.739 22.1579V27.4619H120.327ZM120.387 25.8899H124.167V24.6059H120.243V25.7459C120.243 25.7859 120.255 25.8219 120.279 25.8539C120.311 25.8779 120.347 25.8899 120.387 25.8899ZM129.871 27.4619C129.567 27.4619 129.291 27.3859 129.043 27.2339C128.795 27.0819 128.595 26.8819 128.443 26.6339C128.291 26.3859 128.215 26.1099 128.215 25.8059V18.3659H129.787V20.5019H132.499V22.0739H129.787V25.7459C129.787 25.7859 129.799 25.8219 129.823 25.8539C129.855 25.8779 129.891 25.8899 129.931 25.8899H132.499V27.4619H129.871ZM134.677 27.4619V20.5019H136.249V27.4619H134.677ZM134.677 19.8059V18.2219H136.249V19.8059H134.677ZM142.063 27.4619L138.235 20.5019H140.047L142.795 25.5539L145.531 20.5019H147.343L143.503 27.4619H142.063ZM150.568 27.4619C150.264 27.4619 149.988 27.3859 149.74 27.2339C149.492 27.0819 149.292 26.8819 149.14 26.6339C148.988 26.3859 148.912 26.1099 148.912 25.8059V22.1579C148.912 21.8539 148.988 21.5779 149.14 21.3299C149.292 21.0819 149.492 20.8819 149.74 20.7299C149.988 20.5779 150.264 20.5019 150.568 20.5019H154.324C154.628 20.5019 154.904 20.5779 155.152 20.7299C155.408 20.8819 155.608 21.0819 155.752 21.3299C155.904 21.5779 155.98 21.8539 155.98 22.1579V24.7739H150.484V25.7459C150.484 25.7859 150.496 25.8219 150.52 25.8539C150.552 25.8779 150.588 25.8899 150.628 25.8899H155.98V27.4619H150.568ZM150.484 23.3579H154.408V22.2179C154.408 22.1779 154.392 22.1459 154.36 22.1219C154.336 22.0899 154.304 22.0739 154.264 22.0739H150.628C150.588 22.0739 150.552 22.0899 150.52 22.1219C150.496 22.1459 150.484 22.1779 150.484 22.2179V23.3579ZM163.349 27.4619V18.8219H165.089L168.221 22.5539L171.341 18.8219H173.093V27.4619H171.497V21.1259L168.221 25.0259L164.933 21.1379V27.4619H163.349ZM175.634 27.4619V20.5019H177.206V27.4619H175.634ZM175.634 19.8059V18.2219H177.206V19.8059H175.634ZM179.799 27.4619V20.5019H185.211C185.515 20.5019 185.791 20.5779 186.039 20.7299C186.295 20.8819 186.495 21.0819 186.639 21.3299C186.791 21.5779 186.867 21.8539 186.867 22.1579V27.4619H185.295V22.2179C185.295 22.1779 185.279 22.1459 185.247 22.1219C185.223 22.0899 185.191 22.0739 185.151 22.0739H181.515C181.475 22.0739 181.439 22.0899 181.407 22.1219C181.383 22.1459 181.371 22.1779 181.371 22.2179V27.4619H179.799ZM190.639 27.4619C190.327 27.4619 190.047 27.3859 189.799 27.2339C189.551 27.0819 189.351 26.8819 189.199 26.6339C189.055 26.3859 188.983 26.1099 188.983 25.8059V22.1579C188.983 21.8539 189.055 21.5779 189.199 21.3299C189.351 21.0819 189.551 20.8819 189.799 20.7299C190.047 20.5779 190.327 20.5019 190.639 20.5019H194.491V18.2219H196.063V27.4619H190.639ZM190.711 25.8899H194.347C194.387 25.8899 194.419 25.8779 194.443 25.8539C194.475 25.8219 194.491 25.7859 194.491 25.7459V22.2179C194.491 22.1779 194.475 22.1459 194.443 22.1219C194.419 22.0899 194.387 22.0739 194.347 22.0739H190.711C190.671 22.0739 190.635 22.0899 190.603 22.1219C190.579 22.1459 190.567 22.1779 190.567 22.2179V25.7459C190.567 25.7859 190.579 25.8219 190.603 25.8539C190.635 25.8779 190.671 25.8899 190.711 25.8899ZM200.143 27.4619C199.839 27.4619 199.563 27.3859 199.315 27.2339C199.067 27.0819 198.867 26.8819 198.715 26.6339C198.563 26.3859 198.487 26.1099 198.487 25.8059V25.5419H200.059V25.7459C200.059 25.7859 200.071 25.8219 200.095 25.8539C200.127 25.8779 200.163 25.8899 200.203 25.8899H203.839C203.879 25.8899 203.911 25.8779 203.935 25.8539C203.967 25.8219 203.983 25.7859 203.983 25.7459V24.9179C203.983 24.8779 203.967 24.8459 203.935 24.8219C203.911 24.7899 203.879 24.7739 203.839 24.7739H200.143C199.839 24.7739 199.563 24.6979 199.315 24.5459C199.067 24.3939 198.867 24.1939 198.715 23.9459C198.563 23.6979 198.487 23.4219 198.487 23.1179V22.1579C198.487 21.8539 198.563 21.5779 198.715 21.3299C198.867 21.0819 199.067 20.8819 199.315 20.7299C199.563 20.5779 199.839 20.5019 200.143 20.5019H203.899C204.211 20.5019 204.491 20.5779 204.739 20.7299C204.987 20.8819 205.187 21.0819 205.339 21.3299C205.491 21.5779 205.567 21.8539 205.567 22.1579V22.4219H203.983V22.2179C203.983 22.1779 203.967 22.1459 203.935 22.1219C203.911 22.0899 203.879 22.0739 203.839 22.0739H200.203C200.163 22.0739 200.127 22.0899 200.095 22.1219C200.071 22.1459 200.059 22.1779 200.059 22.2179V23.0459C200.059 23.0859 200.071 23.1219 200.095 23.1539C200.127 23.1779 200.163 23.1899 200.203 23.1899H203.899C204.211 23.1899 204.491 23.2659 204.739 23.4179C204.987 23.5699 205.187 23.7699 205.339 24.0179C205.491 24.2659 205.567 24.5419 205.567 24.8459V25.8059C205.567 26.1099 205.491 26.3859 205.339 26.6339C205.187 26.8819 204.987 27.0819 204.739 27.2339C204.491 27.3859 204.211 27.4619 203.899 27.4619H200.143ZM209.382 27.4619C209.078 27.4619 208.802 27.3859 208.554 27.2339C208.306 27.0819 208.106 26.8819 207.954 26.6339C207.802 26.3859 207.726 26.1099 207.726 25.8059V22.1579C207.726 21.8539 207.802 21.5779 207.954 21.3299C208.106 21.0819 208.306 20.8819 208.554 20.7299C208.802 20.5779 209.078 20.5019 209.382 20.5019H213.138C213.442 20.5019 213.718 20.5779 213.966 20.7299C214.222 20.8819 214.422 21.0819 214.566 21.3299C214.718 21.5779 214.794 21.8539 214.794 22.1579V24.7739H209.298V25.7459C209.298 25.7859 209.31 25.8219 209.334 25.8539C209.366 25.8779 209.402 25.8899 209.442 25.8899H214.794V27.4619H209.382ZM209.298 23.3579H213.222V22.2179C213.222 22.1779 213.206 22.1459 213.174 22.1219C213.15 22.0899 213.118 22.0739 213.078 22.0739H209.442C209.402 22.0739 209.366 22.0899 209.334 22.1219C209.31 22.1459 209.298 22.1779 209.298 22.2179V23.3579ZM218.915 27.4619C218.611 27.4619 218.335 27.3859 218.087 27.2339C217.839 27.0819 217.639 26.8819 217.487 26.6339C217.335 26.3859 217.259 26.1099 217.259 25.8059V18.3659H218.831V20.5019H221.543V22.0739H218.831V25.7459C218.831 25.7859 218.843 25.8219 218.867 25.8539C218.899 25.8779 218.935 25.8899 218.975 25.8899H221.543V27.4619H218.915Z" fill="#161513"/>
</svg>
