<svg width="275" height="47" viewBox="0 0 275 47" fill="none" xmlns="http://www.w3.org/2000/svg">
<path fill-rule="evenodd" clip-rule="evenodd" d="M0 0H249.792H254.564H275V34.9844L275 34.9845L275 34.9846V35H274.974L254.6 47L254.564 46.9792H0V0Z" fill="white"/>
<path d="M88.4943 27.4619C88.1903 27.4619 87.9103 27.3859 87.6543 27.2339C87.4063 27.0819 87.2063 26.8819 87.0543 26.6339C86.9023 26.3779 86.8263 26.0979 86.8263 25.7939V20.4899C86.8263 20.1859 86.9023 19.9099 87.0543 19.6619C87.2063 19.4059 87.4063 19.2019 87.6543 19.0499C87.9103 18.8979 88.1903 18.8219 88.4943 18.8219H95.4423V20.4179H88.8303C88.7023 20.4179 88.5983 20.4539 88.5183 20.5259C88.4463 20.5979 88.4103 20.7019 88.4103 20.8379V25.4459C88.4103 25.5739 88.4463 25.6779 88.5183 25.7579C88.5983 25.8299 88.7023 25.8659 88.8303 25.8659H95.4423V27.4619H88.4943ZM99.4895 27.4619C99.1855 27.4619 98.9095 27.3859 98.6615 27.2339C98.4135 27.0819 98.2135 26.8819 98.0615 26.6339C97.9095 26.3859 97.8335 26.1099 97.8335 25.8059V22.1579C97.8335 21.8539 97.9095 21.5779 98.0615 21.3299C98.2135 21.0819 98.4135 20.8819 98.6615 20.7299C98.9095 20.5779 99.1855 20.5019 99.4895 20.5019H103.245C103.549 20.5019 103.825 20.5779 104.073 20.7299C104.329 20.8819 104.529 21.0819 104.673 21.3299C104.825 21.5779 104.901 21.8539 104.901 22.1579V25.8059C104.901 26.1099 104.825 26.3859 104.673 26.6339C104.529 26.8819 104.333 27.0819 104.085 27.2339C103.837 27.3859 103.557 27.4619 103.245 27.4619H99.4895ZM99.5495 25.8899H103.185C103.225 25.8899 103.257 25.8779 103.281 25.8539C103.313 25.8219 103.329 25.7859 103.329 25.7459V22.2179C103.329 22.1779 103.313 22.1459 103.281 22.1219C103.257 22.0899 103.225 22.0739 103.185 22.0739H99.5495C99.5095 22.0739 99.4735 22.0899 99.4415 22.1219C99.4175 22.1459 99.4055 22.1779 99.4055 22.2179V25.7459C99.4055 25.7859 99.4175 25.8219 99.4415 25.8539C99.4735 25.8779 99.5095 25.8899 99.5495 25.8899ZM107.378 27.4619V20.5019H116.006C116.318 20.5019 116.598 20.5779 116.846 20.7299C117.094 20.8819 117.29 21.0819 117.434 21.3299C117.586 21.5779 117.662 21.8539 117.662 22.1579V27.4619H116.102V22.2179C116.102 22.1779 116.086 22.1459 116.054 22.1219C116.022 22.0899 115.986 22.0739 115.946 22.0739H113.462C113.422 22.0739 113.386 22.0899 113.354 22.1219C113.33 22.1459 113.318 22.1779 113.318 22.2179V27.4619H111.734V22.2179C111.734 22.1779 111.718 22.1459 111.686 22.1219C111.662 22.0899 111.63 22.0739 111.59 22.0739H109.094C109.054 22.0739 109.018 22.0899 108.986 22.1219C108.962 22.1459 108.95 22.1779 108.95 22.2179V27.4619H107.378ZM119.793 27.4619V20.5019H128.421C128.733 20.5019 129.013 20.5779 129.261 20.7299C129.509 20.8819 129.705 21.0819 129.849 21.3299C130.001 21.5779 130.077 21.8539 130.077 22.1579V27.4619H128.517V22.2179C128.517 22.1779 128.501 22.1459 128.469 22.1219C128.437 22.0899 128.401 22.0739 128.361 22.0739H125.877C125.837 22.0739 125.801 22.0899 125.769 22.1219C125.745 22.1459 125.733 22.1779 125.733 22.2179V27.4619H124.149V22.2179C124.149 22.1779 124.133 22.1459 124.101 22.1219C124.077 22.0899 124.045 22.0739 124.005 22.0739H121.509C121.469 22.0739 121.433 22.0899 121.401 22.1219C121.377 22.1459 121.365 22.1779 121.365 22.2179V27.4619H119.793ZM134.367 27.4619C134.063 27.4619 133.783 27.3859 133.527 27.2339C133.279 27.0819 133.079 26.8819 132.927 26.6339C132.783 26.3859 132.711 26.1099 132.711 25.8059V20.5019H134.283V25.7459C134.283 25.7859 134.295 25.8219 134.319 25.8539C134.351 25.8779 134.387 25.8899 134.427 25.8899H138.063C138.103 25.8899 138.135 25.8779 138.159 25.8539C138.191 25.8219 138.207 25.7859 138.207 25.7459V20.5019H139.779V25.8059C139.779 26.1099 139.703 26.3859 139.551 26.6339C139.407 26.8819 139.211 27.0819 138.963 27.2339C138.715 27.3859 138.435 27.4619 138.123 27.4619H134.367ZM142.279 27.4619V20.5019H147.691C147.995 20.5019 148.271 20.5779 148.519 20.7299C148.775 20.8819 148.975 21.0819 149.119 21.3299C149.271 21.5779 149.347 21.8539 149.347 22.1579V27.4619H147.775V22.2179C147.775 22.1779 147.759 22.1459 147.727 22.1219C147.703 22.0899 147.671 22.0739 147.631 22.0739H143.995C143.955 22.0739 143.919 22.0899 143.887 22.1219C143.863 22.1459 143.851 22.1779 143.851 22.2179V27.4619H142.279ZM151.81 27.4619V20.5019H153.382V27.4619H151.81ZM151.81 19.8059V18.2219H153.382V19.8059H151.81ZM157.35 27.4619C157.046 27.4619 156.77 27.3859 156.522 27.2339C156.274 27.0819 156.074 26.8819 155.922 26.6339C155.77 26.3859 155.694 26.1099 155.694 25.8059V22.1579C155.694 21.8539 155.77 21.5779 155.922 21.3299C156.074 21.0819 156.274 20.8819 156.522 20.7299C156.77 20.5779 157.046 20.5019 157.35 20.5019H162.75V22.0739H157.41C157.37 22.0739 157.334 22.0899 157.302 22.1219C157.278 22.1459 157.266 22.1779 157.266 22.2179V25.7459C157.266 25.7859 157.278 25.8219 157.302 25.8539C157.334 25.8779 157.37 25.8899 157.41 25.8899H162.762V27.4619H157.35ZM166.823 27.4619C166.519 27.4619 166.239 27.3859 165.983 27.2339C165.735 27.0819 165.535 26.8819 165.383 26.6339C165.239 26.3859 165.167 26.1099 165.167 25.8059V23.1899H170.663V22.2179C170.663 22.1779 170.647 22.1459 170.615 22.1219C170.591 22.0899 170.559 22.0739 170.519 22.0739H165.167V20.5019H170.579C170.883 20.5019 171.159 20.5779 171.407 20.7299C171.663 20.8819 171.863 21.0819 172.007 21.3299C172.159 21.5779 172.235 21.8539 172.235 22.1579V27.4619H166.823ZM166.883 25.8899H170.663V24.6059H166.739V25.7459C166.739 25.7859 166.751 25.8219 166.775 25.8539C166.807 25.8779 166.843 25.8899 166.883 25.8899ZM176.367 27.4619C176.063 27.4619 175.787 27.3859 175.539 27.2339C175.291 27.0819 175.091 26.8819 174.939 26.6339C174.787 26.3859 174.711 26.1099 174.711 25.8059V18.3659H176.283V20.5019H178.995V22.0739H176.283V25.7459C176.283 25.7859 176.295 25.8219 176.319 25.8539C176.351 25.8779 176.387 25.8899 176.427 25.8899H178.995V27.4619H176.367ZM182.805 27.4619C182.501 27.4619 182.225 27.3859 181.977 27.2339C181.729 27.0819 181.529 26.8819 181.377 26.6339C181.225 26.3859 181.149 26.1099 181.149 25.8059V22.1579C181.149 21.8539 181.225 21.5779 181.377 21.3299C181.529 21.0819 181.729 20.8819 181.977 20.7299C182.225 20.5779 182.501 20.5019 182.805 20.5019H186.561C186.865 20.5019 187.141 20.5779 187.389 20.7299C187.645 20.8819 187.845 21.0819 187.989 21.3299C188.141 21.5779 188.217 21.8539 188.217 22.1579V24.7739H182.721V25.7459C182.721 25.7859 182.733 25.8219 182.757 25.8539C182.789 25.8779 182.825 25.8899 182.865 25.8899H188.217V27.4619H182.805ZM182.721 23.3579H186.645V22.2179C186.645 22.1779 186.629 22.1459 186.597 22.1219C186.573 22.0899 186.541 22.0739 186.501 22.0739H182.865C182.825 22.0739 182.789 22.0899 182.757 22.1219C182.733 22.1459 182.721 22.1779 182.721 22.2179V23.3579Z" fill="#161513"/>
</svg>
