<svg width="275" height="47" viewBox="0 0 275 47" fill="none" xmlns="http://www.w3.org/2000/svg">
<path fill-rule="evenodd" clip-rule="evenodd" d="M0 0H249.792H254.564H275V34.9844L275 34.9845L275 34.9846V35H274.974L254.6 47L254.564 46.9792H0V0Z" fill="white"/>
<path d="M72.7697 27.4619V18.8339H79.7297C80.0337 18.8339 80.3137 18.9099 80.5697 19.0619C80.8257 19.2139 81.0297 19.4179 81.1817 19.6739C81.3337 19.9219 81.4097 20.1979 81.4097 20.5019V22.8299C81.4097 23.1339 81.3337 23.4139 81.1817 23.6699C81.0297 23.9259 80.8257 24.1299 80.5697 24.2819C80.3137 24.4259 80.0337 24.4979 79.7297 24.4979L74.3537 24.5099V27.4619H72.7697ZM74.4977 22.9019H79.6577C79.6977 22.9019 79.7337 22.8899 79.7657 22.8659C79.7977 22.8419 79.8137 22.8099 79.8137 22.7699V20.5619C79.8137 20.5219 79.7977 20.4899 79.7657 20.4659C79.7337 20.4339 79.6977 20.4179 79.6577 20.4179H74.4977C74.4577 20.4179 74.4217 20.4339 74.3897 20.4659C74.3657 20.4899 74.3537 20.5219 74.3537 20.5619V22.7699C74.3537 22.8099 74.3657 22.8419 74.3897 22.8659C74.4217 22.8899 74.4577 22.9019 74.4977 22.9019ZM83.4138 27.4619V22.1579C83.4138 21.8539 83.4898 21.5779 83.6418 21.3299C83.7938 21.0819 83.9938 20.8819 84.2418 20.7299C84.4978 20.5779 84.7738 20.5019 85.0698 20.5019H88.9338V22.0739H85.1298C85.0898 22.0739 85.0538 22.0899 85.0218 22.1219C84.9978 22.1459 84.9858 22.1779 84.9858 22.2179V27.4619H83.4138ZM92.5508 27.4619C92.2468 27.4619 91.9708 27.3859 91.7228 27.2339C91.4748 27.0819 91.2748 26.8819 91.1228 26.6339C90.9708 26.3859 90.8948 26.1099 90.8948 25.8059V22.1579C90.8948 21.8539 90.9708 21.5779 91.1228 21.3299C91.2748 21.0819 91.4748 20.8819 91.7228 20.7299C91.9708 20.5779 92.2468 20.5019 92.5508 20.5019H96.3068C96.6108 20.5019 96.8868 20.5779 97.1348 20.7299C97.3908 20.8819 97.5908 21.0819 97.7348 21.3299C97.8868 21.5779 97.9628 21.8539 97.9628 22.1579V25.8059C97.9628 26.1099 97.8868 26.3859 97.7348 26.6339C97.5908 26.8819 97.3948 27.0819 97.1468 27.2339C96.8988 27.3859 96.6188 27.4619 96.3068 27.4619H92.5508ZM92.6108 25.8899H96.2468C96.2868 25.8899 96.3188 25.8779 96.3428 25.8539C96.3748 25.8219 96.3908 25.7859 96.3908 25.7459V22.2179C96.3908 22.1779 96.3748 22.1459 96.3428 22.1219C96.3188 22.0899 96.2868 22.0739 96.2468 22.0739H92.6108C92.5708 22.0739 92.5348 22.0899 92.5028 22.1219C92.4788 22.1459 92.4668 22.1779 92.4668 22.2179V25.7459C92.4668 25.7859 92.4788 25.8219 92.5028 25.8539C92.5348 25.8779 92.5708 25.8899 92.6108 25.8899ZM100.357 27.4619V18.2219H101.929V20.5019H105.769C106.073 20.5019 106.349 20.5779 106.597 20.7299C106.853 20.8819 107.053 21.0819 107.197 21.3299C107.349 21.5779 107.425 21.8539 107.425 22.1579V25.8059C107.425 26.1099 107.349 26.3859 107.197 26.6339C107.053 26.8819 106.853 27.0819 106.597 27.2339C106.349 27.3859 106.073 27.4619 105.769 27.4619H100.357ZM102.073 25.8899H105.709C105.749 25.8899 105.781 25.8779 105.805 25.8539C105.837 25.8219 105.853 25.7859 105.853 25.7459V22.2179C105.853 22.1779 105.837 22.1459 105.805 22.1219C105.781 22.0899 105.749 22.0739 105.709 22.0739H102.073C102.033 22.0739 101.997 22.0899 101.965 22.1219C101.941 22.1459 101.929 22.1779 101.929 22.2179V25.7459C101.929 25.7859 101.941 25.8219 101.965 25.8539C101.997 25.8779 102.033 25.8899 102.073 25.8899ZM111.193 27.4619C110.889 27.4619 110.613 27.3859 110.365 27.2339C110.117 27.0819 109.917 26.8819 109.765 26.6339C109.613 26.3859 109.537 26.1099 109.537 25.8059V18.2099H111.121V25.7459C111.121 25.7859 111.133 25.8219 111.157 25.8539C111.189 25.8779 111.225 25.8899 111.265 25.8899H112.597V27.4619H111.193ZM116.331 27.4619C116.027 27.4619 115.751 27.3859 115.503 27.2339C115.255 27.0819 115.055 26.8819 114.903 26.6339C114.751 26.3859 114.675 26.1099 114.675 25.8059V22.1579C114.675 21.8539 114.751 21.5779 114.903 21.3299C115.055 21.0819 115.255 20.8819 115.503 20.7299C115.751 20.5779 116.027 20.5019 116.331 20.5019H120.087C120.391 20.5019 120.667 20.5779 120.915 20.7299C121.171 20.8819 121.371 21.0819 121.515 21.3299C121.667 21.5779 121.743 21.8539 121.743 22.1579V24.7739H116.247V25.7459C116.247 25.7859 116.259 25.8219 116.283 25.8539C116.315 25.8779 116.351 25.8899 116.391 25.8899H121.743V27.4619H116.331ZM116.247 23.3579H120.171V22.2179C120.171 22.1779 120.155 22.1459 120.122 22.1219C120.099 22.0899 120.067 22.0739 120.027 22.0739H116.391C116.351 22.0739 116.315 22.0899 116.283 22.1219C116.259 22.1459 116.247 22.1779 116.247 22.2179V23.3579ZM124.219 27.4619V20.5019H132.847C133.159 20.5019 133.439 20.5779 133.687 20.7299C133.935 20.8819 134.131 21.0819 134.275 21.3299C134.427 21.5779 134.503 21.8539 134.503 22.1579V27.4619H132.943V22.2179C132.943 22.1779 132.927 22.1459 132.895 22.1219C132.863 22.0899 132.827 22.0739 132.787 22.0739H130.303C130.263 22.0739 130.227 22.0899 130.195 22.1219C130.171 22.1459 130.159 22.1779 130.159 22.2179V27.4619H128.575V22.2179C128.575 22.1779 128.559 22.1459 128.527 22.1219C128.503 22.0899 128.471 22.0739 128.431 22.0739H125.935C125.895 22.0739 125.859 22.0899 125.827 22.1219C125.803 22.1459 125.791 22.1779 125.791 22.2179V27.4619H124.219ZM137.21 24.7019V23.1299H142.118V24.7019H137.21ZM146.205 27.4619C145.901 27.4619 145.621 27.3859 145.365 27.2339C145.117 27.0819 144.917 26.8819 144.765 26.6339C144.613 26.3779 144.537 26.0979 144.537 25.7939V25.1339H146.121V25.7219C146.121 25.7619 146.133 25.7979 146.157 25.8299C146.189 25.8539 146.225 25.8659 146.265 25.8659H151.437C151.477 25.8659 151.509 25.8539 151.533 25.8299C151.565 25.7979 151.581 25.7619 151.581 25.7219V24.0779C151.581 24.0379 151.565 24.0059 151.533 23.9819C151.509 23.9579 151.477 23.9459 151.437 23.9459H146.205C145.901 23.9459 145.621 23.8699 145.365 23.7179C145.117 23.5659 144.917 23.3659 144.765 23.1179C144.613 22.8619 144.537 22.5779 144.537 22.2659V20.4899C144.537 20.1859 144.613 19.9099 144.765 19.6619C144.917 19.4059 145.117 19.2019 145.365 19.0499C145.621 18.8979 145.901 18.8219 146.205 18.8219H151.509C151.813 18.8219 152.089 18.8979 152.337 19.0499C152.593 19.2019 152.797 19.4059 152.949 19.6619C153.101 19.9099 153.177 20.1859 153.177 20.4899V21.1499H151.581V20.5619C151.581 20.5219 151.565 20.4899 151.533 20.4659C151.509 20.4339 151.477 20.4179 151.437 20.4179H146.265C146.225 20.4179 146.189 20.4339 146.157 20.4659C146.133 20.4899 146.121 20.5219 146.121 20.5619V22.2059C146.121 22.2459 146.133 22.2779 146.157 22.3019C146.189 22.3259 146.225 22.3379 146.265 22.3379H151.509C151.813 22.3379 152.089 22.4139 152.337 22.5659C152.593 22.7179 152.797 22.9219 152.949 23.1779C153.101 23.4259 153.177 23.7059 153.177 24.0179V25.7939C153.177 26.0979 153.101 26.3779 152.949 26.6339C152.797 26.8819 152.593 27.0819 152.337 27.2339C152.089 27.3859 151.813 27.4619 151.509 27.4619H146.205ZM157.283 27.4619C156.979 27.4619 156.703 27.3859 156.455 27.2339C156.207 27.0819 156.007 26.8819 155.855 26.6339C155.703 26.3859 155.627 26.1099 155.627 25.8059V22.1579C155.627 21.8539 155.703 21.5779 155.855 21.3299C156.007 21.0819 156.207 20.8819 156.455 20.7299C156.703 20.5779 156.979 20.5019 157.283 20.5019H161.039C161.343 20.5019 161.619 20.5779 161.867 20.7299C162.123 20.8819 162.323 21.0819 162.467 21.3299C162.619 21.5779 162.695 21.8539 162.695 22.1579V25.8059C162.695 26.1099 162.619 26.3859 162.467 26.6339C162.323 26.8819 162.127 27.0819 161.879 27.2339C161.631 27.3859 161.351 27.4619 161.039 27.4619H157.283ZM157.343 25.8899H160.979C161.019 25.8899 161.051 25.8779 161.075 25.8539C161.107 25.8219 161.123 25.7859 161.123 25.7459V22.2179C161.123 22.1779 161.107 22.1459 161.075 22.1219C161.051 22.0899 161.019 22.0739 160.979 22.0739H157.343C157.303 22.0739 157.267 22.0899 157.235 22.1219C157.211 22.1459 157.199 22.1779 157.199 22.2179V25.7459C157.199 25.7859 157.211 25.8219 157.235 25.8539C157.267 25.8779 157.303 25.8899 157.343 25.8899ZM166.51 27.4619C166.206 27.4619 165.93 27.3859 165.682 27.2339C165.434 27.0819 165.234 26.8819 165.082 26.6339C164.93 26.3859 164.854 26.1099 164.854 25.8059V18.2099H166.438V25.7459C166.438 25.7859 166.45 25.8219 166.474 25.8539C166.506 25.8779 166.542 25.8899 166.582 25.8899H167.914V27.4619H166.51ZM173.214 27.4619L169.386 20.5019H171.198L173.946 25.5539L176.682 20.5019H178.494L174.654 27.4619H173.214ZM180.52 27.4619V20.5019H182.092V27.4619H180.52ZM180.52 19.8059V18.2219H182.092V19.8059H180.52ZM184.685 27.4619V20.5019H190.097C190.401 20.5019 190.677 20.5779 190.925 20.7299C191.181 20.8819 191.381 21.0819 191.525 21.3299C191.677 21.5779 191.753 21.8539 191.753 22.1579V27.4619H190.181V22.2179C190.181 22.1779 190.165 22.1459 190.133 22.1219C190.109 22.0899 190.077 22.0739 190.037 22.0739H186.401C186.361 22.0739 186.325 22.0899 186.293 22.1219C186.269 22.1459 186.257 22.1779 186.257 22.2179V27.4619H184.685ZM195.167 30.2099V28.6259H199.355C199.395 28.6259 199.427 28.6099 199.451 28.5779C199.483 28.5539 199.499 28.5219 199.499 28.4819V27.4619H195.659C195.363 27.4619 195.087 27.3859 194.831 27.2339C194.583 27.0819 194.383 26.8819 194.231 26.6339C194.079 26.3859 194.003 26.1099 194.003 25.8059V22.1579C194.003 21.8539 194.079 21.5779 194.231 21.3299C194.383 21.0819 194.583 20.8819 194.831 20.7299C195.087 20.5779 195.363 20.5019 195.659 20.5019H199.427C199.731 20.5019 200.007 20.5779 200.255 20.7299C200.503 20.8819 200.699 21.0819 200.843 21.3299C200.995 21.5779 201.071 21.8539 201.071 22.1579V28.5539C201.071 28.8659 200.999 29.1459 200.855 29.3939C200.711 29.6419 200.511 29.8379 200.255 29.9819C200.007 30.1339 199.731 30.2099 199.427 30.2099H195.167ZM195.719 25.8899H199.355C199.395 25.8899 199.427 25.8779 199.451 25.8539C199.483 25.8219 199.499 25.7859 199.499 25.7459V22.2179C199.499 22.1779 199.483 22.1459 199.451 22.1219C199.427 22.0899 199.395 22.0739 199.355 22.0739H195.719C195.679 22.0739 195.643 22.0899 195.611 22.1219C195.587 22.1459 195.575 22.1779 195.575 22.2179V25.7459C195.575 25.7859 195.587 25.8219 195.611 25.8539C195.643 25.8779 195.679 25.8899 195.719 25.8899Z" fill="#161513"/>
</svg>
