<svg width="275" height="47" viewBox="0 0 275 47" fill="none" xmlns="http://www.w3.org/2000/svg">
<path fill-rule="evenodd" clip-rule="evenodd" d="M0 0H249.792H254.564H275V34.9844L275 34.9845L275 34.9846V35H274.974L254.6 47L254.564 46.9792H0V0Z" fill="white"/>
<path d="M86.6524 27.4619C86.3484 27.4619 86.0684 27.3859 85.8124 27.2339C85.5644 27.0819 85.3644 26.8819 85.2124 26.6339C85.0604 26.3779 84.9844 26.0979 84.9844 25.7939V25.1339H86.5684V25.7219C86.5684 25.7619 86.5804 25.7979 86.6044 25.8299C86.6364 25.8539 86.6724 25.8659 86.7124 25.8659H91.8844C91.9244 25.8659 91.9564 25.8539 91.9804 25.8299C92.0124 25.7979 92.0284 25.7619 92.0284 25.7219V24.0779C92.0284 24.0379 92.0124 24.0059 91.9804 23.9819C91.9564 23.9579 91.9244 23.9459 91.8844 23.9459H86.6524C86.3484 23.9459 86.0684 23.8699 85.8124 23.7179C85.5644 23.5659 85.3644 23.3659 85.2124 23.1179C85.0604 22.8619 84.9844 22.5779 84.9844 22.2659V20.4899C84.9844 20.1859 85.0604 19.9099 85.2124 19.6619C85.3644 19.4059 85.5644 19.2019 85.8124 19.0499C86.0684 18.8979 86.3484 18.8219 86.6524 18.8219H91.9564C92.2604 18.8219 92.5364 18.8979 92.7844 19.0499C93.0404 19.2019 93.2444 19.4059 93.3964 19.6619C93.5484 19.9099 93.6244 20.1859 93.6244 20.4899V21.1499H92.0284V20.5619C92.0284 20.5219 92.0124 20.4899 91.9804 20.4659C91.9564 20.4339 91.9244 20.4179 91.8844 20.4179H86.7124C86.6724 20.4179 86.6364 20.4339 86.6044 20.4659C86.5804 20.4899 86.5684 20.5219 86.5684 20.5619V22.2059C86.5684 22.2459 86.5804 22.2779 86.6044 22.3019C86.6364 22.3259 86.6724 22.3379 86.7124 22.3379H91.9564C92.2604 22.3379 92.5364 22.4139 92.7844 22.5659C93.0404 22.7179 93.2444 22.9219 93.3964 23.1779C93.5484 23.4259 93.6244 23.7059 93.6244 24.0179V25.7939C93.6244 26.0979 93.5484 26.3779 93.3964 26.6339C93.2444 26.8819 93.0404 27.0819 92.7844 27.2339C92.5364 27.3859 92.2604 27.4619 91.9564 27.4619H86.6524ZM97.7305 27.4619C97.4265 27.4619 97.1505 27.3859 96.9025 27.2339C96.6545 27.0819 96.4545 26.8819 96.3025 26.6339C96.1505 26.3859 96.0745 26.1099 96.0745 25.8059V22.1579C96.0745 21.8539 96.1505 21.5779 96.3025 21.3299C96.4545 21.0819 96.6545 20.8819 96.9025 20.7299C97.1505 20.5779 97.4265 20.5019 97.7305 20.5019H101.487C101.791 20.5019 102.067 20.5779 102.315 20.7299C102.571 20.8819 102.771 21.0819 102.915 21.3299C103.067 21.5779 103.143 21.8539 103.143 22.1579V24.7739H97.6465V25.7459C97.6465 25.7859 97.6585 25.8219 97.6825 25.8539C97.7145 25.8779 97.7505 25.8899 97.7905 25.8899H103.143V27.4619H97.7305ZM97.6465 23.3579H101.571V22.2179C101.571 22.1779 101.555 22.1459 101.523 22.1219C101.499 22.0899 101.467 22.0739 101.427 22.0739H97.7905C97.7505 22.0739 97.7145 22.0899 97.6825 22.1219C97.6585 22.1459 97.6465 22.1779 97.6465 22.2179V23.3579ZM106.97 27.4619C106.666 27.4619 106.39 27.3859 106.142 27.2339C105.894 27.0819 105.694 26.8819 105.542 26.6339C105.39 26.3859 105.314 26.1099 105.314 25.8059V18.2099H106.898V25.7459C106.898 25.7859 106.91 25.8219 106.934 25.8539C106.966 25.8779 107.002 25.8899 107.042 25.8899H108.374V27.4619H106.97ZM110.522 27.4619V19.8779C110.522 19.5739 110.598 19.2979 110.75 19.0499C110.902 18.8019 111.102 18.6019 111.35 18.4499C111.598 18.2979 111.874 18.2219 112.178 18.2219H114.806V19.8059H112.238C112.198 19.8059 112.162 19.8219 112.13 19.8539C112.106 19.8779 112.094 19.9099 112.094 19.9499V20.5019H114.806V22.0739H112.094V27.4619H110.522ZM121.794 27.4619V18.8099H123.378V25.8659H130.434V27.4619H121.794ZM133.93 27.4619C133.626 27.4619 133.35 27.3859 133.102 27.2339C132.854 27.0819 132.654 26.8819 132.502 26.6339C132.35 26.3859 132.274 26.1099 132.274 25.8059V22.1579C132.274 21.8539 132.35 21.5779 132.502 21.3299C132.654 21.0819 132.854 20.8819 133.102 20.7299C133.35 20.5779 133.626 20.5019 133.93 20.5019H137.686C137.99 20.5019 138.266 20.5779 138.514 20.7299C138.77 20.8819 138.97 21.0819 139.114 21.3299C139.266 21.5779 139.342 21.8539 139.342 22.1579V24.7739H133.846V25.7459C133.846 25.7859 133.858 25.8219 133.882 25.8539C133.914 25.8779 133.95 25.8899 133.99 25.8899H139.342V27.4619H133.93ZM133.846 23.3579H137.77V22.2179C137.77 22.1779 137.754 22.1459 137.722 22.1219C137.698 22.0899 137.666 22.0739 137.626 22.0739H133.99C133.95 22.0739 133.914 22.0899 133.882 22.1219C133.858 22.1459 133.846 22.1779 133.846 22.2179V23.3579ZM143.45 27.4619C143.146 27.4619 142.866 27.3859 142.61 27.2339C142.362 27.0819 142.162 26.8819 142.01 26.6339C141.866 26.3859 141.794 26.1099 141.794 25.8059V23.1899H147.29V22.2179C147.29 22.1779 147.274 22.1459 147.242 22.1219C147.218 22.0899 147.186 22.0739 147.146 22.0739H141.794V20.5019H147.206C147.51 20.5019 147.786 20.5779 148.034 20.7299C148.29 20.8819 148.49 21.0819 148.634 21.3299C148.786 21.5779 148.862 21.8539 148.862 22.1579V27.4619H143.45ZM143.51 25.8899H147.29V24.6059H143.366V25.7459C143.366 25.7859 143.378 25.8219 143.402 25.8539C143.434 25.8779 143.47 25.8899 143.51 25.8899ZM151.08 27.4619V22.1579C151.08 21.8539 151.156 21.5779 151.308 21.3299C151.46 21.0819 151.66 20.8819 151.908 20.7299C152.164 20.5779 152.44 20.5019 152.736 20.5019H156.6V22.0739H152.796C152.756 22.0739 152.72 22.0899 152.688 22.1219C152.664 22.1459 152.652 22.1779 152.652 22.2179V27.4619H151.08ZM158.738 27.4619V20.5019H164.15C164.454 20.5019 164.73 20.5779 164.978 20.7299C165.234 20.8819 165.434 21.0819 165.578 21.3299C165.73 21.5779 165.806 21.8539 165.806 22.1579V27.4619H164.234V22.2179C164.234 22.1779 164.218 22.1459 164.186 22.1219C164.162 22.0899 164.13 22.0739 164.09 22.0739H160.454C160.414 22.0739 160.378 22.0899 160.346 22.1219C160.322 22.1459 160.31 22.1779 160.31 22.2179V27.4619H158.738ZM168.269 27.4619V20.5019H169.841V27.4619H168.269ZM168.269 19.8059V18.2219H169.841V19.8059H168.269ZM172.435 27.4619V20.5019H177.847C178.151 20.5019 178.427 20.5779 178.675 20.7299C178.931 20.8819 179.131 21.0819 179.275 21.3299C179.427 21.5779 179.503 21.8539 179.503 22.1579V27.4619H177.931V22.2179C177.931 22.1779 177.915 22.1459 177.883 22.1219C177.859 22.0899 177.827 22.0739 177.787 22.0739H174.151C174.111 22.0739 174.075 22.0899 174.043 22.1219C174.019 22.1459 174.007 22.1779 174.007 22.2179V27.4619H172.435ZM182.916 30.2099V28.6259H187.104C187.144 28.6259 187.176 28.6099 187.2 28.5779C187.232 28.5539 187.248 28.5219 187.248 28.4819V27.4619H183.408C183.112 27.4619 182.836 27.3859 182.58 27.2339C182.332 27.0819 182.132 26.8819 181.98 26.6339C181.828 26.3859 181.752 26.1099 181.752 25.8059V22.1579C181.752 21.8539 181.828 21.5779 181.98 21.3299C182.132 21.0819 182.332 20.8819 182.58 20.7299C182.836 20.5779 183.112 20.5019 183.408 20.5019H187.176C187.48 20.5019 187.756 20.5779 188.004 20.7299C188.252 20.8819 188.448 21.0819 188.592 21.3299C188.744 21.5779 188.82 21.8539 188.82 22.1579V28.5539C188.82 28.8659 188.748 29.1459 188.604 29.3939C188.46 29.6419 188.26 29.8379 188.004 29.9819C187.756 30.1339 187.48 30.2099 187.176 30.2099H182.916ZM183.468 25.8899H187.104C187.144 25.8899 187.176 25.8779 187.2 25.8539C187.232 25.8219 187.248 25.7859 187.248 25.7459V22.2179C187.248 22.1779 187.232 22.1459 187.2 22.1219C187.176 22.0899 187.144 22.0739 187.104 22.0739H183.468C183.428 22.0739 183.392 22.0899 183.36 22.1219C183.336 22.1459 183.324 22.1779 183.324 22.2179V25.7459C183.324 25.7859 183.336 25.8219 183.36 25.8539C183.392 25.8779 183.428 25.8899 183.468 25.8899Z" fill="#161513"/>
</svg>
