<svg width="275" height="47" viewBox="0 0 275 47" fill="none" xmlns="http://www.w3.org/2000/svg">
<path fill-rule="evenodd" clip-rule="evenodd" d="M0 0H249.792H254.564H275V34.9844L275 34.9845L275 34.9846V35H274.974L254.6 47L254.564 46.9792H0V0Z" fill="white"/>
<path d="M71.975 27.4619V20.4179H68.447V18.8219H77.087V20.4179H73.571V27.4619H71.975ZM79.1365 27.4619V20.5019H80.7085V27.4619H79.1365ZM79.1365 19.8059V18.2219H80.7085V19.8059H79.1365ZM83.0207 27.4619V20.5019H91.6487C91.9607 20.5019 92.2407 20.5779 92.4887 20.7299C92.7367 20.8819 92.9327 21.0819 93.0767 21.3299C93.2287 21.5779 93.3047 21.8539 93.3047 22.1579V27.4619H91.7447V22.2179C91.7447 22.1779 91.7287 22.1459 91.6967 22.1219C91.6647 22.0899 91.6287 22.0739 91.5887 22.0739H89.1047C89.0647 22.0739 89.0287 22.0899 88.9967 22.1219C88.9727 22.1459 88.9607 22.1779 88.9607 22.2179V27.4619H87.3767V22.2179C87.3767 22.1779 87.3607 22.1459 87.3287 22.1219C87.3047 22.0899 87.2727 22.0739 87.2327 22.0739H84.7367C84.6967 22.0739 84.6607 22.0899 84.6287 22.1219C84.6047 22.1459 84.5927 22.1779 84.5927 22.2179V27.4619H83.0207ZM97.243 27.4619C96.939 27.4619 96.663 27.3859 96.415 27.2339C96.167 27.0819 95.967 26.8819 95.815 26.6339C95.663 26.3859 95.587 26.1099 95.587 25.8059V22.1579C95.587 21.8539 95.663 21.5779 95.815 21.3299C95.967 21.0819 96.167 20.8819 96.415 20.7299C96.663 20.5779 96.939 20.5019 97.243 20.5019H100.999C101.303 20.5019 101.579 20.5779 101.827 20.7299C102.083 20.8819 102.283 21.0819 102.427 21.3299C102.579 21.5779 102.655 21.8539 102.655 22.1579V24.7739H97.159V25.7459C97.159 25.7859 97.171 25.8219 97.195 25.8539C97.227 25.8779 97.263 25.8899 97.303 25.8899H102.655V27.4619H97.243ZM97.159 23.3579H101.083V22.2179C101.083 22.1779 101.067 22.1459 101.035 22.1219C101.011 22.0899 100.979 22.0739 100.939 22.0739H97.303C97.263 22.0739 97.227 22.0899 97.195 22.1219C97.171 22.1459 97.159 22.1779 97.159 22.2179V23.3579ZM110.024 27.4619V18.8219H111.764L114.896 22.5539L118.016 18.8219H119.768V27.4619H118.172V21.1259L114.896 25.0259L111.608 21.1379V27.4619H110.024ZM123.882 27.4619C123.578 27.4619 123.298 27.3859 123.042 27.2339C122.794 27.0819 122.594 26.8819 122.442 26.6339C122.298 26.3859 122.226 26.1099 122.226 25.8059V23.1899H127.722V22.2179C127.722 22.1779 127.706 22.1459 127.674 22.1219C127.65 22.0899 127.618 22.0739 127.578 22.0739H122.226V20.5019H127.638C127.942 20.5019 128.218 20.5779 128.466 20.7299C128.722 20.8819 128.922 21.0819 129.066 21.3299C129.218 21.5779 129.294 21.8539 129.294 22.1579V27.4619H123.882ZM123.942 25.8899H127.722V24.6059H123.798V25.7459C123.798 25.7859 123.81 25.8219 123.834 25.8539C123.866 25.8779 123.902 25.8899 123.942 25.8899ZM131.653 27.4619V20.5019H137.065C137.369 20.5019 137.645 20.5779 137.893 20.7299C138.149 20.8819 138.349 21.0819 138.493 21.3299C138.645 21.5779 138.721 21.8539 138.721 22.1579V27.4619H137.149V22.2179C137.149 22.1779 137.133 22.1459 137.101 22.1219C137.077 22.0899 137.045 22.0739 137.005 22.0739H133.369C133.329 22.0739 133.293 22.0899 133.261 22.1219C133.237 22.1459 133.225 22.1779 133.225 22.2179V27.4619H131.653ZM142.841 27.4619C142.537 27.4619 142.257 27.3859 142.001 27.2339C141.753 27.0819 141.553 26.8819 141.401 26.6339C141.257 26.3859 141.185 26.1099 141.185 25.8059V23.1899H146.681V22.2179C146.681 22.1779 146.665 22.1459 146.633 22.1219C146.609 22.0899 146.577 22.0739 146.537 22.0739H141.185V20.5019H146.597C146.901 20.5019 147.177 20.5779 147.425 20.7299C147.681 20.8819 147.881 21.0819 148.025 21.3299C148.177 21.5779 148.253 21.8539 148.253 22.1579V27.4619H142.841ZM142.901 25.8899H146.681V24.6059H142.757V25.7459C142.757 25.7859 142.769 25.8219 142.793 25.8539C142.825 25.8779 142.861 25.8899 142.901 25.8899ZM151.667 30.2099V28.6259H155.855C155.895 28.6259 155.927 28.6099 155.951 28.5779C155.983 28.5539 155.999 28.5219 155.999 28.4819V27.4619H152.159C151.863 27.4619 151.587 27.3859 151.331 27.2339C151.083 27.0819 150.883 26.8819 150.731 26.6339C150.579 26.3859 150.503 26.1099 150.503 25.8059V22.1579C150.503 21.8539 150.579 21.5779 150.731 21.3299C150.883 21.0819 151.083 20.8819 151.331 20.7299C151.587 20.5779 151.863 20.5019 152.159 20.5019H155.927C156.231 20.5019 156.507 20.5779 156.755 20.7299C157.003 20.8819 157.199 21.0819 157.343 21.3299C157.495 21.5779 157.571 21.8539 157.571 22.1579V28.5539C157.571 28.8659 157.499 29.1459 157.355 29.3939C157.211 29.6419 157.011 29.8379 156.755 29.9819C156.507 30.1339 156.231 30.2099 155.927 30.2099H151.667ZM152.219 25.8899H155.855C155.895 25.8899 155.927 25.8779 155.951 25.8539C155.983 25.8219 155.999 25.7859 155.999 25.7459V22.2179C155.999 22.1779 155.983 22.1459 155.951 22.1219C155.927 22.0899 155.895 22.0739 155.855 22.0739H152.219C152.179 22.0739 152.143 22.0899 152.111 22.1219C152.087 22.1459 152.075 22.1779 152.075 22.2179V25.7459C152.075 25.7859 152.087 25.8219 152.111 25.8539C152.143 25.8779 152.179 25.8899 152.219 25.8899ZM161.424 27.4619C161.12 27.4619 160.844 27.3859 160.596 27.2339C160.348 27.0819 160.148 26.8819 159.996 26.6339C159.844 26.3859 159.768 26.1099 159.768 25.8059V22.1579C159.768 21.8539 159.844 21.5779 159.996 21.3299C160.148 21.0819 160.348 20.8819 160.596 20.7299C160.844 20.5779 161.12 20.5019 161.424 20.5019H165.18C165.484 20.5019 165.76 20.5779 166.008 20.7299C166.264 20.8819 166.464 21.0819 166.608 21.3299C166.76 21.5779 166.836 21.8539 166.836 22.1579V24.7739H161.34V25.7459C161.34 25.7859 161.352 25.8219 161.376 25.8539C161.408 25.8779 161.444 25.8899 161.484 25.8899H166.836V27.4619H161.424ZM161.34 23.3579H165.264V22.2179C165.264 22.1779 165.248 22.1459 165.216 22.1219C165.192 22.0899 165.16 22.0739 165.12 22.0739H161.484C161.444 22.0739 161.408 22.0899 161.376 22.1219C161.352 22.1459 161.34 22.1779 161.34 22.2179V23.3579ZM169.313 27.4619V20.5019H177.941C178.253 20.5019 178.533 20.5779 178.781 20.7299C179.029 20.8819 179.225 21.0819 179.369 21.3299C179.521 21.5779 179.597 21.8539 179.597 22.1579V27.4619H178.037V22.2179C178.037 22.1779 178.021 22.1459 177.989 22.1219C177.957 22.0899 177.921 22.0739 177.881 22.0739H175.397C175.357 22.0739 175.321 22.0899 175.289 22.1219C175.265 22.1459 175.253 22.1779 175.253 22.2179V27.4619H173.669V22.2179C173.669 22.1779 173.653 22.1459 173.621 22.1219C173.597 22.0899 173.565 22.0739 173.525 22.0739H171.029C170.989 22.0739 170.953 22.0899 170.921 22.1219C170.897 22.1459 170.885 22.1779 170.885 22.2179V27.4619H169.313ZM183.535 27.4619C183.231 27.4619 182.955 27.3859 182.707 27.2339C182.459 27.0819 182.259 26.8819 182.107 26.6339C181.955 26.3859 181.879 26.1099 181.879 25.8059V22.1579C181.879 21.8539 181.955 21.5779 182.107 21.3299C182.259 21.0819 182.459 20.8819 182.707 20.7299C182.955 20.5779 183.231 20.5019 183.535 20.5019H187.291C187.595 20.5019 187.871 20.5779 188.119 20.7299C188.375 20.8819 188.575 21.0819 188.719 21.3299C188.871 21.5779 188.947 21.8539 188.947 22.1579V24.7739H183.451V25.7459C183.451 25.7859 183.463 25.8219 183.487 25.8539C183.519 25.8779 183.555 25.8899 183.595 25.8899H188.947V27.4619H183.535ZM183.451 23.3579H187.375V22.2179C187.375 22.1779 187.359 22.1459 187.327 22.1219C187.303 22.0899 187.271 22.0739 187.231 22.0739H183.595C183.555 22.0739 183.519 22.0899 183.487 22.1219C183.463 22.1459 183.451 22.1779 183.451 22.2179V23.3579ZM191.424 27.4619V20.5019H196.836C197.14 20.5019 197.416 20.5779 197.664 20.7299C197.92 20.8819 198.12 21.0819 198.264 21.3299C198.416 21.5779 198.492 21.8539 198.492 22.1579V27.4619H196.92V22.2179C196.92 22.1779 196.904 22.1459 196.872 22.1219C196.848 22.0899 196.816 22.0739 196.776 22.0739H193.14C193.1 22.0739 193.064 22.0899 193.032 22.1219C193.008 22.1459 192.996 22.1779 192.996 22.2179V27.4619H191.424ZM202.623 27.4619C202.319 27.4619 202.043 27.3859 201.795 27.2339C201.547 27.0819 201.347 26.8819 201.195 26.6339C201.043 26.3859 200.967 26.1099 200.967 25.8059V18.3659H202.539V20.5019H205.251V22.0739H202.539V25.7459C202.539 25.7859 202.551 25.8219 202.575 25.8539C202.607 25.8779 202.643 25.8899 202.683 25.8899H205.251V27.4619H202.623Z" fill="#161513"/>
</svg>
