<svg width="162" height="48" viewBox="0 0 162 48" fill="none" xmlns="http://www.w3.org/2000/svg">
<path fill-rule="evenodd" clip-rule="evenodd" d="M0 0.5H149.962H161.959V35.4429L162 35.4845L149.982 47.5L149.962 47.4792H0V0.5Z" fill="white"/>
<path d="M34.4977 27.9619C34.1937 27.9619 33.9137 27.8859 33.6577 27.7339C33.4097 27.5819 33.2097 27.3819 33.0577 27.1339C32.9057 26.8779 32.8297 26.5979 32.8297 26.2939V20.9899C32.8297 20.6859 32.9057 20.4099 33.0577 20.1619C33.2097 19.9059 33.4097 19.7019 33.6577 19.5499C33.9137 19.3979 34.1937 19.3219 34.4977 19.3219H39.7897C40.0937 19.3219 40.3737 19.3979 40.6297 19.5499C40.8857 19.7019 41.0897 19.9059 41.2417 20.1619C41.3937 20.4099 41.4697 20.6859 41.4697 20.9899V21.6619H39.8737V21.0619C39.8737 21.0219 39.8577 20.9899 39.8257 20.9659C39.7937 20.9339 39.7577 20.9179 39.7177 20.9179H34.5577C34.5177 20.9179 34.4817 20.9339 34.4497 20.9659C34.4257 20.9899 34.4137 21.0219 34.4137 21.0619V26.2219C34.4137 26.2619 34.4257 26.2979 34.4497 26.3299C34.4817 26.3539 34.5177 26.3659 34.5577 26.3659H39.7177C39.7577 26.3659 39.7937 26.3539 39.8257 26.3299C39.8577 26.2979 39.8737 26.2619 39.8737 26.2219V24.6619H37.9177V23.0659H41.4697V26.2939C41.4697 26.5979 41.3937 26.8779 41.2417 27.1339C41.0897 27.3819 40.8857 27.5819 40.6297 27.7339C40.3737 27.8859 40.0937 27.9619 39.7897 27.9619H34.4977ZM45.5867 27.9619C45.2827 27.9619 45.0067 27.8859 44.7587 27.7339C44.5107 27.5819 44.3107 27.3819 44.1587 27.1339C44.0067 26.8859 43.9307 26.6099 43.9307 26.3059V22.6579C43.9307 22.3539 44.0067 22.0779 44.1587 21.8299C44.3107 21.5819 44.5107 21.3819 44.7587 21.2299C45.0067 21.0779 45.2827 21.0019 45.5867 21.0019H49.3427C49.6467 21.0019 49.9227 21.0779 50.1707 21.2299C50.4267 21.3819 50.6267 21.5819 50.7707 21.8299C50.9227 22.0779 50.9987 22.3539 50.9987 22.6579V25.2739H45.5027V26.2459C45.5027 26.2859 45.5147 26.3219 45.5387 26.3539C45.5707 26.3779 45.6067 26.3899 45.6467 26.3899H50.9987V27.9619H45.5867ZM45.5027 23.8579H49.4267V22.7179C49.4267 22.6779 49.4107 22.6459 49.3787 22.6219C49.3547 22.5899 49.3227 22.5739 49.2827 22.5739H45.6467C45.6067 22.5739 45.5707 22.5899 45.5387 22.6219C45.5147 22.6459 45.5027 22.6779 45.5027 22.7179V23.8579ZM55.1192 27.9619C54.8152 27.9619 54.5392 27.8859 54.2912 27.7339C54.0432 27.5819 53.8432 27.3819 53.6912 27.1339C53.5392 26.8859 53.4632 26.6099 53.4632 26.3059V18.8659H55.0352V21.0019H57.7472V22.5739H55.0352V26.2459C55.0352 26.2859 55.0472 26.3219 55.0712 26.3539C55.1032 26.3779 55.1392 26.3899 55.1792 26.3899H57.7472V27.9619H55.1192ZM64.6609 27.9619V19.3219H66.2329V27.9619H64.6609ZM68.7354 27.9619V21.0019H74.1474C74.4514 21.0019 74.7274 21.0779 74.9754 21.2299C75.2314 21.3819 75.4314 21.5819 75.5754 21.8299C75.7274 22.0779 75.8034 22.3539 75.8034 22.6579V27.9619H74.2314V22.7179C74.2314 22.6779 74.2154 22.6459 74.1834 22.6219C74.1594 22.5899 74.1274 22.5739 74.0874 22.5739H70.4514C70.4114 22.5739 70.3754 22.5899 70.3434 22.6219C70.3194 22.6459 70.3074 22.6779 70.3074 22.7179V27.9619H68.7354ZM86.2788 27.9619V20.9179H82.7508V19.3219H91.3908V20.9179H87.8748V27.9619H86.2788ZM94.4398 27.9619C94.1358 27.9619 93.8598 27.8859 93.6118 27.7339C93.3638 27.5819 93.1638 27.3819 93.0118 27.1339C92.8598 26.8859 92.7838 26.6099 92.7838 26.3059V22.6579C92.7838 22.3539 92.8598 22.0779 93.0118 21.8299C93.1638 21.5819 93.3638 21.3819 93.6118 21.2299C93.8598 21.0779 94.1358 21.0019 94.4398 21.0019H98.1958C98.4998 21.0019 98.7758 21.0779 99.0238 21.2299C99.2798 21.3819 99.4798 21.5819 99.6238 21.8299C99.7758 22.0779 99.8518 22.3539 99.8518 22.6579V26.3059C99.8518 26.6099 99.7758 26.8859 99.6238 27.1339C99.4798 27.3819 99.2838 27.5819 99.0358 27.7339C98.7878 27.8859 98.5078 27.9619 98.1958 27.9619H94.4398ZM94.4998 26.3899H98.1358C98.1758 26.3899 98.2078 26.3779 98.2318 26.3539C98.2638 26.3219 98.2798 26.2859 98.2798 26.2459V22.7179C98.2798 22.6779 98.2638 22.6459 98.2318 22.6219C98.2078 22.5899 98.1758 22.5739 98.1358 22.5739H94.4998C94.4598 22.5739 94.4238 22.5899 94.3918 22.6219C94.3678 22.6459 94.3558 22.6779 94.3558 22.7179V26.2459C94.3558 26.2859 94.3678 26.3219 94.3918 26.3539C94.4238 26.3779 94.4598 26.3899 94.4998 26.3899ZM103.656 27.9619C103.352 27.9619 103.072 27.8859 102.816 27.7339C102.568 27.5819 102.368 27.3819 102.216 27.1339C102.072 26.8859 102 26.6099 102 26.3059V21.0019H103.572V26.2459C103.572 26.2859 103.584 26.3219 103.608 26.3539C103.64 26.3779 103.676 26.3899 103.716 26.3899H107.352C107.392 26.3899 107.424 26.3779 107.448 26.3539C107.48 26.3219 107.496 26.2859 107.496 26.2459V21.0019H109.068V26.3059C109.068 26.6099 108.992 26.8859 108.84 27.1339C108.696 27.3819 108.5 27.5819 108.252 27.7339C108.004 27.8859 107.724 27.9619 107.412 27.9619H103.656ZM112.894 27.9619C112.59 27.9619 112.314 27.8859 112.066 27.7339C111.818 27.5819 111.618 27.3819 111.466 27.1339C111.314 26.8859 111.238 26.6099 111.238 26.3059V22.6579C111.238 22.3539 111.314 22.0779 111.466 21.8299C111.618 21.5819 111.818 21.3819 112.066 21.2299C112.314 21.0779 112.59 21.0019 112.894 21.0019H118.294V22.5739H112.954C112.914 22.5739 112.878 22.5899 112.846 22.6219C112.822 22.6459 112.81 22.6779 112.81 22.7179V26.2459C112.81 26.2859 112.822 26.3219 112.846 26.3539C112.878 26.3779 112.914 26.3899 112.954 26.3899H118.306V27.9619H112.894ZM120.525 27.9619V18.7219H122.097V21.0019H125.937C126.241 21.0019 126.517 21.0779 126.765 21.2299C127.013 21.3819 127.213 21.5819 127.365 21.8299C127.517 22.0779 127.593 22.3539 127.593 22.6579V27.9619H126.021V22.7179C126.021 22.6779 126.005 22.6459 125.973 22.6219C125.949 22.5899 125.917 22.5739 125.877 22.5739H122.241C122.201 22.5739 122.165 22.5899 122.133 22.6219C122.109 22.6459 122.097 22.6779 122.097 22.7179V27.9619H120.525Z" fill="#161513"/>
</svg>
