<svg width="163" height="40" viewBox="0 0 163 40" fill="none" xmlns="http://www.w3.org/2000/svg">
<g id="Union">
<mask id="path-1-inside-1_283_27" fill="white">
<path fill-rule="evenodd" clip-rule="evenodd" d="M0.5 0H150.462H162.459V29.7385L162.5 29.774L150.483 40L150.462 39.9823H0.5V0Z"/>
</mask>
<path d="M0.5 0V-1H-0.5V0H0.5ZM162.459 0H163.459V-1H162.459V0ZM162.459 29.7385H161.459V30.2006L161.81 30.5001L162.459 29.7385ZM162.5 29.774L163.148 30.5356L164.043 29.774L163.148 29.0124L162.5 29.774ZM150.483 40L149.838 40.7646L150.486 41.3105L151.131 40.7616L150.483 40ZM150.462 39.9823L151.106 39.2177L150.827 38.9823H150.462V39.9823ZM0.5 39.9823H-0.5V40.9823H0.5V39.9823ZM150.462 -1H0.5V1H150.462V-1ZM162.459 -1H150.462V1H162.459V-1ZM163.459 29.7385V0H161.459V29.7385H163.459ZM161.81 30.5001L161.852 30.5356L163.148 29.0124L163.107 28.9769L161.81 30.5001ZM161.852 29.0124L149.835 39.2384L151.131 40.7616L163.148 30.5356L161.852 29.0124ZM151.127 39.2354L151.106 39.2177L149.817 40.7469L149.838 40.7646L151.127 39.2354ZM0.5 40.9823H150.462V38.9823H0.5V40.9823ZM-0.5 0V39.9823H1.5V0H-0.5Z" fill="white" mask="url(#path-1-inside-1_283_27)"/>
</g>
</svg>
