<svg width="162" height="48" viewBox="0 0 162 48" fill="none" xmlns="http://www.w3.org/2000/svg">
<mask id="path-1-inside-1_30_880" fill="white">
<path fill-rule="evenodd" clip-rule="evenodd" d="M0 0.5H149.962H161.959V35.4429L162 35.4845L149.982 47.5L149.962 47.4792H0V0.5Z"/>
</mask>
<path d="M0 0.5V-0.5H-1V0.5H0ZM161.959 0.5H162.959V-0.5H161.959V0.5ZM161.959 35.4429H160.959V35.8571L161.251 36.1501L161.959 35.4429ZM162 35.4845L162.707 36.1917L163.414 35.4845L162.707 34.7773L162 35.4845ZM149.982 47.5L149.276 48.2074L149.983 48.9139L150.689 48.2072L149.982 47.5ZM149.962 47.4792L150.668 46.7718L150.376 46.4792H149.962V47.4792ZM0 47.4792H-1V48.4792H0V47.4792ZM149.962 -0.5H0V1.5H149.962V-0.5ZM161.959 -0.5H149.962V1.5H161.959V-0.5ZM162.959 35.4429V0.5H160.959V35.4429H162.959ZM161.251 36.1501L161.293 36.1917L162.707 34.7773L162.666 34.7357L161.251 36.1501ZM161.293 34.7773L149.275 46.7928L150.689 48.2072L162.707 36.1917L161.293 34.7773ZM150.689 46.7926L150.668 46.7718L149.255 48.1866L149.276 48.2074L150.689 46.7926ZM0 48.4792H149.962V46.4792H0V48.4792ZM-1 0.5V47.4792H1V0.5H-1Z" fill="white" mask="url(#path-1-inside-1_30_880)"/>
<path d="M32.8537 27.9619V19.3219H39.8137C40.1177 19.3219 40.3977 19.3979 40.6537 19.5499C40.9097 19.7019 41.1137 19.9059 41.2657 20.1619C41.4177 20.4099 41.4937 20.6859 41.4937 20.9899V26.2939C41.4937 26.5979 41.4177 26.8779 41.2657 27.1339C41.1137 27.3819 40.9097 27.5819 40.6537 27.7339C40.3977 27.8859 40.1177 27.9619 39.8137 27.9619H32.8537ZM34.5697 26.3659H39.7417C39.7817 26.3659 39.8177 26.3539 39.8497 26.3299C39.8817 26.2979 39.8977 26.2619 39.8977 26.2219V21.0619C39.8977 21.0219 39.8817 20.9899 39.8497 20.9659C39.8177 20.9339 39.7817 20.9179 39.7417 20.9179H34.5697C34.5297 20.9179 34.4937 20.9339 34.4617 20.9659C34.4377 20.9899 34.4257 21.0219 34.4257 21.0619V26.2219C34.4257 26.2619 34.4377 26.2979 34.4617 26.3299C34.4937 26.3539 34.5297 26.3659 34.5697 26.3659ZM45.6335 27.9619C45.3295 27.9619 45.0535 27.8859 44.8055 27.7339C44.5575 27.5819 44.3575 27.3819 44.2055 27.1339C44.0535 26.8859 43.9775 26.6099 43.9775 26.3059V22.6579C43.9775 22.3539 44.0535 22.0779 44.2055 21.8299C44.3575 21.5819 44.5575 21.3819 44.8055 21.2299C45.0535 21.0779 45.3295 21.0019 45.6335 21.0019H49.3895C49.6935 21.0019 49.9695 21.0779 50.2175 21.2299C50.4735 21.3819 50.6735 21.5819 50.8175 21.8299C50.9695 22.0779 51.0455 22.3539 51.0455 22.6579V26.3059C51.0455 26.6099 50.9695 26.8859 50.8175 27.1339C50.6735 27.3819 50.4775 27.5819 50.2295 27.7339C49.9815 27.8859 49.7015 27.9619 49.3895 27.9619H45.6335ZM45.6935 26.3899H49.3295C49.3695 26.3899 49.4015 26.3779 49.4255 26.3539C49.4575 26.3219 49.4735 26.2859 49.4735 26.2459V22.7179C49.4735 22.6779 49.4575 22.6459 49.4255 22.6219C49.4015 22.5899 49.3695 22.5739 49.3295 22.5739H45.6935C45.6535 22.5739 45.6175 22.5899 45.5855 22.6219C45.5615 22.6459 45.5495 22.6779 45.5495 22.7179V26.2459C45.5495 26.2859 45.5615 26.3219 45.5855 26.3539C45.6175 26.3779 45.6535 26.3899 45.6935 26.3899ZM55.3153 27.9619L52.5793 21.0019H54.2473L55.9393 25.1059L57.7153 21.0019H59.3473L61.2433 25.1299L62.8153 21.0019H64.4833L61.8673 27.9619H60.6433L58.5433 23.3179L56.5393 27.9619H55.3153ZM66.4877 27.9619V21.0019H71.8997C72.2037 21.0019 72.4797 21.0779 72.7277 21.2299C72.9837 21.3819 73.1837 21.5819 73.3277 21.8299C73.4797 22.0779 73.5557 22.3539 73.5557 22.6579V27.9619H71.9837V22.7179C71.9837 22.6779 71.9677 22.6459 71.9357 22.6219C71.9117 22.5899 71.8797 22.5739 71.8397 22.5739H68.2037C68.1637 22.5739 68.1277 22.5899 68.0957 22.6219C68.0717 22.6459 68.0597 22.6779 68.0597 22.7179V27.9619H66.4877ZM77.6752 27.9619C77.3712 27.9619 77.0952 27.8859 76.8472 27.7339C76.5992 27.5819 76.3992 27.3819 76.2472 27.1339C76.0952 26.8859 76.0192 26.6099 76.0192 26.3059V18.7099H77.6032V26.2459C77.6032 26.2859 77.6152 26.3219 77.6392 26.3539C77.6712 26.3779 77.7072 26.3899 77.7472 26.3899H79.0792V27.9619H77.6752ZM82.8242 27.9619C82.5202 27.9619 82.2442 27.8859 81.9962 27.7339C81.7482 27.5819 81.5482 27.3819 81.3962 27.1339C81.2442 26.8859 81.1682 26.6099 81.1682 26.3059V22.6579C81.1682 22.3539 81.2442 22.0779 81.3962 21.8299C81.5482 21.5819 81.7482 21.3819 81.9962 21.2299C82.2442 21.0779 82.5202 21.0019 82.8242 21.0019H86.5802C86.8842 21.0019 87.1602 21.0779 87.4082 21.2299C87.6642 21.3819 87.8642 21.5819 88.0082 21.8299C88.1602 22.0779 88.2362 22.3539 88.2362 22.6579V26.3059C88.2362 26.6099 88.1602 26.8859 88.0082 27.1339C87.8642 27.3819 87.6682 27.5819 87.4202 27.7339C87.1722 27.8859 86.8922 27.9619 86.5802 27.9619H82.8242ZM82.8842 26.3899H86.5202C86.5602 26.3899 86.5922 26.3779 86.6162 26.3539C86.6482 26.3219 86.6642 26.2859 86.6642 26.2459V22.7179C86.6642 22.6779 86.6482 22.6459 86.6162 22.6219C86.5922 22.5899 86.5602 22.5739 86.5202 22.5739H82.8842C82.8442 22.5739 82.8082 22.5899 82.7762 22.6219C82.7522 22.6459 82.7402 22.6779 82.7402 22.7179V26.2459C82.7402 26.2859 82.7522 26.3219 82.7762 26.3539C82.8082 26.3779 82.8442 26.3899 82.8842 26.3899ZM92.0869 27.9619C91.7829 27.9619 91.5029 27.8859 91.2469 27.7339C90.9989 27.5819 90.7989 27.3819 90.6469 27.1339C90.5029 26.8859 90.4309 26.6099 90.4309 26.3059V23.6899H95.9269V22.7179C95.9269 22.6779 95.9109 22.6459 95.8789 22.6219C95.8549 22.5899 95.8229 22.5739 95.7829 22.5739H90.4309V21.0019H95.8429C96.1469 21.0019 96.4229 21.0779 96.6709 21.2299C96.9269 21.3819 97.1269 21.5819 97.2709 21.8299C97.4229 22.0779 97.4989 22.3539 97.4989 22.6579V27.9619H92.0869ZM92.1469 26.3899H95.9269V25.1059H92.0029V26.2459C92.0029 26.2859 92.0149 26.3219 92.0389 26.3539C92.0709 26.3779 92.1069 26.3899 92.1469 26.3899ZM101.271 27.9619C100.959 27.9619 100.679 27.8859 100.431 27.7339C100.183 27.5819 99.983 27.3819 99.831 27.1339C99.687 26.8859 99.615 26.6099 99.615 26.3059V22.6579C99.615 22.3539 99.687 22.0779 99.831 21.8299C99.983 21.5819 100.183 21.3819 100.431 21.2299C100.679 21.0779 100.959 21.0019 101.271 21.0019H105.123V18.7219H106.695V27.9619H101.271ZM101.343 26.3899H104.979C105.019 26.3899 105.051 26.3779 105.075 26.3539C105.107 26.3219 105.123 26.2859 105.123 26.2459V22.7179C105.123 22.6779 105.107 22.6459 105.075 22.6219C105.051 22.5899 105.019 22.5739 104.979 22.5739H101.343C101.303 22.5739 101.267 22.5899 101.235 22.6219C101.211 22.6459 101.199 22.6779 101.199 22.7179V26.2459C101.199 26.2859 101.211 26.3219 101.235 26.3539C101.267 26.3779 101.303 26.3899 101.343 26.3899ZM115.751 27.9619C115.447 27.9619 115.167 27.8859 114.911 27.7339C114.663 27.5819 114.463 27.3819 114.311 27.1339C114.159 26.8779 114.083 26.5979 114.083 26.2939V20.9899C114.083 20.6859 114.159 20.4099 114.311 20.1619C114.463 19.9059 114.663 19.7019 114.911 19.5499C115.167 19.3979 115.447 19.3219 115.751 19.3219H122.699V20.9179H116.087C115.959 20.9179 115.855 20.9539 115.775 21.0259C115.703 21.0979 115.667 21.2019 115.667 21.3379V25.9459C115.667 26.0739 115.703 26.1779 115.775 26.2579C115.855 26.3299 115.959 26.3659 116.087 26.3659H122.699V27.9619H115.751ZM129.902 27.9619L124.898 19.3219H126.746L130.61 26.0419L134.486 19.3219H136.322L131.318 27.9619H129.902Z" fill="white"/>
</svg>
