<svg width="162" height="48" viewBox="0 0 162 48" fill="none" xmlns="http://www.w3.org/2000/svg">
<path fill-rule="evenodd" clip-rule="evenodd" d="M0 0.608154H149.962H161.959V35.551L162 35.5927L149.982 47.6081L149.962 47.5873H0V0.608154Z" fill="url(#paint0_linear_30_857)"/>
<path d="M34.4977 28.0701C34.1937 28.0701 33.9137 27.9941 33.6577 27.8421C33.4097 27.6901 33.2097 27.4901 33.0577 27.2421C32.9057 26.9861 32.8297 26.7061 32.8297 26.4021V21.0981C32.8297 20.7941 32.9057 20.5181 33.0577 20.2701C33.2097 20.0141 33.4097 19.8101 33.6577 19.6581C33.9137 19.5061 34.1937 19.4301 34.4977 19.4301H41.4457V21.0261H34.8337C34.7057 21.0261 34.6017 21.0621 34.5217 21.1341C34.4497 21.2061 34.4137 21.3101 34.4137 21.4461V26.0541C34.4137 26.1821 34.4497 26.2861 34.5217 26.3661C34.6017 26.4381 34.7057 26.4741 34.8337 26.4741H41.4457V28.0701H34.4977ZM45.5409 28.0701C45.2369 28.0701 44.9569 27.9941 44.7009 27.8421C44.4529 27.6901 44.2529 27.4901 44.1009 27.2421C43.9489 26.9861 43.8729 26.7061 43.8729 26.4021V21.0981C43.8729 20.7941 43.9489 20.5181 44.1009 20.2701C44.2529 20.0141 44.4529 19.8101 44.7009 19.6581C44.9569 19.5061 45.2369 19.4301 45.5409 19.4301H50.8449C51.1489 19.4301 51.4249 19.5061 51.6729 19.6581C51.9289 19.8101 52.1329 20.0141 52.2849 20.2701C52.4369 20.5181 52.5129 20.7941 52.5129 21.0981V26.4021C52.5129 26.7061 52.4369 26.9861 52.2849 27.2421C52.1329 27.4901 51.9289 27.6901 51.6729 27.8421C51.4249 27.9941 51.1489 28.0701 50.8449 28.0701H45.5409ZM45.6009 26.4741H50.7609C50.8009 26.4741 50.8369 26.4621 50.8689 26.4381C50.9009 26.4061 50.9169 26.3701 50.9169 26.3301V21.1701C50.9169 21.1301 50.9009 21.0981 50.8689 21.0741C50.8369 21.0421 50.8009 21.0261 50.7609 21.0261H45.6009C45.5609 21.0261 45.5249 21.0421 45.4929 21.0741C45.4689 21.0981 45.4569 21.1301 45.4569 21.1701V26.3301C45.4569 26.3701 45.4689 26.4061 45.4929 26.4381C45.5249 26.4621 45.5609 26.4741 45.6009 26.4741ZM55.0344 28.0701V19.4301H56.7744L62.0784 25.7421V19.4301H63.6744V28.0701H61.9344L56.6184 21.7461V28.0701H55.0344ZM69.3148 28.0701V21.0261H65.7868V19.4301H74.4268V21.0261H70.9108V28.0701H69.3148ZM76.5482 28.0701V21.0981C76.5482 20.7941 76.6242 20.5181 76.7762 20.2701C76.9282 20.0141 77.1282 19.8101 77.3762 19.6581C77.6322 19.5061 77.9122 19.4301 78.2162 19.4301H83.5082C83.8122 19.4301 84.0922 19.5061 84.3482 19.6581C84.6042 19.8101 84.8082 20.0141 84.9602 20.2701C85.1122 20.5181 85.1882 20.7941 85.1882 21.0981V28.0701H83.5922V25.1661H78.1322V28.0701H76.5482ZM78.1322 23.5821H83.5922V21.1701C83.5922 21.1301 83.5762 21.0981 83.5442 21.0741C83.5122 21.0421 83.4762 21.0261 83.4362 21.0261H78.2762C78.2362 21.0261 78.2002 21.0421 78.1682 21.0741C78.1442 21.0981 78.1322 21.1301 78.1322 21.1701V23.5821ZM89.4235 28.0701C89.1195 28.0701 88.8395 27.9941 88.5835 27.8421C88.3355 27.6901 88.1355 27.4901 87.9835 27.2421C87.8315 26.9861 87.7555 26.7061 87.7555 26.4021V21.0981C87.7555 20.7941 87.8315 20.5181 87.9835 20.2701C88.1355 20.0141 88.3355 19.8101 88.5835 19.6581C88.8395 19.5061 89.1195 19.4301 89.4235 19.4301H96.3715V21.0261H89.7595C89.6315 21.0261 89.5275 21.0621 89.4475 21.1341C89.3755 21.2061 89.3395 21.3101 89.3395 21.4461V26.0541C89.3395 26.1821 89.3755 26.2861 89.4475 26.3661C89.5275 26.4381 89.6315 26.4741 89.7595 26.4741H96.3715V28.0701H89.4235ZM101.919 28.0701V21.0261H98.3907V19.4301H107.031V21.0261H103.515V28.0701H101.919ZM113.996 28.0701V19.4301H115.736L118.868 23.1621L121.988 19.4301H123.74V28.0701H122.144V21.7341L118.868 25.6341L115.58 21.7461V28.0701H113.996ZM126.353 28.0701V19.4301H134.309V21.0261H127.949V22.9461H133.061V24.5541H127.949V26.4741H134.309V28.0701H126.353Z" fill="#161513"/>
<defs>
<linearGradient id="paint0_linear_30_857" x1="81" y1="0.608154" x2="81" y2="47.6082" gradientUnits="userSpaceOnUse">
<stop stop-color="#3877FF"/>
<stop offset="1" stop-color="#1CFFAD"/>
</linearGradient>
</defs>
</svg>
