<svg width="1440" height="5399" viewBox="0 0 1440 5399" fill="none" xmlns="http://www.w3.org/2000/svg">
<g clip-path="url(#clip0_58_122)">
<rect width="1440" height="5399" fill="#161513"/>
<g opacity="0.2">
<path opacity="0.1" d="M743.364 539.559C740.051 548.578 737.258 558.46 734.974 568.096C722.145 628.09 734.464 697.102 765.772 740.626C781.68 762.266 795.378 768.274 808.555 773.42C820.195 778.195 831.326 783.215 842.574 799.31C886.36 862.418 874.256 1007.04 819.254 1075.87C800.585 1099.35 780.734 1107.81 763.261 1115.5C742.736 1124.66 722.886 1133.12 711.29 1164.69C694.878 1208.23 695.77 1276.45 723.542 1307.95C743.378 1330.29 768.551 1325.57 792.873 1320.89C817.538 1316.41 843.563 1311.65 865.776 1333.21C897.121 1364.1 898.806 1426.74 898.828 1444.91C898.35 1496.35 878.745 1528.07 859.472 1558.89C842.044 1586.97 824.12 1616.39 821.17 1659.75C817.616 1710.44 837.356 1739.88 856.233 1768.25C872.685 1792.97 888.096 1815.96 887.963 1851.65C887.791 1915.92 837.417 1955.07 774.373 2004.78C710.986 2054.28 638.81 2110.62 592.31 2209.87C545.645 2309.56 533.022 2437.36 554.749 2590.15C554.938 2591.91 556.487 2593.39 557.848 2593.11C559.208 2592.82 560.379 2590.77 560.19 2589.01C538.653 2437.98 551.122 2311.74 597.124 2213.85C643.127 2115.96 714.286 2060.11 776.999 2011.3C839.203 1962.74 893.125 1920.77 893.416 1851.61C893.858 1812.81 876.719 1787.68 860.61 1763.17C842.597 1735.87 823.898 1708.15 826.801 1660.37C829.774 1619.23 846.362 1592.3 863.955 1563.78C883.559 1532.06 904.004 1499.19 904.624 1445.08C904.934 1426.01 903.048 1360.5 869.633 1327.27C845.693 1303.57 818.651 1308.82 792.625 1313.58C768.469 1317.82 745.508 1322.21 727.742 1302.21C702.04 1273.05 701.195 1209.27 716.778 1167.98C727.558 1139.78 745.196 1131.64 765.556 1122.93C783.537 1115 804.062 1105.84 823.571 1081.21C880.596 1010.29 892.985 860.335 847.295 794.435C835.006 776.616 822.68 771.43 811.04 766.655C798.371 761.264 785.36 755.667 770.658 735.301C740.568 694.157 728.959 627.771 741.302 570.238C755.587 502.863 800.78 457.313 835.005 438.204C861.267 423.679 885.955 421.417 900.386 432.266C914.639 442.459 916.045 462.56 918.207 489.718C920.925 521.061 923.724 560.156 947.189 603.383C965.439 636.88 983.465 649.334 999.599 660.104C1015.22 671.119 1028.61 680.244 1040.48 706.062C1062.3 754.906 1051.93 805.919 1043.03 850.659C1035.09 889.371 1028.79 922.465 1045.21 943.859C1064.74 969.318 1105.76 964.74 1137.67 951.946C1177.38 936.127 1220.97 900.624 1228.69 856.825C1233.51 828.898 1220.34 808.903 1201.64 781.189C1191.6 766.367 1180.52 749.82 1169.56 728.393C1134.23 659.349 1113.96 564.114 1113.8 467.718C1113.77 465.503 1112.57 464.23 1110.86 464.309C1109.16 464.389 1108.15 465.987 1108.18 468.202C1108.19 566.157 1128.98 662.254 1164.66 732.611C1175.8 754.695 1187.23 771.447 1197.27 786.269C1215.45 813.121 1227.23 831.186 1222.88 855.546C1215.82 896.433 1173.9 929.641 1135.71 944.724C1097.53 959.806 1063.76 957.175 1048.9 938.367C1034.39 919.765 1040.87 888.435 1047.99 851.979C1056.72 807.69 1067.9 753.314 1045.03 701.638C1032.64 673.85 1017.88 663.903 1002.25 652.888C986.281 641.668 969.461 630.487 952.075 598.057C929.651 556.555 926.52 518.362 923.98 487.675C921.806 459.41 920.034 436.888 903.202 424.599C886.713 412.517 860.83 414.613 832.533 430.12C802.047 448.167 763.243 485.441 743.364 539.559Z" fill="url(#paint0_linear_58_122)"/>
<path opacity="0.1" d="M1003.34 100.926C992.775 129.959 993.356 169 994.564 188.258C999.453 270.773 1043.85 323.763 1117.4 411.808C1128.25 424.903 1138.24 436.94 1147.56 447.474C1148.41 448.531 1149.58 448.695 1150.58 448.209C1151.58 447.723 1152.07 446.383 1152.22 444.839C1152.18 346.731 1173.17 258.602 1210.39 202.627C1234.1 166.827 1262.5 146.388 1287.57 128.301C1318.79 105.753 1343.86 87.666 1343.97 50.129C1344.07 28.395 1335.71 12.9878 1327.01 -2.62311C1317.29 -19.9415 1307.4 -37.9103 1305.24 -68.0971C1302.65 -107.262 1315.9 -135.764 1326.86 -159.109C1336.35 -179.532 1344.7 -196.827 1338.33 -214.304C1331.78 -232.431 1310.88 -246.148 1282.72 -251.18C1243.33 -258.095 1190.92 -246.177 1162.74 -204.898C1145.11 -179.042 1137.62 -143.79 1128.69 -102.323C1121.52 -67.9638 1113.23 -29.3809 1097.41 9.55814C1091.87 23.6479 1084.84 38.4672 1071.91 50.2726C1060.65 60.902 1051.13 63.3274 1042.12 65.5097C1034.78 67.6129 1027.94 69.4729 1020.97 75.0703C1012.83 80.5037 1007.41 89.7593 1003.34 100.926ZM1146.61 436.545C1138.48 427.272 1130.17 417.349 1121.36 406.572C1042.56 312.63 1004.74 264.157 1000.08 187.777C999.035 168.073 997.166 102.096 1023.54 80.4361C1029.51 75.3249 1035.69 74.1545 1042.69 71.8478C1052.2 69.4223 1062.71 66.5107 1074.64 55.1915C1088.23 42.6963 1095.59 26.9838 1101.46 12.0008C1117.44 -27.3849 1125.72 -67.0647 1133.22 -101.221C1141.83 -141.794 1149.15 -176.599 1166.13 -200.668C1193.16 -239.918 1243.24 -251.068 1281.12 -244.52C1307.1 -240.262 1326.64 -227.359 1332.5 -211.833C1337.66 -197.811 1330.46 -182.545 1321.46 -163.463C1310.34 -139.671 1296.1 -109.586 1299.05 -68.0236C1301.23 -35.643 1312.15 -15.9669 1321.87 1.35151C1330.57 16.9624 1338.07 30.2154 1337.94 49.7557C1337.79 82.9052 1314.38 99.8162 1284.66 121.635C1259.09 139.965 1230.53 160.85 1205.99 197.787C1169.27 253.519 1147.59 340.144 1146.61 436.545Z" fill="url(#paint1_linear_58_122)"/>
<path opacity="0.1" d="M1104.55 429.539C1104.07 430.857 1104.25 432.576 1105.08 433.616C1156.6 494.415 1187.81 521.424 1223.55 512.595C1262.87 502.731 1292.38 462.246 1298.08 428.727C1301.77 406.314 1296.21 390.603 1290.14 374.053C1284.92 359.621 1279.36 344.99 1278.98 323.851C1277.88 266.907 1312.76 208.247 1346.26 188.946C1377.32 170.841 1419.78 178.962 1462.65 210.381C1519.04 252.165 1559.53 321.263 1565.62 386.604C1572.63 461.616 1535.17 524.069 1501.89 579.414C1474.25 625.855 1450.13 665.866 1463.58 699.768C1479.71 740.666 1534.51 739.131 1587.33 737.475C1635.25 736.053 1685.3 734.313 1696.45 767.893C1704.39 791.478 1687.5 818.191 1666.42 852.012C1640.03 893.859 1606.72 945.967 1608.45 1016.7C1609.64 1067.81 1627.81 1099.76 1645.33 1131.31C1663.5 1163.25 1680.34 1193.32 1676.1 1240.59C1672.26 1280.07 1656.44 1300.47 1639.66 1322.43C1623.2 1343.51 1606.25 1365.9 1599.98 1406.57C1591.41 1462.47 1608.34 1516.71 1623.93 1552.46C1624.61 1553.93 1626.41 1554.5 1627.55 1553.58C1628.68 1552.66 1629.15 1550.26 1628.48 1548.78C1613.22 1514.32 1596.8 1461.99 1605.06 1408.06C1611.04 1369.34 1627.17 1348.07 1642.99 1327.66C1659.61 1306.15 1677.04 1283.51 1681.01 1241.44C1685.88 1191.33 1668.21 1160.22 1649.37 1126.79C1632.2 1096.53 1614.36 1064.78 1613.35 1016.46C1611.82 948.531 1644.33 897.54 1670.07 856.372C1692.59 820.755 1710.46 792.484 1701.16 764.861C1688.17 727.483 1639.1 728.745 1587.09 730.362C1535.9 731.94 1483.07 733.597 1468.45 696.297C1456.68 666.633 1479.5 627.979 1506.03 583.535C1538.01 529.547 1578.21 462.862 1571.01 385.052C1564.56 317.352 1523.23 246.136 1465.52 203.551C1421.16 170.692 1376.91 163.088 1344.06 181.71C1308.94 202.169 1272.12 263.943 1273.41 323.684C1273.98 346.542 1279.72 362.892 1285.1 376.884C1290.99 392.795 1296.05 406.587 1292.82 426.603C1286.21 465.995 1252.02 497.204 1222.81 504.642C1189.2 513.154 1159.47 486.506 1108.94 427.386C1107.78 426.146 1106.15 426.224 1105.18 427.781C1104.7 429.1 1104.7 429.1 1104.55 429.539Z" fill="url(#paint2_linear_58_122)"/>
<path opacity="0.1" d="M630.731 3268.85C630.564 3269.31 630.564 3269.31 630.397 3269.76C630.074 3271.78 631.125 3273.51 632.678 3273.88C655.78 3277.71 679.169 3276.18 700.947 3268.71C779.84 3242.8 849.282 3153.22 881.936 3035.09C884.255 3026.53 886.574 3017.96 888.725 3009.85C895.993 2981.03 903.428 2951.75 917.456 2927.51C945.345 2879.48 981.445 2875.58 1020.29 2871.1C1052.09 2867.4 1084.58 2864.11 1113.88 2835.16C1158.17 2791.93 1160.94 2728.38 1164.02 2661.69C1167.43 2594.1 1170.31 2524.53 1213.73 2464.21C1249.02 2415.61 1288.52 2408.21 1326.65 2401.1C1364.78 2393.99 1400.86 2387.87 1426.16 2338.84C1485.17 2223.72 1413.11 2016.08 1404.77 1992.88C1391.12 1955.46 1377.61 1930.27 1366.89 1910.07C1351.44 1880.96 1340.91 1861.42 1343.14 1827.94C1348.49 1748.24 1417.76 1691.17 1485.15 1635.74C1515.01 1610.99 1544.56 1590.47 1575.53 1573.01C1577.07 1572.27 1577.56 1569.8 1577.02 1567.83C1576.49 1565.85 1574.59 1565.27 1573.05 1566.01C1541.91 1583.92 1512.01 1604.23 1482.15 1628.98C1413.57 1685.35 1342.59 1743.62 1337.27 1826.65C1335.07 1862.36 1345.78 1882.56 1361.94 1913.19C1372.65 1933.39 1385.99 1957.92 1399.29 1995.14C1407.62 2018.34 1478.45 2222.47 1421.12 2334.18C1397.34 2380.24 1364.36 2386 1325.88 2392.9C1288.26 2399.77 1246.17 2407.29 1209.54 2458.39C1164.59 2520.57 1161.25 2594.83 1158.15 2660.4C1155.06 2725.98 1152.27 2787.31 1110.37 2828.64C1082.44 2856.2 1050.8 2859.45 1019.86 2863.11C981.876 2867.55 942.336 2871.61 912.929 2922.6C898.22 2947.54 890.797 2977.93 883.362 3007.21C881.211 3015.32 879.238 3024.09 876.573 3032.45C844.409 3148.11 777.01 3235.58 699.491 3261.21C678.74 3268.18 655.697 3269.92 633.455 3266.06C632.428 3266.55 631.233 3267.5 630.731 3268.85Z" fill="url(#paint3_linear_58_122)"/>
<path opacity="0.1" d="M1098.77 1167.73C1098.6 1168.19 1098.6 1168.19 1098.44 1168.64C1064.72 1259.76 1061.48 1361.27 1061.03 1465.55L1061.03 1481.59C1060.47 1575.85 1060.12 1672.99 1035.18 1762.14C1001.93 1880.64 929.564 1971.99 859.238 2060.12C803.047 2130.67 745.155 2203.52 706.05 2290.88C662.392 2388.25 644.073 2499.59 626.234 2607.35C613.262 2685.92 599.451 2766.76 576.779 2841.77C570.943 2860.98 564.078 2880.68 557.895 2899.68C530.623 2980.25 502.345 3063.54 519.096 3146.52C534.567 3222.67 591.957 3281.72 662.133 3293.61C663.69 3293.99 665.055 3292.59 665.379 3290.57L710.64 3002.21C723.085 2922.77 737.149 2833.23 780.956 2766.37C818.14 2709.4 871.63 2677.07 923.574 2645.49C952.379 2628.33 982.035 2610.03 1008.89 2587.85C1106.22 2508.04 1172.36 2367.08 1181.5 2219.85C1185.03 2162.21 1180.45 2103.61 1176.05 2046.78C1169.27 1960.88 1162.46 1871.64 1184.54 1789.09C1207.78 1702.24 1260.7 1632.51 1311.57 1564.88C1369.76 1487.78 1430.17 1408.13 1445.28 1303.17C1457.49 1217.5 1434.07 1123.91 1385.31 1065.57C1356.3 1030.61 1320.88 1009.52 1284.95 1005.84C1201.02 997.921 1129.81 1083.87 1098.77 1167.73ZM1027.35 1805.05C1032.22 1791.91 1036.74 1778.56 1040.56 1764.79C1066 1674.28 1066.17 1576.47 1066.9 1481.76L1066.9 1465.72C1067.53 1362.1 1070.78 1261.7 1103.99 1171.95C1104.16 1171.49 1104.16 1171.49 1104.33 1171.04C1134.35 1089.9 1203.52 1006.05 1284.01 1014.13C1318.72 1017.64 1353.1 1038.11 1380.89 1071.79C1428.08 1128.64 1450.95 1219.14 1439.07 1302.79C1424.45 1405.27 1367.27 1480.77 1306.87 1560.42C1255.48 1628.3 1202.22 1698.93 1178.48 1787.14C1155.73 1871.51 1163.24 1961.16 1170.03 2048.18C1174.59 2104.55 1179.18 2163.15 1175.63 2219.67C1166.82 2364.89 1101.68 2503.13 1005.72 2581.53C979.03 2603.26 949.542 2621.11 921.085 2638.47C868.625 2670.31 814.452 2703.34 776.418 2761.46C732.108 2829.68 717.54 2920.57 704.927 3000.47L660.146 3285.24C593.419 3273.18 539.335 3216.65 524.593 3144.27C508.56 3063.92 535.988 2981.78 562.756 2902.57C569.286 2883.78 575.805 2863.87 581.808 2844.21C604.816 2768.29 618.447 2686.8 631.766 2608.43C649.785 2501.33 667.937 2390.44 711.259 2293.98C750.028 2207.53 807.753 2135.13 863.429 2064.83C925.406 1986.66 990.114 1905.69 1027.35 1805.05Z" fill="url(#paint4_linear_58_122)"/>
<path opacity="0.1" d="M-398.304 2421.52C-398.623 2422.4 -398.612 2423.48 -398.441 2424.12C-381.163 2504.54 -352.804 2561.03 -315.394 2588.06C-303.639 2596.82 -290.937 2601.85 -278.726 2607.11C-255.626 2616.85 -236.152 2625.45 -227.155 2652.97C-217.815 2681.77 -228.531 2709.14 -240.056 2737.64C-250.453 2764.13 -261.5 2791.31 -258.534 2823.23C-253.298 2883.42 -197.062 2950.94 -122.095 2987.88C-50.7647 3022.61 13.5854 3018.67 49.2814 2976.89C103.481 2914.08 91.9465 2770.99 66.9386 2689.64C51.8062 2641.19 34.144 2617.55 16.4932 2594.99C-0.49623 2572.84 -16.3227 2551.93 -27.4528 2509.13C-51.2412 2418.84 -33.6772 2309.03 -4.10491 2247.39C8.91424 2220.34 23.1995 2204.28 36.4822 2202.13C57.9625 2198.51 74.0975 2233.05 91.0648 2268.64C110.222 2309.32 131.898 2355.3 165.898 2354.98C228.971 2354.57 280.817 2193.52 298.632 2091.93C321.405 1962.15 315.734 1876.42 282.771 1850.47C254.608 1827.98 216.448 1854.28 179.76 1879.86C145.841 1903.36 113.713 1925.26 94.124 1905.83C71.8785 1883.71 75.7628 1816.14 94.5046 1771.06C130.529 1682.68 228.923 1667.16 281.211 1672.03C336.292 1676.99 372.391 1704.3 401.375 1726.75C429.195 1747.95 451.384 1764.66 476.523 1749.81C508.025 1730.76 516.174 1678.16 524.346 1627.73C532.336 1575.57 539.87 1526.9 570.414 1510.5C604.88 1492.17 652.038 1524.59 671.366 1565.91C702.803 1633.96 659.825 1732.63 636.569 1785.73C594.388 1882.2 562.887 1916.85 505.564 1979.37C492.088 1994.31 476.332 2011.1 459.288 2030.32C371.307 2129.62 329.594 2223.69 331.583 2318.48C333.126 2386.65 358.6 2450 383.231 2511.22C413.768 2587.32 442.618 2659.17 428.187 2739.15C419.81 2785.7 397.397 2825.33 375.462 2863.64C367.402 2878.1 358.851 2892.81 351.453 2907.68C308.496 2992.92 287.933 3098.75 294.005 3206.79C300.076 3314.82 331.515 3414.06 383.214 3487.42C432.746 3557.85 513.448 3609.03 582.642 3566.09C648.735 3525.03 672.935 3421.4 689.062 3315.56L689.689 3312.71C689.997 3310.75 688.993 3309.06 687.511 3308.7C686.029 3308.34 684.729 3309.7 684.422 3311.66L683.795 3314.51C667.975 3418.39 644.083 3520.05 580.441 3559.91C513.859 3601.22 435.299 3550.8 387.272 3482.9C336.406 3410.58 305.309 3312.62 299.261 3206.75C293.212 3100.88 313.456 2995.93 355.774 2912.45C363.173 2897.59 371.723 2882.88 379.624 2868.85C401.878 2829.66 424.61 2789.15 433.467 2741.28C448.364 2658.9 417.496 2582.59 387.802 2508.62C363.674 2448.24 338.37 2385.54 337.01 2319.09C334.884 2226.9 375.959 2134.6 462.48 2037.1C479.684 2017.44 494.95 2000.89 508.757 1986.15C566.73 1922.95 598.561 1888.5 641.221 1790.71C664.956 1736.28 709.223 1635.17 676.268 1563.51C656.256 1519.62 605.962 1485.84 568.715 1505.16C535.389 1522.56 527.251 1576.25 519.09 1627.76C511.556 1676.43 503.715 1727.07 474.824 1744.48C452.136 1758.13 432.262 1742.82 404.772 1721.82C374.967 1699.41 338.367 1671.26 282.134 1666.14C228.535 1661.54 127.519 1677.62 89.8869 1769.33C65.5477 1828.76 70.9896 1892.85 91.0802 1913.12C113.326 1935.24 147.085 1912.19 182.633 1887.53C218.022 1863.31 255.042 1837.93 280.388 1858.17C311.037 1882.71 315.693 1965.68 293.706 2092.16C274.797 2199 223.167 2349.43 166.502 2349.97C135.455 2349.93 115.295 2307.56 96.1384 2266.88C77.9965 2228.96 61.1889 2192.94 36.4249 2196.72C21.5004 2198.94 5.42518 2216.61 -8.23237 2245.42C-38.4431 2308.82 -56.4743 2421.04 -32.1728 2513.25C-20.3699 2557.54 -4.04181 2579.29 13.1187 2602.09C30.1082 2624.24 47.5993 2647.24 62.3896 2694.41C86.8843 2773.84 98.2134 2913.03 46.4536 2973.56C12.2169 3013.54 -50.001 3017.15 -119.518 2982.99C-192.832 2947.05 -247.563 2882.07 -252.446 2824.24C-255.058 2794.68 -244.661 2768.19 -234.253 2742.78C-222.089 2712.52 -210.894 2683.82 -221.089 2651.81C-230.611 2621.29 -252.719 2612.16 -276.15 2602.23C-288.03 2597.16 -300.242 2591.89 -311.826 2583.78C-347.582 2557.75 -375.268 2502.74 -392.033 2424.25C-392.546 2422.33 -393.869 2421.52 -395.51 2421.6C-397.335 2419.95 -397.985 2420.63 -398.304 2421.52Z" fill="url(#paint5_linear_58_122)"/>
<path opacity="0.1" d="M-332.739 1227.9C-349.759 1274.3 -356.655 1329.52 -350.642 1383.7C-346.704 1418.49 -338.328 1454.84 -330.142 1489.44C-310.914 1571.33 -292.926 1648.63 -327.943 1713.35C-343.617 1742.42 -367.727 1761.48 -390.987 1780.5C-395.707 1784.27 -399.921 1787.78 -404.641 1791.55C-498.851 1869.68 -571.729 1987.54 -610.245 2123.27C-628.766 2188.55 -635.475 2261.47 -628.188 2323.56C-619.946 2395.56 -594.544 2450.37 -554.425 2482.14C-518.767 2510.13 -482.882 2511.33 -449.404 2509.98C-415.926 2508.64 -379.981 2499.43 -345.475 2482.76C-343.953 2482.02 -343.292 2480.22 -343.823 2478.25C-373.677 2339.97 -363.017 2158.39 -316.417 2015.42C-288.761 1929.79 -265.83 1895.73 -234.366 1848.65C-206.584 1807.06 -171.768 1755.4 -120.521 1649.85C-19.0193 1441.44 -38.4184 1295.14 -58.6974 1226.36C-69.0905 1192.09 -82.812 1164.62 -100.027 1144.39C-147.708 1088.85 -230.653 1090.75 -285.129 1148.2C-305.31 1169.06 -321.337 1196.82 -332.739 1227.9ZM-313.84 1696.53C-290.541 1633.02 -307.987 1558.79 -324.725 1487.19C-332.912 1452.6 -341.11 1416.9 -345.214 1382.56C-354.989 1294.25 -330.094 1204.76 -281.672 1153.57C-229.379 1098.65 -149.667 1096.47 -104.051 1149.67C-87.6977 1168.83 -74.1531 1195.65 -64.1139 1228.6C-43.8466 1296.28 -25.1554 1439.95 -125.324 1645.87C-176.747 1750.77 -211.221 1802.63 -238.838 1843.77C-270.809 1891.09 -293.563 1925.8 -322.057 2012.59C-368.316 2155.76 -379.483 2337.58 -350.466 2477.01C-383.792 2492.74 -418.214 2501.22 -449.993 2502.48C-482.621 2503.79 -517.315 2502.76 -551.947 2475.38C-633.895 2410.82 -640.69 2250.65 -605.289 2125.69C-567.268 1991.31 -494.886 1874.8 -401.857 1797.62C-397.478 1793.65 -392.923 1790.33 -388.203 1786.57C-364.435 1767.31 -339.652 1747.55 -323.648 1717.58C-319.812 1710.54 -316.484 1703.74 -313.84 1696.53Z" fill="url(#paint6_linear_58_122)"/>
<path opacity="0.1" d="M-379.126 2444.43C-379.458 2445.34 -379.447 2446.45 -379.269 2447.1C-378.735 2449.08 -377.015 2450.1 -375.485 2449.37C-269.213 2398.92 -191.521 2296.11 -181.498 2193.58C-177.638 2154.56 -183.945 2123.79 -189.529 2096.76C-196.001 2066.44 -200.873 2042.04 -187.61 2019.68C-172.673 1993.91 -149.247 1995.26 -122.227 1997.1C-97.2593 1998.82 -69.2193 2000.17 -45.1856 1978.2C-2.5393 1938.71 -9.01801 1859.35 -16.4799 1767.84C-24.5104 1671.03 -33.1918 1561.15 17.3828 1479.58C43.2573 1437.77 71.8211 1424.01 101.737 1408.85C136.078 1391.94 171.783 1374.74 203.258 1313.14C232.562 1256.3 238.12 1200.13 242.3 1159.1C245.697 1124.78 248.511 1100.01 262.449 1092.93C287.952 1080.64 322.07 1139.63 357.932 1201.86C401.976 1278.35 447.929 1357.64 494.593 1342.59C523.038 1333.72 549.245 1291 568.172 1222.44C585.627 1160.17 594.224 1084.32 591.658 1019.43C590.948 1000.83 589.218 982.711 586.469 965.088C586.279 963.322 584.725 961.841 583.361 962.127C581.997 962.412 580.823 964.464 581.012 966.231C583.418 983.647 585.314 1001.31 585.679 1019.71C591.132 1147.48 551.056 1316.88 493.313 1334.66C450.053 1348.44 403.744 1267.84 362.487 1196.32C323.839 1129.12 290.242 1071 260.658 1085.25C243.316 1093.6 240.526 1120.58 236.643 1157.37C232.285 1197.74 226.715 1252.8 198.419 1308.04C167.774 1367.38 133.434 1384.3 99.7694 1400.51C70.1854 1414.76 39.7591 1430.16 12.8761 1473.58C-39.0391 1557.65 -30.0021 1668.84 -22.1259 1767.21C-15.0315 1856.3 -8.57606 1933.44 -48.1736 1970.35C-70.5111 1991.14 -96.3331 1989.46 -121.467 1988.19C-148.997 1986.59 -175.163 1984.71 -192.116 2013.68C-206.887 2039 -201.303 2066.03 -195.163 2097.25C-189.757 2123.62 -183.628 2153.74 -187.334 2191.19C-197.214 2291.05 -273.566 2391.36 -377.797 2440.82C-378.118 2442.83 -378.794 2443.53 -379.126 2444.43Z" fill="url(#paint7_linear_58_122)"/>
</g>
<g opacity="0.2">
<path opacity="0.1" d="M-568.943 -619.197C-573.122 -610.656 -576.879 -601.209 -580.114 -591.95C-598.886 -534.155 -593.952 -464.776 -567.777 -418.502C-554.428 -395.459 -541.629 -388.068 -529.25 -381.584C-518.339 -375.63 -507.953 -369.488 -498.596 -352.412C-462.221 -285.489 -489.033 -144.158 -550.039 -82.1536C-570.758 -60.9959 -591.082 -54.7726 -608.996 -49.0602C-630.053 -42.2222 -650.377 -35.9989 -665.002 -6.10532C-685.584 35.0793 -691.763 102.452 -667.809 136.489C-650.685 160.646 -625.533 158.68 -601.219 156.663C-576.59 154.886 -550.599 152.972 -531.065 176.618C-503.548 210.435 -508.374 272.392 -510.231 290.316C-516.018 340.994 -538.506 370.182 -560.576 398.515C-580.553 424.338 -601.158 451.443 -608.53 493.883C-617.254 543.5 -600.957 574.645 -585.395 604.644C-571.832 630.78 -559.109 655.105 -562.93 690.285C-569.745 753.659 -623.146 786.876 -690.054 829.157C-757.277 871.199 -833.819 919.044 -889.639 1011.95C-945.668 1105.28 -971.249 1229.96 -965.759 1382.97C-965.756 1384.73 -964.391 1386.36 -963.028 1386.22C-961.666 1386.08 -960.306 1384.19 -960.309 1382.43C-965.797 1231.18 -940.527 1108.01 -885.334 1016.39C-830.141 924.771 -754.647 877.301 -688.157 835.874C-622.19 794.634 -565.019 759.011 -557.584 690.836C-553.139 652.614 -567.332 625.999 -580.581 600.102C-595.407 571.248 -610.863 541.915 -603.078 495.1C-595.911 454.847 -576.875 430.065 -556.689 403.815C-534.201 374.627 -510.772 344.398 -504.57 291.106C-502.294 272.328 -497.369 207.518 -526.672 171.169C-547.677 145.234 -574.716 147.522 -600.707 149.436C-624.812 151.026 -647.763 152.907 -663.101 131.281C-685.269 99.7734 -679.502 36.7749 -659.965 -2.27437C-646.487 -28.9392 -628.364 -35.0785 -607.516 -41.4895C-589.079 -47.3895 -568.022 -54.2273 -546.361 -76.4267C-483.157 -140.275 -455.515 -286.835 -493.467 -356.714C-503.665 -375.603 -515.205 -382.036 -526.116 -387.99C-537.971 -394.662 -550.141 -401.573 -562.439 -423.232C-587.666 -467.027 -592.177 -533.74 -574.135 -589.161C-553.173 -654.08 -504.184 -694.169 -468.677 -709.353C-441.444 -720.869 -417.021 -720.459 -404.004 -708.216C-391.093 -696.639 -391.794 -676.664 -392.484 -649.649C-393.062 -618.447 -394.361 -579.591 -375.84 -534.45C-361.423 -499.462 -345.049 -485.251 -330.355 -472.904C-316.184 -460.369 -304.008 -449.937 -295.056 -423.206C-278.727 -372.701 -294.159 -323.499 -307.505 -280.327C-319.289 -242.999 -328.879 -211.034 -315.007 -188.179C-298.506 -160.981 -257.838 -161.108 -225.256 -170.313C-184.711 -181.667 -138.327 -212.017 -126.237 -254.387C-118.63 -281.414 -129.46 -302.542 -144.916 -331.875C-153.222 -347.567 -162.37 -365.07 -170.896 -387.376C-198.37 -459.248 -208.379 -555.338 -198.577 -650.425C-198.37 -652.612 -199.421 -653.996 -201.098 -654.1C-202.775 -654.204 -203.926 -652.735 -204.132 -650.548C-214.246 -553.941 -203.816 -456.944 -176.131 -383.739C-167.498 -360.768 -158.036 -343.024 -149.73 -327.332C-134.695 -298.906 -125.021 -279.829 -131.796 -256.27C-142.946 -216.702 -187.447 -188.435 -226.421 -177.645C-265.394 -166.854 -298.212 -173.062 -310.822 -193.2C-323.118 -213.098 -313.524 -243.303 -302.786 -278.496C-289.648 -321.241 -273.068 -373.672 -290.136 -427.082C-299.406 -455.813 -312.841 -467.202 -327.012 -479.736C-341.497 -492.511 -356.821 -505.337 -370.502 -539.179C-388.182 -582.508 -387.3 -620.511 -386.616 -651.046C-385.824 -679.155 -385.231 -701.556 -400.452 -715.476C-415.358 -729.156 -440.934 -729.857 -470.262 -717.59C-501.998 -703.053 -543.871 -670.444 -568.943 -619.197Z" fill="url(#paint8_linear_58_122)"/>
<path opacity="0.1" d="M-207.915 -679.194C-208.525 -677.937 -208.522 -676.211 -207.806 -675.088C-162.873 -609.075 -134.642 -578.84 -98.1995 -583.695C-58.0827 -589.186 -24.553 -626.157 -15.4186 -658.817C-9.43119 -680.669 -13.3382 -696.879 -17.6551 -713.977C-21.3557 -728.879 -25.3632 -744.016 -23.5606 -765.05C-18.7546 -821.714 21.995 -876.145 57.2962 -891.644C90.0465 -906.223 131.419 -893.511 170.788 -857.62C222.532 -809.957 255.633 -736.912 254.926 -671.362C254.133 -596.108 210.429 -538.193 171.614 -486.879C139.32 -443.79 111.202 -406.699 121.062 -371.563C132.875 -329.186 187.507 -324.712 240.198 -320.574C287.988 -316.742 337.922 -312.991 345.536 -278.427C350.988 -254.138 331.426 -229.461 306.974 -198.184C276.408 -159.519 237.894 -111.422 232.294 -40.9983C228.193 9.88403 242.953 43.5981 257.098 76.8424C271.857 110.556 285.49 142.259 276.379 188.73C268.48 227.509 250.643 246.035 231.686 266.003C213.135 285.132 193.974 305.518 183.524 345.218C169.219 399.781 180.442 455.5 192.246 492.698C192.759 494.24 194.496 494.995 195.72 494.208C196.943 493.421 197.654 491.092 197.141 489.55C185.544 453.659 174.631 399.902 188.428 347.249C198.371 309.46 216.615 290.095 234.452 271.569C253.206 252.02 272.877 231.45 281.18 190.107C291.205 140.887 276.856 108.062 261.584 72.8058C247.645 40.869 233.192 7.38977 237.196 -40.6936C242.698 -108.319 280.295 -155.393 310.147 -193.455C336.23 -226.358 356.913 -252.475 350.535 -280.921C341.485 -319.459 292.572 -323.577 240.697 -327.664C189.639 -331.7 136.948 -335.837 126.264 -374.476C117.636 -405.22 144.327 -441.105 175.297 -482.334C212.684 -532.443 259.548 -594.261 260.438 -672.314C261.039 -740.244 227.321 -815.485 174.351 -864.088C133.652 -901.572 90.442 -913.966 55.8544 -899.07C18.8191 -882.599 -24.1719 -825.287 -29.0753 -765.824C-30.875 -743.064 -26.8648 -726.201 -22.9607 -711.718C-18.747 -695.273 -15.1495 -681.025 -20.4261 -661.502C-31.0825 -623.11 -68.304 -595.863 -98.1107 -591.673C-132.409 -586.9 -159.209 -616.615 -203.323 -680.851C-204.346 -682.209 -205.98 -682.311 -207.101 -680.87C-207.711 -679.613 -207.711 -679.613 -207.915 -679.194Z" fill="url(#paint9_linear_58_122)"/>
<path opacity="0.1" d="M162.174 479.538C161.969 479.961 162.174 479.538 162.174 479.538C161.558 480.805 161.456 481.887 161.87 482.783C187.884 562.937 240.682 628.219 271.081 617.269C283.652 612.393 290.327 596.055 297.413 578.873C305.321 560 313.124 540.469 329.511 535.612C341.465 532.003 350.653 538.447 360.459 545.365C371.196 552.993 382.447 560.436 397.079 554.817C420.881 545.199 433.4 508.99 439.661 491.757C448.692 466.21 449.28 447.536 449.665 431.025C450.05 414.514 450.437 399.744 459.376 380.501C466.259 365.481 473.053 358.506 479.641 351.952C486.744 345.214 493.538 338.238 498.357 322.22C509.637 285.065 497.813 242.994 482.101 219.393C457.19 182.384 411.183 170.391 379.051 192.764C353.303 210.746 348.82 242.667 344.035 279.573C339.45 312.576 334.254 350.326 313.179 387.527C288.401 430.589 259.858 441.218 216.578 456.807C201.121 462.375 183.913 468.921 164.027 477.478C162.996 477.849 162.585 478.694 162.174 479.538ZM285.577 591.844C281.261 600.714 276.427 608.029 269.729 610.441C242.731 620.514 192.825 558.022 167.955 483.378C186.295 475.379 202.267 469.626 216.899 464.007C261.415 447.624 290.784 437.046 316.589 391.872C338.796 353.219 343.887 314.809 348.574 280.725C353.668 244.056 357.538 215.143 380.608 199.17C410.063 178.806 454.11 190.46 476.954 224.73C491.633 246.962 502.731 286.159 492.064 320.307C487.757 334.399 482.095 339.922 475.507 346.475C468.919 353.028 461.405 360.611 453.7 377.32C444.249 398.49 443.554 414.764 443.479 431.511C443.094 448.022 442.709 464.533 434.089 489.235C428.239 505.624 416.438 539.484 395.417 547.752C382.846 552.629 373.144 546.37 363.027 539.215C352.91 532.06 342.484 524.669 328.674 528.598C309.607 533.724 300.365 556.212 292.561 575.743C290.199 581.471 288.043 586.776 285.577 591.844Z" fill="url(#paint10_linear_58_122)"/>
<path opacity="0.1" d="M-938.624 2079.18C-938.834 2079.6 -938.834 2079.6 -939.044 2080.03C-939.568 2081.99 -938.722 2083.8 -937.245 2084.34C-915.097 2090.56 -892.114 2091.53 -870.09 2086.49C-790.421 2069.34 -713.385 1988.46 -669.291 1875.53C-666.142 1867.34 -662.993 1859.15 -660.053 1851.38C-649.978 1823.75 -639.692 1795.7 -623.494 1773.3C-591.307 1728.94 -555.675 1728.93 -517.303 1728.65C-485.889 1728.38 -453.841 1728.59 -422.257 1703.17C-374.563 1665.29 -365.281 1602.96 -355.372 1537.58C-345.042 1471.35 -335.032 1403.11 -286.417 1348.28C-246.956 1304.15 -207.64 1301.06 -169.694 1298.1C-131.748 1295.14 -95.9092 1292.94 -66.1492 1247.33C3.35976 1140.16 -45.4754 927.927 -51.2063 904.18C-60.6505 865.858 -71.2348 839.604 -79.5969 818.564C-91.6635 788.246 -99.9191 767.874 -94.2793 735.117C-80.8061 657.159 -7.30249 608.283 64.2004 560.83C95.8972 539.611 126.863 522.541 158.888 508.626C160.468 508.061 161.202 505.679 160.883 503.673C160.563 501.667 158.77 500.894 157.189 501.459C124.954 515.803 93.6721 532.633 61.9752 553.851C-10.7913 602.11 -86.0854 651.978 -99.8696 733.228C-105.717 768.179 -97.3546 789.219 -84.7582 821.114C-76.3962 842.155 -65.9184 867.74 -56.7909 905.822C-51.06 929.569 -3.07392 1138.22 -70.5851 1242.2C-98.5573 1285.05 -131.339 1287.22 -169.602 1289.94C-207.021 1292.71 -248.868 1295.65 -289.906 1342.11C-340.205 1398.6 -351.157 1471.41 -360.962 1535.69C-370.768 1599.97 -379.842 1660.11 -425.008 1696.38C-455.119 1720.57 -486.323 1720.41 -516.894 1720.73C-554.423 1721.06 -593.428 1720.87 -627.403 1767.99C-644.338 1791 -654.727 1820.15 -665.013 1848.21C-667.952 1855.97 -670.785 1864.4 -674.251 1872.36C-717.611 1982.9 -792.436 2061.93 -870.735 2078.95C-891.706 2083.61 -914.372 2082.88 -935.676 2076.71C-936.73 2077.09 -937.994 2077.89 -938.624 2079.18Z" fill="url(#paint11_linear_58_122)"/>
<path opacity="0.1" d="M-272.146 51.5281C-272.357 51.957 -272.357 51.957 -272.567 52.3857C-314.868 138.568 -328.538 238.221 -339.775 340.896L-341.438 356.697C-351.741 449.49 -362.144 545.148 -395.685 630.324C-440.371 743.527 -520.368 825.839 -598.048 905.203C-660.128 968.742 -724.105 1034.37 -771.27 1116.28C-823.909 1207.57 -853.296 1315.31 -881.844 1419.57C-902.625 1495.59 -924.458 1573.76 -954.326 1645.24C-962.003 1663.55 -970.736 1682.22 -978.73 1700.28C-1013.66 1776.76 -1049.85 1855.81 -1042.11 1939.33C-1034.91 2015.98 -985.087 2080.23 -917.912 2099.39C-916.433 2099.92 -914.957 2098.69 -914.432 2096.73L-840.453 1817.48C-820.095 1740.54 -797.114 1653.83 -747.488 1592.62C-705.343 1540.44 -649.854 1514.26 -595.947 1488.65C-566.093 1474.81 -535.289 1459.92 -506.815 1440.92C-403.675 1372.62 -324.602 1240.78 -300.447 1096.71C-291.036 1040.31 -289.44 982.094 -287.842 925.65C-285.551 840.314 -282.949 751.685 -252.882 672.699C-221.239 589.615 -162.43 526.537 -105.836 465.31C-41.127 395.528 26.0067 323.467 51.6027 221.677C72.3724 138.585 59.2346 43.9047 17.7492 -18.7293C-6.90968 -56.2511 -39.2544 -80.7737 -73.8942 -88.21C-154.895 -104.909 -233.212 -27.7939 -272.146 51.5281ZM-407.759 671.766C-401.656 659.332 -395.87 646.657 -390.718 633.502C-356.546 547.039 -346.249 450.712 -335.736 357.49L-334.073 341.69C-322.729 239.684 -309.164 141.129 -267.493 56.2324C-267.283 55.8037 -267.283 55.8037 -267.072 55.3748C-229.401 -21.3746 -153.298 -96.6387 -75.6758 -80.1478C-42.1978 -73.0041 -10.8044 -49.2027 12.7965 -13.0712C52.9067 47.932 65.8284 139.506 45.5834 220.643C20.7226 320.049 -42.8278 388.356 -109.962 460.418C-167.083 521.833 -226.312 585.768 -258.587 670.139C-289.496 750.839 -291.464 839.95 -293.859 926.384C-295.246 982.399 -296.842 1040.61 -306.149 1095.92C-329.78 1238.03 -407.59 1367.3 -509.254 1434.36C-537.518 1452.94 -568.11 1467.4 -597.648 1481.48C-652.082 1507.28 -708.309 1534.07 -751.403 1587.3C-801.661 1649.8 -825.273 1737.79 -845.841 1815.16L-918.981 2090.93C-982.777 2071.98 -1029.64 2010.56 -1036.52 1937.69C-1043.83 1856.84 -1008.59 1778.84 -974.291 1703.65C-965.979 1685.83 -957.564 1666.91 -949.676 1648.18C-919.388 1575.84 -897.661 1497 -876.563 1421.22C-847.908 1317.63 -818.732 1210.32 -766.513 1119.89C-719.769 1038.84 -656.003 973.634 -594.45 910.284C-525.941 839.853 -454.48 766.953 -407.759 671.766Z" fill="url(#paint12_linear_58_122)"/>
</g>
<path opacity="0.1" d="M56.9855 4717.46C56.9855 4720.27 57.1761 4723.22 57.462 4726.03C59.5586 4743.33 68.1353 4759.07 78.904 4765.4C84.3359 4768.49 87.9572 4767.93 91.3879 4767.23C94.4375 4766.66 97.3917 4766.24 101.299 4768.63C116.546 4778.05 125.886 4816.86 119.12 4842.87C116.832 4851.72 113.02 4856.93 109.685 4861.57C105.778 4867.05 101.966 4872.25 101.966 4882.09C101.871 4895.73 107.779 4913.02 116.737 4916.82C123.122 4919.49 128.459 4914.43 133.605 4909.51C138.846 4904.59 144.373 4899.39 151.235 4901.5C160.955 4904.59 166.578 4920.34 168.102 4924.98C172.295 4938.19 170.485 4949.3 168.674 4960.12C167.054 4969.97 165.434 4980.23 168.388 4991.76C171.819 5005.26 178.776 5009.75 185.447 5014.11C191.26 5017.91 196.692 5021.42 199.646 5030.56C204.983 5047.01 196.787 5064.73 186.59 5087.08C176.298 5109.44 164.576 5134.88 162.289 5167.36C160.002 5199.98 167.816 5234.57 185.542 5270.28C185.732 5270.7 186.209 5270.84 186.495 5270.56C186.781 5270.28 186.876 5269.57 186.685 5269.15C169.151 5233.86 161.432 5199.7 163.719 5167.64C166.006 5135.59 177.537 5110.42 187.734 5088.35C197.835 5066.41 206.603 5047.43 200.885 5029.72C197.74 5019.74 191.736 5015.94 186.018 5012.14C179.633 5007.93 173.058 5003.71 169.722 4991.05C166.959 4980.09 168.484 4970.67 170.104 4960.69C171.914 4949.58 173.82 4938.05 169.437 4924.13C167.912 4919.21 162.003 4902.76 151.616 4899.39C144.183 4897 138.465 4902.48 132.938 4907.68C127.792 4912.46 122.931 4917.1 117.214 4914.71C108.923 4911.2 103.395 4895.03 103.491 4882.09C103.586 4873.24 106.921 4868.46 110.829 4863.11C114.259 4858.33 118.167 4852.85 120.549 4843.57C127.601 4816.72 117.881 4776.51 101.966 4766.66C97.6776 4763.99 94.4375 4764.56 91.3879 4765.12C88.0525 4765.68 84.6218 4766.24 79.571 4763.29C69.2789 4757.39 61.0833 4742.2 59.0821 4725.61C56.6996 4706.21 63.1799 4687.65 69.3742 4677.53C74.1391 4669.79 79.571 4665.44 83.7641 4666C87.8619 4666.42 89.8632 4671.34 92.6268 4677.95C95.8669 4685.54 99.7741 4695.1 108.732 4702.55C115.689 4708.32 120.835 4708.74 125.409 4709.02C129.888 4709.44 133.7 4709.72 138.56 4714.5C147.613 4723.64 149.519 4738.26 151.235 4751.06C152.664 4762.17 153.998 4771.59 159.526 4774.54C166.101 4778.05 175.059 4770.6 181.253 4762.45C188.973 4752.32 195.929 4736.58 194.023 4724.2C192.784 4716.33 188.115 4713.24 181.539 4709.02C178.013 4706.77 174.106 4704.24 169.818 4700.44C156 4688.21 143.42 4666.98 135.32 4642.38C135.129 4641.82 134.748 4641.68 134.367 4641.96C133.986 4642.24 133.891 4642.8 134.081 4643.36C142.277 4668.39 155.047 4689.76 169.055 4702.27C173.439 4706.21 177.442 4708.74 180.968 4710.99C187.352 4715.07 191.546 4717.88 192.594 4724.77C194.405 4736.3 187.638 4751.2 180.205 4760.9C172.772 4770.6 164.862 4775.1 159.907 4772.57C155.047 4770.04 153.903 4761.04 152.474 4750.64C150.758 4737.98 148.757 4722.38 139.227 4712.68C134.081 4707.47 129.888 4707.19 125.409 4706.77C120.835 4706.35 116.07 4706.07 109.399 4700.44C100.822 4693.27 96.9152 4683.99 93.7704 4676.54C90.9114 4669.65 88.6243 4664.17 83.7641 4663.61C78.9993 4663.05 73.2814 4667.54 68.1353 4675.84C62.7034 4685.12 56.9855 4700.58 56.9855 4717.46Z" fill="url(#paint13_linear_58_122)"/>
<path opacity="0.1" d="M71.8519 4577.28C71.8519 4586.42 75.2826 4596.4 77.1885 4601.18C85.2888 4621.71 100.06 4628.46 124.551 4639.71C128.173 4641.39 131.508 4642.94 134.558 4644.21C134.843 4644.35 135.129 4644.21 135.32 4643.93C135.511 4643.64 135.511 4643.22 135.415 4642.8C127.124 4617.49 124.551 4591.48 128.459 4571.24C130.936 4558.3 135.796 4548.6 140.085 4540.03C145.422 4529.34 149.71 4520.76 146.565 4511.06C144.754 4505.44 141.514 4502.77 138.179 4500.1C134.462 4497.14 130.65 4494.05 127.601 4486.6C123.694 4476.9 124.361 4467.48 124.933 4459.75C125.409 4453 125.886 4447.23 122.931 4443.72C119.882 4440.06 113.878 4439.78 106.921 4442.87C97.201 4447.23 86.0512 4458.48 83.0017 4473.52C81.0957 4482.94 82.3346 4493.21 83.7641 4505.3C85.0029 4515.28 86.3371 4526.53 85.9559 4539.04C85.8606 4543.54 85.4794 4548.46 83.4781 4553.52C81.7628 4558.02 79.7615 4560.13 77.8556 4562.1C76.3308 4563.79 74.9014 4565.33 73.7578 4567.86C72.3284 4570.53 71.8519 4573.77 71.8519 4577.28ZM133.414 4641.53C130.746 4640.41 127.982 4639.14 125.028 4637.74C98.821 4625.79 85.9559 4619.18 78.4274 4600.2C76.5214 4595.28 70.5177 4578.55 74.8061 4568.85C75.7591 4566.6 77.0932 4565.33 78.5227 4563.65C80.5239 4561.54 82.7158 4559.15 84.5264 4554.37C86.623 4549.02 87.0042 4543.82 87.0995 4539.04C87.4807 4526.39 86.0512 4514.86 84.9076 4504.88C83.4781 4493.07 82.2393 4482.94 84.1452 4474.09C87.0995 4459.75 97.7728 4449.06 107.112 4444.84C113.497 4441.89 119.119 4442.17 121.788 4445.26C124.17 4448.08 123.789 4453.14 123.313 4459.46C122.741 4467.34 121.978 4477.32 126.171 4487.58C129.412 4495.6 133.605 4498.97 137.321 4501.92C140.657 4504.6 143.516 4506.84 145.136 4511.91C147.899 4520.48 143.897 4528.5 138.846 4538.76C134.462 4547.48 129.602 4557.32 127.029 4570.67C123.217 4590.78 125.504 4616.51 133.414 4641.53Z" fill="url(#paint14_linear_58_122)"/>
<path opacity="0.1" d="M134.081 4643.22C134.081 4643.64 134.272 4644.07 134.558 4644.21C151.997 4651.94 161.717 4654.05 169.437 4646.03C177.918 4637.18 181.444 4621.85 179.919 4612.15C178.871 4605.68 176.203 4602.45 173.344 4599.08C170.866 4596.12 168.293 4593.17 166.387 4587.69C161.241 4572.92 164.481 4551.98 170.771 4541.57C176.584 4531.87 187.353 4527.23 200.218 4528.64C217.181 4530.61 232.714 4542.27 239.766 4558.44C247.866 4577 244.34 4599.36 241.196 4619.18C238.623 4635.77 236.335 4650.11 242.434 4656.86C249.772 4665.01 262.638 4655.88 275.026 4647.02C286.271 4639 297.993 4630.57 303.52 4637.6C307.427 4642.52 305.712 4652.22 303.615 4664.45C300.947 4679.64 297.516 4698.62 303.997 4716.89C308.666 4730.11 315.718 4735.59 322.58 4741.08C329.632 4746.56 336.207 4751.76 339.257 4764.84C341.734 4775.8 339.733 4783.68 337.637 4792.11C335.54 4800.27 333.444 4808.84 335.445 4820.51C338.208 4836.54 346.88 4848.07 353.647 4854.96C353.932 4855.24 354.409 4855.1 354.6 4854.68C354.79 4854.26 354.695 4853.55 354.409 4853.27C347.833 4846.66 339.447 4835.56 336.779 4820.09C334.873 4808.98 336.874 4800.83 338.875 4792.96C340.972 4784.66 343.164 4775.94 340.496 4764.27C337.351 4750.36 330.489 4745.01 323.151 4739.25C316.481 4734.05 309.524 4728.56 305.14 4716.05C298.946 4698.48 302.281 4679.92 304.854 4665.01C307.141 4652.08 308.952 4641.82 304.378 4636.05C298.088 4628.32 286.557 4636.47 274.359 4645.19C262.352 4653.77 249.963 4662.62 243.292 4655.17C237.955 4649.27 240.052 4635.49 242.53 4619.6C245.484 4600.34 249.296 4576.44 240.91 4557.18C233.572 4540.45 217.657 4528.36 200.313 4526.39C186.971 4524.84 175.822 4529.9 169.627 4540.02C163.052 4550.99 159.621 4573.06 165.053 4588.53C167.149 4594.44 169.913 4597.81 172.391 4600.62C175.154 4603.86 177.537 4606.67 178.49 4612.43C180.3 4623.82 174.869 4637.46 168.579 4644.07C161.336 4651.66 151.997 4649.41 134.939 4641.96C134.558 4641.82 134.177 4642.1 134.081 4642.66C134.081 4643.08 134.081 4643.08 134.081 4643.22Z" fill="url(#paint15_linear_58_122)"/>
<path opacity="0.1" d="M353.361 4854.12C353.361 4854.26 353.361 4854.12 353.361 4854.12C353.361 4854.54 353.456 4854.82 353.647 4854.96C368.227 4869.58 387.191 4875.63 392.814 4867.33C395.101 4863.82 394.815 4858.61 394.529 4853.13C394.243 4847.09 393.862 4840.9 397.007 4836.68C399.294 4833.59 402.058 4833.45 405.012 4833.31C408.252 4833.17 411.587 4832.89 414.256 4828.81C418.544 4822.06 417.401 4810.95 416.924 4805.61C416.162 4797.74 414.256 4793.1 412.54 4789.02C410.825 4784.94 409.3 4781.29 409.205 4774.96C409.11 4770.04 409.872 4767.09 410.634 4764.27C411.492 4761.32 412.255 4758.37 411.587 4753.59C410.063 4742.48 402.82 4734.47 396.721 4731.66C387.096 4727.3 375.47 4732.92 370.705 4744.31C366.893 4753.45 369.371 4762.03 372.325 4771.87C374.898 4780.72 377.852 4790.85 377.185 4803.78C376.327 4818.83 371.086 4826.7 363.081 4838.51C360.222 4842.73 357.077 4847.51 353.551 4853.27C353.361 4853.55 353.361 4853.83 353.361 4854.12ZM393.29 4858.47C393.29 4861.43 393.004 4864.1 391.766 4865.93C386.81 4873.38 368.799 4867.47 355.076 4853.97C358.316 4848.63 361.27 4844.27 363.939 4840.2C372.134 4827.96 377.566 4819.95 378.424 4804.2C379.186 4790.71 376.137 4780.44 373.468 4771.3C370.61 4761.46 368.322 4753.73 371.753 4745.58C376.137 4735.17 387.287 4729.83 396.149 4733.91C401.867 4736.58 408.633 4744.03 409.967 4754.29C410.539 4758.51 409.872 4760.9 409.11 4763.71C408.347 4766.52 407.49 4769.76 407.585 4775.24C407.776 4782.13 409.396 4786.21 411.206 4790.29C412.922 4794.36 414.637 4798.44 415.399 4806.03C415.876 4811.09 416.924 4821.5 413.112 4827.4C410.825 4830.92 407.966 4831.2 404.917 4831.34C401.867 4831.48 398.722 4831.62 396.054 4835.14C392.337 4839.92 392.719 4847.09 393.1 4853.27C393.195 4855.1 393.29 4856.79 393.29 4858.47Z" fill="url(#paint16_linear_58_122)"/>
<path opacity="0.1" d="M282.65 5429.29C282.65 5429.43 282.65 5429.43 282.65 5429.57C282.745 5430.13 283.127 5430.42 283.508 5430.28C289.035 5427.74 294.181 5423.81 298.469 5418.61C314.098 5400.05 322.294 5366.73 319.816 5331.72C319.626 5329.19 319.435 5326.66 319.244 5324.27C318.482 5315.83 317.72 5307.25 318.863 5298.96C321.15 5282.51 328.965 5276.04 337.351 5269.01C344.212 5263.25 351.264 5257.48 355.457 5245.67C361.842 5227.96 357.173 5211.37 352.313 5193.93C347.452 5176.22 342.306 5158.08 347.071 5136.15C350.978 5118.43 359.269 5110.56 367.274 5102.97C375.279 5095.38 382.903 5088.35 384.523 5072.04C388.24 5033.8 354.695 4991.9 350.883 4987.26C344.689 4979.81 339.543 4975.45 335.445 4971.93C329.536 4966.87 325.534 4963.5 323.247 4954.64C317.815 4933.55 328.679 4908.53 339.257 4884.2C343.926 4873.38 348.882 4863.68 354.409 4854.54C354.695 4854.12 354.6 4853.41 354.314 4852.99C354.028 4852.57 353.551 4852.71 353.266 4853.13C347.738 4862.41 342.688 4872.11 338.018 4882.94C327.249 4907.68 316.1 4933.27 321.817 4955.2C324.295 4964.62 328.393 4968.14 334.587 4973.48C338.685 4977 343.736 4981.21 349.835 4988.67C353.647 4993.3 386.62 5034.5 382.998 5071.62C381.474 5086.94 374.517 5093.41 366.417 5101C358.507 5108.45 349.644 5116.75 345.642 5135.31C340.686 5157.94 346.118 5177.34 350.883 5194.5C355.648 5211.65 360.127 5227.68 354.123 5244.55C350.121 5255.8 343.259 5261.42 336.588 5267.04C328.393 5273.93 319.816 5280.96 317.434 5298.4C316.195 5306.97 317.052 5315.83 317.815 5324.41C318.005 5326.8 318.291 5329.33 318.387 5331.86C320.769 5366.16 312.859 5398.64 297.516 5416.92C293.419 5421.84 288.368 5425.78 283.031 5428.17C282.841 5428.45 282.65 5428.87 282.65 5429.29Z" fill="url(#paint17_linear_58_122)"/>
<path opacity="0.1" d="M204.983 4823.89C204.983 4824.03 204.983 4824.03 204.983 4824.17C204.983 4852.43 212.702 4878.72 221.279 4905.29L222.613 4909.37C230.332 4933.41 238.337 4958.16 240.147 4984.59C242.53 5019.74 233.858 5053.9 225.376 5086.94C218.61 5113.37 211.653 5140.65 210.129 5168.77C208.413 5200.12 213.559 5231.19 218.515 5261.28C222.136 5283.21 225.758 5305.85 226.901 5328.34C227.187 5334.11 227.282 5340.15 227.473 5345.92C228.045 5370.52 228.616 5395.97 239.29 5414.53C249.105 5431.54 266.926 5437.87 283.698 5430.28C284.08 5430.13 284.27 5429.57 284.175 5429.01L270.357 5348.87C266.545 5326.8 262.256 5301.91 266.545 5278.29C270.166 5258.19 279.505 5241.88 288.559 5225.99C293.609 5217.27 298.755 5208.13 302.948 5198.43C318.196 5163.43 321.341 5117.59 311.144 5078.79C307.142 5063.6 301.233 5049.4 295.515 5035.62C286.843 5014.82 277.885 4993.16 275.979 4968.84C273.978 4943.25 280.077 4917.52 285.89 4892.64C292.561 4864.24 299.518 4834.85 294.181 4805.89C289.797 4782.27 276.742 4762.03 260.922 4754.57C251.488 4750.07 241.767 4750.07 233.381 4754.57C213.845 4765.26 204.983 4797.88 204.983 4823.89ZM241.958 4996.68C241.958 4992.6 241.863 4988.52 241.577 4984.45C239.766 4957.59 231.666 4932.71 223.947 4908.53L222.613 4904.45C214.131 4878.02 206.507 4852.01 206.507 4824.17C206.507 4824.03 206.507 4824.03 206.507 4823.89C206.507 4798.72 215.084 4766.95 233.858 4756.82C241.958 4752.46 251.393 4752.46 260.446 4756.82C275.789 4764.13 288.463 4783.68 292.752 4806.73C297.993 4834.99 291.417 4862.83 284.461 4892.22C278.552 4917.24 272.453 4943.25 274.455 4969.26C276.36 4994.15 285.509 5015.8 294.276 5036.89C299.994 5050.53 305.903 5064.73 309.81 5079.63C319.911 5117.87 316.767 5162.86 301.71 5197.31C297.517 5206.87 292.37 5215.87 287.415 5224.58C278.266 5240.61 268.832 5257.2 265.115 5277.73C260.827 5301.77 265.115 5327.08 268.927 5349.29L282.555 5428.45C266.545 5435.48 249.677 5429.29 240.338 5413.12C230.046 5395.13 229.379 5370.1 228.807 5345.92C228.712 5340.15 228.521 5334.11 228.235 5328.2C227.092 5305.43 223.375 5282.65 219.849 5260.72C214.989 5230.77 209.843 5199.84 211.558 5168.77C213.083 5140.93 220.04 5113.8 226.71 5087.5C234.144 5058.26 241.958 5027.89 241.958 4996.68Z" fill="url(#paint18_linear_58_122)"/>
<path opacity="0.1" d="M-49.1758 5368.98C-49.1758 5369.26 -49.0806 5369.54 -48.9853 5369.68C-38.026 5387.96 -26.495 5398.22 -15.3452 5399.34C-11.8192 5399.77 -8.38852 5399.06 -5.0531 5398.5C1.23651 5397.38 6.57318 5396.53 11.0522 5402.3C15.7217 5408.34 15.5312 5417.2 15.2453 5426.48C15.0547 5435.06 14.7688 5443.91 18.1995 5451.79C24.5844 5466.69 43.6439 5475.41 64.5141 5473.16C84.3359 5470.91 99.2023 5459.66 104.063 5443.07C111.496 5418.04 96.534 5382.47 83.6689 5365.18C75.9498 5354.92 69.7554 5351.54 63.6564 5348.45C57.7479 5345.36 52.2207 5342.4 45.931 5332.98C32.5894 5313.16 27.3481 5281.67 29.0634 5260.86C29.8258 5251.72 31.827 5245.25 34.7813 5242.58C39.5461 5238.22 46.3122 5244.69 53.3643 5251.3C61.3692 5258.89 70.4225 5267.47 78.4275 5261.98C93.2939 5251.86 91.7691 5201.53 87.2901 5172.14C81.5723 5134.6 72.9002 5113.09 62.894 5111.55C54.3172 5110.14 47.5511 5123.07 41.0709 5135.59C35.0671 5147.12 29.3493 5157.94 23.0596 5155.97C15.9123 5153.72 11.0522 5135.45 11.624 5120.68C12.5769 5091.86 34.4953 5072.18 47.2652 5065.15C60.7022 5057.7 71.5661 5059.1 80.3334 5060.37C88.7196 5061.49 95.3905 5062.34 100.06 5054.46C105.873 5044.48 103.3 5029.44 100.918 5014.96C98.3447 5000.05 95.9622 4986.14 101.775 4977C108.351 4966.73 122.264 4967.72 130.365 4975.45C143.611 4988.24 141.896 5020.86 140.943 5038.44C139.227 5070.35 134.748 5084.41 126.553 5109.86C124.647 5115.9 122.36 5122.79 119.977 5130.53C107.684 5170.46 105.873 5201.67 114.45 5226.13C120.644 5243.71 132.08 5256.22 143.134 5268.31C156.857 5283.35 169.818 5297.55 173.248 5320.75C175.25 5334.25 173.344 5348.17 171.438 5361.67C170.771 5366.73 170.008 5371.93 169.532 5376.99C166.673 5406.09 170.866 5437.02 181.539 5464.3C192.213 5491.58 208.127 5512.52 226.615 5523.49C244.34 5534.04 267.784 5534.6 280.458 5512.38C292.561 5491.15 289.416 5460.22 284.175 5429.99L284.079 5429.15C283.984 5428.59 283.603 5428.31 283.222 5428.45C282.841 5428.59 282.65 5429.15 282.745 5429.71L282.841 5430.56C287.987 5460.22 291.036 5490.59 279.41 5511.12C267.212 5532.49 244.34 5531.79 227.187 5521.66C208.985 5510.84 193.261 5490.17 182.778 5463.46C172.296 5436.74 168.102 5406.09 170.961 5377.55C171.438 5372.49 172.2 5367.29 172.867 5362.37C174.773 5348.59 176.679 5334.39 174.678 5320.47C171.152 5296.57 157.334 5281.53 143.992 5266.9C133.128 5254.95 121.788 5242.58 115.784 5225.43C107.398 5201.67 109.209 5171.02 121.311 5131.79C123.694 5123.92 125.886 5117.17 127.887 5111.12C136.178 5085.4 140.752 5071.34 142.467 5039C143.42 5021 145.231 4987.54 131.318 4974.04C122.836 4965.75 108.065 4964.91 100.918 4975.87C94.5328 4985.71 97.2011 5001.04 99.6788 5015.8C102.061 5029.72 104.539 5044.2 99.2023 5053.34C95.0092 5060.51 89.0055 5059.67 80.7146 5058.54C71.7567 5057.42 60.7022 5055.87 46.9793 5063.46C33.9236 5070.77 11.4334 5091.02 10.3851 5120.97C9.71802 5140.37 16.4841 5156.26 22.9644 5158.36C30.1117 5160.61 36.1154 5149.23 42.405 5137.13C48.6947 5125.18 55.2702 5112.67 62.9893 5113.94C72.3284 5115.48 80.524 5136.43 86.1466 5172.99C90.8162 5203.92 91.4832 5251.44 78.1416 5260.58C70.8037 5265.5 62.4175 5257.62 54.4125 5250.03C46.884 5243 39.832 5236.25 34.3048 5241.18C30.9694 5244.13 28.6822 5251.3 27.9198 5261C26.2045 5282.37 31.5411 5314.57 45.1687 5334.81C51.7442 5344.51 57.462 5347.61 63.4658 5350.84C69.3742 5353.93 75.4733 5357.17 83.0018 5367.15C95.581 5384.02 110.162 5418.61 103.11 5442.65C98.44 5458.54 84.05 5469.36 64.7047 5471.47C44.311 5473.72 25.8233 5465.42 19.7242 5451.08C16.5794 5443.77 16.77 5435.2 17.0559 5426.9C17.3418 5417.06 17.5324 5407.78 12.3864 5401.03C7.52619 5394.56 1.52243 5395.69 -4.86252 5396.81C-8.10263 5397.38 -11.438 5397.94 -14.8687 5397.66C-25.5421 5396.53 -36.7872 5386.55 -47.4605 5368.7C-47.7464 5368.27 -48.1276 5368.27 -48.5088 5368.55C-49.0806 5368.41 -49.1758 5368.7 -49.1758 5368.98Z" fill="url(#paint19_linear_58_122)"/>
<path opacity="0.1" d="M-49.1756 5368.98C-49.1756 5369.26 -49.0803 5369.54 -48.985 5369.68C-48.6991 5370.1 -48.2226 5370.1 -47.9367 5369.68C-28.0196 5340.58 -18.9663 5302.47 -25.2559 5274.78C-27.6384 5264.23 -31.6409 5257.34 -35.1669 5251.3C-39.1694 5244.55 -42.3142 5239.07 -41.1706 5231.33C-39.9318 5222.48 -34.4998 5219.24 -28.2102 5215.59C-22.397 5212.21 -15.9168 5208.28 -12.2955 5199C-5.91057 5182.41 -14.0108 5163.14 -23.35 5140.93C-33.2609 5117.45 -44.4107 5090.74 -39.7412 5062.2C-37.3587 5047.57 -32.0221 5039.7 -26.4948 5031.27C-20.1099 5021.7 -13.439 5011.86 -11.4378 4991.34C-9.53184 4972.36 -12.9626 4957.17 -15.4403 4946.06C-17.5368 4936.79 -18.9663 4930.04 -16.3933 4926.1C-11.6284 4919.07 1.04615 4928.91 14.3878 4939.32C30.779 4952.11 47.8372 4965.33 57.1764 4954.36C62.8942 4947.75 65.2767 4932.85 63.8472 4912.46C62.6083 4893.9 58.2246 4873.24 52.2209 4857.07C50.5056 4852.43 48.5996 4848.07 46.5031 4843.99C46.3125 4843.57 45.836 4843.43 45.5501 4843.71C45.2642 4843.99 45.1689 4844.7 45.3595 4845.12C47.3607 4849.19 49.2667 4853.41 50.8867 4858.05C62.7989 4889.83 67.8497 4939.18 56.2234 4952.53C47.5513 4962.65 30.3025 4949.16 14.9596 4937.21C0.569666 4925.96 -11.9143 4916.26 -17.4416 4924.41C-20.6817 4929.19 -19.0616 4936.5 -16.8698 4946.49C-14.4873 4957.45 -11.1519 4972.36 -12.9626 4990.77C-14.9638 5010.6 -21.3487 5020.16 -27.6384 5029.44C-33.1656 5037.59 -38.7882 5046.17 -41.2659 5061.35C-46.0308 5090.74 -34.6904 5117.73 -24.6842 5141.63C-15.6309 5163.28 -7.72121 5181.98 -13.6297 5197.45C-16.9651 5206.17 -22.9688 5209.68 -28.782 5213.2C-35.1669 5216.99 -41.2659 5220.51 -42.6954 5230.49C-43.9343 5239.21 -40.4082 5245.25 -36.4057 5252.28C-32.975 5258.19 -29.0678 5264.93 -26.7807 5275.06C-20.6817 5302.05 -29.6396 5339.31 -49.1756 5367.85C-49.0803 5368.41 -49.1756 5368.69 -49.1756 5368.98Z" fill="url(#paint20_linear_58_122)"/>
</g>
<defs>
<linearGradient id="paint0_linear_58_122" x1="672.461" y1="732.583" x2="1461.21" y2="1318.71" gradientUnits="userSpaceOnUse">
<stop stop-color="#3877FF"/>
<stop offset="0.490484" stop-color="#1FAEA8"/>
<stop offset="1" stop-color="#1CFFAD"/>
</linearGradient>
<linearGradient id="paint1_linear_58_122" x1="1110.41" y1="-193.21" x2="1449.21" y2="158.504" gradientUnits="userSpaceOnUse">
<stop stop-color="#3877FF"/>
<stop offset="0.490484" stop-color="#1FAEA8"/>
<stop offset="1" stop-color="#1CFFAD"/>
</linearGradient>
<linearGradient id="paint2_linear_58_122" x1="1156.62" y1="285.602" x2="1699.74" y2="1376.64" gradientUnits="userSpaceOnUse">
<stop stop-color="#3877FF"/>
<stop offset="0.490484" stop-color="#1FAEA8"/>
<stop offset="1" stop-color="#1CFFAD"/>
</linearGradient>
<linearGradient id="paint3_linear_58_122" x1="1168.41" y1="1813.51" x2="1754.5" y2="2192.07" gradientUnits="userSpaceOnUse">
<stop stop-color="#3877FF"/>
<stop offset="0.490484" stop-color="#1FAEA8"/>
<stop offset="1" stop-color="#1CFFAD"/>
</linearGradient>
<linearGradient id="paint4_linear_58_122" x1="1009.7" y1="1408.43" x2="1660.54" y2="1815.03" gradientUnits="userSpaceOnUse">
<stop stop-color="#3877FF"/>
<stop offset="0.490484" stop-color="#1FAEA8"/>
<stop offset="1" stop-color="#1CFFAD"/>
</linearGradient>
<linearGradient id="paint5_linear_58_122" x1="-80.8007" y1="1544.4" x2="896.932" y2="3227.41" gradientUnits="userSpaceOnUse">
<stop stop-color="#3877FF"/>
<stop offset="0.490484" stop-color="#1FAEA8"/>
<stop offset="1" stop-color="#1CFFAD"/>
</linearGradient>
<linearGradient id="paint6_linear_58_122" x1="-368.611" y1="1325.69" x2="175.609" y2="1745.99" gradientUnits="userSpaceOnUse">
<stop stop-color="#3877FF"/>
<stop offset="0.490484" stop-color="#1FAEA8"/>
<stop offset="1" stop-color="#1CFFAD"/>
</linearGradient>
<linearGradient id="paint7_linear_58_122" x1="107.32" y1="1122.17" x2="732.555" y2="1568.23" gradientUnits="userSpaceOnUse">
<stop stop-color="#3877FF"/>
<stop offset="0.490484" stop-color="#1FAEA8"/>
<stop offset="1" stop-color="#1CFFAD"/>
</linearGradient>
<linearGradient id="paint8_linear_58_122" x1="-658.369" y1="-436.416" x2="58.4773" y2="220.932" gradientUnits="userSpaceOnUse">
<stop stop-color="#3877FF"/>
<stop offset="0.490484" stop-color="#1FAEA8"/>
<stop offset="1" stop-color="#1CFFAD"/>
</linearGradient>
<linearGradient id="paint9_linear_58_122" x1="-141.248" y1="-816.423" x2="280.124" y2="328.505" gradientUnits="userSpaceOnUse">
<stop stop-color="#3877FF"/>
<stop offset="0.490484" stop-color="#1FAEA8"/>
<stop offset="1" stop-color="#1CFFAD"/>
</linearGradient>
<linearGradient id="paint10_linear_58_122" x1="298.853" y1="198.64" x2="512.603" y2="533.852" gradientUnits="userSpaceOnUse">
<stop stop-color="#3877FF"/>
<stop offset="0.490484" stop-color="#1FAEA8"/>
<stop offset="1" stop-color="#1CFFAD"/>
</linearGradient>
<linearGradient id="paint11_linear_58_122" x1="-263.293" y1="702.348" x2="273.736" y2="1132.23" gradientUnits="userSpaceOnUse">
<stop stop-color="#3877FF"/>
<stop offset="0.490484" stop-color="#1FAEA8"/>
<stop offset="1" stop-color="#1CFFAD"/>
</linearGradient>
<linearGradient id="paint12_linear_58_122" x1="-383.893" y1="279.194" x2="213.37" y2="742.349" gradientUnits="userSpaceOnUse">
<stop stop-color="#3877FF"/>
<stop offset="0.490484" stop-color="#1FAEA8"/>
<stop offset="1" stop-color="#1CFFAD"/>
</linearGradient>
<linearGradient id="paint13_linear_58_122" x1="56.9855" y1="4777.63" x2="280.321" y2="4829.38" gradientUnits="userSpaceOnUse">
<stop stop-color="#3877FF"/>
<stop offset="0.490484" stop-color="#1FAEA8"/>
<stop offset="1" stop-color="#1CFFAD"/>
</linearGradient>
<linearGradient id="paint14_linear_58_122" x1="71.8519" y1="4484.7" x2="179.338" y2="4524.72" gradientUnits="userSpaceOnUse">
<stop stop-color="#3877FF"/>
<stop offset="0.490484" stop-color="#1FAEA8"/>
<stop offset="1" stop-color="#1CFFAD"/>
</linearGradient>
<linearGradient id="paint15_linear_58_122" x1="134.081" y1="4597.16" x2="379.86" y2="4761.98" gradientUnits="userSpaceOnUse">
<stop stop-color="#3877FF"/>
<stop offset="0.490484" stop-color="#1FAEA8"/>
<stop offset="1" stop-color="#1CFFAD"/>
</linearGradient>
<linearGradient id="paint16_linear_58_122" x1="353.361" y1="4760.61" x2="439.102" y2="4799.6" gradientUnits="userSpaceOnUse">
<stop stop-color="#3877FF"/>
<stop offset="0.490484" stop-color="#1FAEA8"/>
<stop offset="1" stop-color="#1CFFAD"/>
</linearGradient>
<linearGradient id="paint17_linear_58_122" x1="282.65" y1="4977.47" x2="442.636" y2="5005.77" gradientUnits="userSpaceOnUse">
<stop stop-color="#3877FF"/>
<stop offset="0.490484" stop-color="#1FAEA8"/>
<stop offset="1" stop-color="#1CFFAD"/>
</linearGradient>
<linearGradient id="paint18_linear_58_122" x1="204.983" y1="4898.54" x2="381.234" y2="4927.49" gradientUnits="userSpaceOnUse">
<stop stop-color="#3877FF"/>
<stop offset="0.490484" stop-color="#1FAEA8"/>
<stop offset="1" stop-color="#1CFFAD"/>
</linearGradient>
<linearGradient id="paint19_linear_58_122" x1="-49.1759" y1="5089.28" x2="352.009" y2="5330.21" gradientUnits="userSpaceOnUse">
<stop stop-color="#3877FF"/>
<stop offset="0.490484" stop-color="#1FAEA8"/>
<stop offset="1" stop-color="#1CFFAD"/>
</linearGradient>
<linearGradient id="paint20_linear_58_122" x1="-49.1756" y1="4957.25" x2="125.886" y2="4994.97" gradientUnits="userSpaceOnUse">
<stop stop-color="#3877FF"/>
<stop offset="0.490484" stop-color="#1FAEA8"/>
<stop offset="1" stop-color="#1CFFAD"/>
</linearGradient>
<clipPath id="clip0_58_122">
<rect width="1440" height="5399" fill="white"/>
</clipPath>
</defs>
</svg>
